G04 (created by PCBNEW (2013-07-07 BZR 4022)-stable) date 15/12/2015 05:15:49 PM*
%MOIN*%
G04 Gerber Fmt 3.4, Leading zero omitted, Abs format*
%FSLAX34Y34*%
G01*
G70*
G90*
G04 APERTURE LIST*
%ADD10C,0.00590551*%
%ADD11C,0.01*%
%ADD12C,0.00787402*%
%ADD13C,0.0075*%
%ADD14C,0.01125*%
%ADD15C,0.00625*%
%ADD16C,0.005*%
%ADD17C,0.012*%
%ADD18C,0.0125*%
%ADD19C,0.006*%
%ADD20C,0.00393701*%
%ADD21C,0.0001*%
%ADD22C,0.015*%
%ADD23C,0.0108*%
G04 APERTURE END LIST*
G54D10*
G54D11*
X54861Y-17747D02*
X54861Y-17938D01*
X54461Y-17938D01*
X54652Y-17614D02*
X54652Y-17480D01*
X54861Y-17423D02*
X54861Y-17614D01*
X54461Y-17614D01*
X54461Y-17423D01*
X54861Y-17252D02*
X54461Y-17252D01*
X54461Y-17157D01*
X54480Y-17100D01*
X54519Y-17061D01*
X54557Y-17042D01*
X54633Y-17023D01*
X54690Y-17023D01*
X54766Y-17042D01*
X54804Y-17061D01*
X54842Y-17100D01*
X54861Y-17157D01*
X54861Y-17252D01*
X54461Y-16680D02*
X54461Y-16757D01*
X54480Y-16795D01*
X54500Y-16814D01*
X54557Y-16852D01*
X54633Y-16871D01*
X54785Y-16871D01*
X54823Y-16852D01*
X54842Y-16833D01*
X54861Y-16795D01*
X54861Y-16719D01*
X54842Y-16680D01*
X54823Y-16661D01*
X54785Y-16642D01*
X54690Y-16642D01*
X54652Y-16661D01*
X54633Y-16680D01*
X54614Y-16719D01*
X54614Y-16795D01*
X54633Y-16833D01*
X54652Y-16852D01*
X54690Y-16871D01*
X53661Y-17747D02*
X53661Y-17938D01*
X53261Y-17938D01*
X53452Y-17614D02*
X53452Y-17480D01*
X53661Y-17423D02*
X53661Y-17614D01*
X53261Y-17614D01*
X53261Y-17423D01*
X53661Y-17252D02*
X53261Y-17252D01*
X53261Y-17157D01*
X53280Y-17100D01*
X53319Y-17061D01*
X53357Y-17042D01*
X53433Y-17023D01*
X53490Y-17023D01*
X53566Y-17042D01*
X53604Y-17061D01*
X53642Y-17100D01*
X53661Y-17157D01*
X53661Y-17252D01*
X53261Y-16661D02*
X53261Y-16852D01*
X53452Y-16871D01*
X53433Y-16852D01*
X53414Y-16814D01*
X53414Y-16719D01*
X53433Y-16680D01*
X53452Y-16661D01*
X53490Y-16642D01*
X53585Y-16642D01*
X53623Y-16661D01*
X53642Y-16680D01*
X53661Y-16719D01*
X53661Y-16814D01*
X53642Y-16852D01*
X53623Y-16871D01*
X52461Y-17747D02*
X52461Y-17938D01*
X52061Y-17938D01*
X52252Y-17614D02*
X52252Y-17480D01*
X52461Y-17423D02*
X52461Y-17614D01*
X52061Y-17614D01*
X52061Y-17423D01*
X52461Y-17252D02*
X52061Y-17252D01*
X52061Y-17157D01*
X52080Y-17100D01*
X52119Y-17061D01*
X52157Y-17042D01*
X52233Y-17023D01*
X52290Y-17023D01*
X52366Y-17042D01*
X52404Y-17061D01*
X52442Y-17100D01*
X52461Y-17157D01*
X52461Y-17252D01*
X52195Y-16680D02*
X52461Y-16680D01*
X52042Y-16776D02*
X52328Y-16871D01*
X52328Y-16623D01*
X51261Y-17747D02*
X51261Y-17938D01*
X50861Y-17938D01*
X51052Y-17614D02*
X51052Y-17480D01*
X51261Y-17423D02*
X51261Y-17614D01*
X50861Y-17614D01*
X50861Y-17423D01*
X51261Y-17252D02*
X50861Y-17252D01*
X50861Y-17157D01*
X50880Y-17100D01*
X50919Y-17061D01*
X50957Y-17042D01*
X51033Y-17023D01*
X51090Y-17023D01*
X51166Y-17042D01*
X51204Y-17061D01*
X51242Y-17100D01*
X51261Y-17157D01*
X51261Y-17252D01*
X50861Y-16890D02*
X50861Y-16642D01*
X51014Y-16776D01*
X51014Y-16719D01*
X51033Y-16680D01*
X51052Y-16661D01*
X51090Y-16642D01*
X51185Y-16642D01*
X51223Y-16661D01*
X51242Y-16680D01*
X51261Y-16719D01*
X51261Y-16833D01*
X51242Y-16871D01*
X51223Y-16890D01*
X50061Y-17747D02*
X50061Y-17938D01*
X49661Y-17938D01*
X49852Y-17614D02*
X49852Y-17480D01*
X50061Y-17423D02*
X50061Y-17614D01*
X49661Y-17614D01*
X49661Y-17423D01*
X50061Y-17252D02*
X49661Y-17252D01*
X49661Y-17157D01*
X49680Y-17100D01*
X49719Y-17061D01*
X49757Y-17042D01*
X49833Y-17023D01*
X49890Y-17023D01*
X49966Y-17042D01*
X50004Y-17061D01*
X50042Y-17100D01*
X50061Y-17157D01*
X50061Y-17252D01*
X49700Y-16871D02*
X49680Y-16852D01*
X49661Y-16814D01*
X49661Y-16719D01*
X49680Y-16680D01*
X49700Y-16661D01*
X49738Y-16642D01*
X49776Y-16642D01*
X49833Y-16661D01*
X50061Y-16890D01*
X50061Y-16642D01*
X48861Y-17747D02*
X48861Y-17938D01*
X48461Y-17938D01*
X48652Y-17614D02*
X48652Y-17480D01*
X48861Y-17423D02*
X48861Y-17614D01*
X48461Y-17614D01*
X48461Y-17423D01*
X48861Y-17252D02*
X48461Y-17252D01*
X48461Y-17157D01*
X48480Y-17100D01*
X48519Y-17061D01*
X48557Y-17042D01*
X48633Y-17023D01*
X48690Y-17023D01*
X48766Y-17042D01*
X48804Y-17061D01*
X48842Y-17100D01*
X48861Y-17157D01*
X48861Y-17252D01*
X48861Y-16642D02*
X48861Y-16871D01*
X48861Y-16757D02*
X48461Y-16757D01*
X48519Y-16795D01*
X48557Y-16833D01*
X48576Y-16871D01*
G54D12*
X50498Y-53816D02*
X50598Y-53716D01*
X50298Y-53616D02*
X50398Y-53616D01*
X50398Y-53616D02*
X50498Y-53616D01*
X50498Y-53716D02*
X50598Y-53616D01*
X50498Y-53616D02*
X50498Y-53716D01*
X50598Y-53516D02*
X50498Y-53616D01*
X50498Y-53616D02*
X50598Y-53516D01*
X50598Y-53816D02*
X50398Y-53616D01*
X50598Y-53416D02*
X50598Y-53816D01*
X50398Y-53616D02*
X50598Y-53416D01*
X50598Y-53316D02*
X50298Y-53616D01*
X50598Y-53916D02*
X50598Y-53316D01*
X50298Y-53616D02*
X50598Y-53916D01*
G54D13*
X52864Y-51535D02*
X52864Y-51635D01*
X53021Y-51635D02*
X52721Y-51635D01*
X52721Y-51492D01*
X52721Y-51407D02*
X53021Y-51335D01*
X52807Y-51278D01*
X53021Y-51221D01*
X52721Y-51150D01*
X52721Y-51035D02*
X52964Y-51035D01*
X52992Y-51021D01*
X53007Y-51007D01*
X53021Y-50978D01*
X53021Y-50921D01*
X53007Y-50892D01*
X52992Y-50878D01*
X52964Y-50864D01*
X52721Y-50864D01*
X53021Y-50721D02*
X52721Y-50721D01*
X52721Y-50607D01*
X52735Y-50578D01*
X52750Y-50564D01*
X52778Y-50550D01*
X52821Y-50550D01*
X52850Y-50564D01*
X52864Y-50578D01*
X52878Y-50607D01*
X52878Y-50721D01*
G54D11*
X48961Y-51690D02*
X48561Y-51690D01*
X48923Y-51271D02*
X48942Y-51290D01*
X48961Y-51347D01*
X48961Y-51385D01*
X48942Y-51442D01*
X48904Y-51480D01*
X48866Y-51499D01*
X48790Y-51519D01*
X48733Y-51519D01*
X48657Y-51499D01*
X48619Y-51480D01*
X48580Y-51442D01*
X48561Y-51385D01*
X48561Y-51347D01*
X48580Y-51290D01*
X48600Y-51271D01*
X48942Y-51119D02*
X48961Y-51061D01*
X48961Y-50966D01*
X48942Y-50928D01*
X48923Y-50909D01*
X48885Y-50890D01*
X48847Y-50890D01*
X48809Y-50909D01*
X48790Y-50928D01*
X48771Y-50966D01*
X48752Y-51042D01*
X48733Y-51080D01*
X48714Y-51099D01*
X48676Y-51119D01*
X48638Y-51119D01*
X48600Y-51099D01*
X48580Y-51080D01*
X48561Y-51042D01*
X48561Y-50947D01*
X48580Y-50890D01*
X48961Y-50719D02*
X48561Y-50719D01*
X48561Y-50566D01*
X48580Y-50528D01*
X48600Y-50509D01*
X48638Y-50490D01*
X48695Y-50490D01*
X48733Y-50509D01*
X48752Y-50528D01*
X48771Y-50566D01*
X48771Y-50719D01*
X60785Y-30147D02*
X60976Y-30147D01*
X60747Y-30261D02*
X60880Y-29861D01*
X61014Y-30261D01*
X61147Y-30261D02*
X61147Y-29995D01*
X61147Y-30071D02*
X61166Y-30033D01*
X61185Y-30014D01*
X61223Y-29995D01*
X61261Y-29995D01*
X61566Y-30261D02*
X61566Y-29861D01*
X61566Y-30242D02*
X61528Y-30261D01*
X61452Y-30261D01*
X61414Y-30242D01*
X61395Y-30223D01*
X61376Y-30185D01*
X61376Y-30071D01*
X61395Y-30033D01*
X61414Y-30014D01*
X61452Y-29995D01*
X61528Y-29995D01*
X61566Y-30014D01*
X61928Y-29995D02*
X61928Y-30261D01*
X61757Y-29995D02*
X61757Y-30204D01*
X61776Y-30242D01*
X61814Y-30261D01*
X61871Y-30261D01*
X61909Y-30242D01*
X61928Y-30223D01*
X62119Y-30261D02*
X62119Y-29995D01*
X62119Y-29861D02*
X62100Y-29880D01*
X62119Y-29900D01*
X62138Y-29880D01*
X62119Y-29861D01*
X62119Y-29900D01*
X62309Y-29995D02*
X62309Y-30261D01*
X62309Y-30033D02*
X62328Y-30014D01*
X62366Y-29995D01*
X62423Y-29995D01*
X62461Y-30014D01*
X62480Y-30052D01*
X62480Y-30261D01*
X62728Y-30261D02*
X62690Y-30242D01*
X62671Y-30223D01*
X62652Y-30185D01*
X62652Y-30071D01*
X62671Y-30033D01*
X62690Y-30014D01*
X62728Y-29995D01*
X62785Y-29995D01*
X62823Y-30014D01*
X62842Y-30033D01*
X62861Y-30071D01*
X62861Y-30185D01*
X62842Y-30223D01*
X62823Y-30242D01*
X62785Y-30261D01*
X62728Y-30261D01*
X63319Y-30242D02*
X63376Y-30261D01*
X63471Y-30261D01*
X63509Y-30242D01*
X63528Y-30223D01*
X63547Y-30185D01*
X63547Y-30147D01*
X63528Y-30109D01*
X63509Y-30090D01*
X63471Y-30071D01*
X63395Y-30052D01*
X63357Y-30033D01*
X63338Y-30014D01*
X63319Y-29976D01*
X63319Y-29938D01*
X63338Y-29900D01*
X63357Y-29880D01*
X63395Y-29861D01*
X63490Y-29861D01*
X63547Y-29880D01*
X63719Y-30261D02*
X63719Y-29861D01*
X63890Y-30261D02*
X63890Y-30052D01*
X63871Y-30014D01*
X63833Y-29995D01*
X63776Y-29995D01*
X63738Y-30014D01*
X63719Y-30033D01*
X64080Y-30261D02*
X64080Y-29995D01*
X64080Y-29861D02*
X64061Y-29880D01*
X64080Y-29900D01*
X64100Y-29880D01*
X64080Y-29861D01*
X64080Y-29900D01*
X64423Y-30242D02*
X64385Y-30261D01*
X64309Y-30261D01*
X64271Y-30242D01*
X64252Y-30204D01*
X64252Y-30052D01*
X64271Y-30014D01*
X64309Y-29995D01*
X64385Y-29995D01*
X64423Y-30014D01*
X64442Y-30052D01*
X64442Y-30090D01*
X64252Y-30128D01*
X64671Y-30261D02*
X64633Y-30242D01*
X64614Y-30204D01*
X64614Y-29861D01*
X64995Y-30261D02*
X64995Y-29861D01*
X64995Y-30242D02*
X64957Y-30261D01*
X64880Y-30261D01*
X64842Y-30242D01*
X64823Y-30223D01*
X64804Y-30185D01*
X64804Y-30071D01*
X64823Y-30033D01*
X64842Y-30014D01*
X64880Y-29995D01*
X64957Y-29995D01*
X64995Y-30014D01*
X65719Y-30223D02*
X65700Y-30242D01*
X65642Y-30261D01*
X65604Y-30261D01*
X65547Y-30242D01*
X65509Y-30204D01*
X65490Y-30166D01*
X65471Y-30090D01*
X65471Y-30033D01*
X65490Y-29957D01*
X65509Y-29919D01*
X65547Y-29880D01*
X65604Y-29861D01*
X65642Y-29861D01*
X65700Y-29880D01*
X65719Y-29900D01*
X65947Y-30261D02*
X65909Y-30242D01*
X65890Y-30223D01*
X65871Y-30185D01*
X65871Y-30071D01*
X65890Y-30033D01*
X65909Y-30014D01*
X65947Y-29995D01*
X66004Y-29995D01*
X66042Y-30014D01*
X66061Y-30033D01*
X66080Y-30071D01*
X66080Y-30185D01*
X66061Y-30223D01*
X66042Y-30242D01*
X66004Y-30261D01*
X65947Y-30261D01*
X66252Y-30261D02*
X66252Y-29995D01*
X66252Y-30033D02*
X66271Y-30014D01*
X66309Y-29995D01*
X66366Y-29995D01*
X66404Y-30014D01*
X66423Y-30052D01*
X66423Y-30261D01*
X66423Y-30052D02*
X66442Y-30014D01*
X66480Y-29995D01*
X66538Y-29995D01*
X66576Y-30014D01*
X66595Y-30052D01*
X66595Y-30261D01*
X66785Y-29995D02*
X66785Y-30395D01*
X66785Y-30014D02*
X66823Y-29995D01*
X66900Y-29995D01*
X66938Y-30014D01*
X66957Y-30033D01*
X66976Y-30071D01*
X66976Y-30185D01*
X66957Y-30223D01*
X66938Y-30242D01*
X66900Y-30261D01*
X66823Y-30261D01*
X66785Y-30242D01*
X67319Y-30261D02*
X67319Y-30052D01*
X67300Y-30014D01*
X67261Y-29995D01*
X67185Y-29995D01*
X67147Y-30014D01*
X67319Y-30242D02*
X67280Y-30261D01*
X67185Y-30261D01*
X67147Y-30242D01*
X67128Y-30204D01*
X67128Y-30166D01*
X67147Y-30128D01*
X67185Y-30109D01*
X67280Y-30109D01*
X67319Y-30090D01*
X67452Y-29995D02*
X67604Y-29995D01*
X67509Y-29861D02*
X67509Y-30204D01*
X67528Y-30242D01*
X67566Y-30261D01*
X67604Y-30261D01*
X67738Y-30261D02*
X67738Y-29995D01*
X67738Y-29861D02*
X67719Y-29880D01*
X67738Y-29900D01*
X67757Y-29880D01*
X67738Y-29861D01*
X67738Y-29900D01*
X67928Y-30261D02*
X67928Y-29861D01*
X67928Y-30014D02*
X67966Y-29995D01*
X68042Y-29995D01*
X68080Y-30014D01*
X68100Y-30033D01*
X68119Y-30071D01*
X68119Y-30185D01*
X68100Y-30223D01*
X68080Y-30242D01*
X68042Y-30261D01*
X67966Y-30261D01*
X67928Y-30242D01*
X68347Y-30261D02*
X68309Y-30242D01*
X68290Y-30204D01*
X68290Y-29861D01*
X68652Y-30242D02*
X68614Y-30261D01*
X68538Y-30261D01*
X68500Y-30242D01*
X68480Y-30204D01*
X68480Y-30052D01*
X68500Y-30014D01*
X68538Y-29995D01*
X68614Y-29995D01*
X68652Y-30014D01*
X68671Y-30052D01*
X68671Y-30090D01*
X68480Y-30128D01*
X69261Y-30414D02*
X69242Y-30395D01*
X69204Y-30338D01*
X69185Y-30300D01*
X69166Y-30242D01*
X69147Y-30147D01*
X69147Y-30071D01*
X69166Y-29976D01*
X69185Y-29919D01*
X69204Y-29880D01*
X69242Y-29823D01*
X69261Y-29804D01*
X69376Y-29861D02*
X69623Y-29861D01*
X69490Y-30014D01*
X69547Y-30014D01*
X69585Y-30033D01*
X69604Y-30052D01*
X69623Y-30090D01*
X69623Y-30185D01*
X69604Y-30223D01*
X69585Y-30242D01*
X69547Y-30261D01*
X69433Y-30261D01*
X69395Y-30242D01*
X69376Y-30223D01*
X69738Y-29861D02*
X69871Y-30261D01*
X70004Y-29861D01*
X70099Y-29861D02*
X70347Y-29861D01*
X70214Y-30014D01*
X70271Y-30014D01*
X70309Y-30033D01*
X70328Y-30052D01*
X70347Y-30090D01*
X70347Y-30185D01*
X70328Y-30223D01*
X70309Y-30242D01*
X70271Y-30261D01*
X70157Y-30261D01*
X70119Y-30242D01*
X70099Y-30223D01*
X70480Y-30414D02*
X70499Y-30395D01*
X70538Y-30338D01*
X70557Y-30300D01*
X70576Y-30242D01*
X70595Y-30147D01*
X70595Y-30071D01*
X70576Y-29976D01*
X70557Y-29919D01*
X70538Y-29880D01*
X70499Y-29823D01*
X70480Y-29804D01*
X40538Y-21114D02*
X40538Y-20885D01*
X40538Y-21000D02*
X40938Y-21000D01*
X40880Y-20961D01*
X40842Y-20923D01*
X40823Y-20885D01*
X40900Y-19885D02*
X40919Y-19904D01*
X40938Y-19942D01*
X40938Y-20038D01*
X40919Y-20076D01*
X40900Y-20095D01*
X40861Y-20114D01*
X40823Y-20114D01*
X40766Y-20095D01*
X40538Y-19866D01*
X40538Y-20114D01*
X47338Y-20923D02*
X47338Y-20695D01*
X47338Y-20809D02*
X47738Y-20809D01*
X47680Y-20771D01*
X47642Y-20733D01*
X47623Y-20695D01*
X47338Y-21304D02*
X47338Y-21076D01*
X47338Y-21190D02*
X47738Y-21190D01*
X47680Y-21152D01*
X47642Y-21114D01*
X47623Y-21076D01*
X47338Y-19923D02*
X47338Y-19695D01*
X47338Y-19809D02*
X47738Y-19809D01*
X47680Y-19771D01*
X47642Y-19733D01*
X47623Y-19695D01*
X47700Y-20076D02*
X47719Y-20095D01*
X47738Y-20133D01*
X47738Y-20228D01*
X47719Y-20266D01*
X47700Y-20285D01*
X47661Y-20304D01*
X47623Y-20304D01*
X47566Y-20285D01*
X47338Y-20057D01*
X47338Y-20304D01*
X46838Y-21704D02*
X46838Y-21952D01*
X46685Y-21819D01*
X46685Y-21876D01*
X46666Y-21914D01*
X46647Y-21933D01*
X46609Y-21952D01*
X46514Y-21952D01*
X46476Y-21933D01*
X46457Y-21914D01*
X46438Y-21876D01*
X46438Y-21761D01*
X46457Y-21723D01*
X46476Y-21704D01*
X46838Y-22066D02*
X46438Y-22200D01*
X46838Y-22333D01*
X46838Y-22428D02*
X46838Y-22676D01*
X46685Y-22542D01*
X46685Y-22600D01*
X46666Y-22638D01*
X46647Y-22657D01*
X46609Y-22676D01*
X46514Y-22676D01*
X46476Y-22657D01*
X46457Y-22638D01*
X46438Y-22600D01*
X46438Y-22485D01*
X46457Y-22447D01*
X46476Y-22428D01*
X45819Y-21895D02*
X45838Y-21857D01*
X45838Y-21800D01*
X45819Y-21742D01*
X45780Y-21704D01*
X45742Y-21685D01*
X45666Y-21666D01*
X45609Y-21666D01*
X45533Y-21685D01*
X45495Y-21704D01*
X45457Y-21742D01*
X45438Y-21800D01*
X45438Y-21838D01*
X45457Y-21895D01*
X45476Y-21914D01*
X45609Y-21914D01*
X45609Y-21838D01*
X45438Y-22085D02*
X45838Y-22085D01*
X45438Y-22314D01*
X45838Y-22314D01*
X45438Y-22504D02*
X45838Y-22504D01*
X45838Y-22600D01*
X45819Y-22657D01*
X45780Y-22695D01*
X45742Y-22714D01*
X45666Y-22733D01*
X45609Y-22733D01*
X45533Y-22714D01*
X45495Y-22695D01*
X45457Y-22657D01*
X45438Y-22600D01*
X45438Y-22504D01*
X40095Y-34402D02*
X40057Y-34383D01*
X40000Y-34383D01*
X39942Y-34402D01*
X39904Y-34441D01*
X39885Y-34479D01*
X39866Y-34555D01*
X39866Y-34612D01*
X39885Y-34688D01*
X39904Y-34726D01*
X39942Y-34764D01*
X40000Y-34783D01*
X40038Y-34783D01*
X40095Y-34764D01*
X40114Y-34745D01*
X40114Y-34612D01*
X40038Y-34612D01*
X40285Y-34783D02*
X40285Y-34383D01*
X40514Y-34783D01*
X40514Y-34383D01*
X40704Y-34783D02*
X40704Y-34383D01*
X40800Y-34383D01*
X40857Y-34402D01*
X40895Y-34441D01*
X40914Y-34479D01*
X40933Y-34555D01*
X40933Y-34612D01*
X40914Y-34688D01*
X40895Y-34726D01*
X40857Y-34764D01*
X40800Y-34783D01*
X40704Y-34783D01*
X40095Y-42480D02*
X40057Y-42461D01*
X40000Y-42461D01*
X39942Y-42480D01*
X39904Y-42519D01*
X39885Y-42557D01*
X39866Y-42633D01*
X39866Y-42690D01*
X39885Y-42766D01*
X39904Y-42804D01*
X39942Y-42842D01*
X40000Y-42861D01*
X40038Y-42861D01*
X40095Y-42842D01*
X40114Y-42823D01*
X40114Y-42690D01*
X40038Y-42690D01*
X40285Y-42861D02*
X40285Y-42461D01*
X40514Y-42861D01*
X40514Y-42461D01*
X40704Y-42861D02*
X40704Y-42461D01*
X40800Y-42461D01*
X40857Y-42480D01*
X40895Y-42519D01*
X40914Y-42557D01*
X40933Y-42633D01*
X40933Y-42690D01*
X40914Y-42766D01*
X40895Y-42804D01*
X40857Y-42842D01*
X40800Y-42861D01*
X40704Y-42861D01*
X40095Y-26380D02*
X40057Y-26361D01*
X40000Y-26361D01*
X39942Y-26380D01*
X39904Y-26419D01*
X39885Y-26457D01*
X39866Y-26533D01*
X39866Y-26590D01*
X39885Y-26666D01*
X39904Y-26704D01*
X39942Y-26742D01*
X40000Y-26761D01*
X40038Y-26761D01*
X40095Y-26742D01*
X40114Y-26723D01*
X40114Y-26590D01*
X40038Y-26590D01*
X40285Y-26761D02*
X40285Y-26361D01*
X40514Y-26761D01*
X40514Y-26361D01*
X40704Y-26761D02*
X40704Y-26361D01*
X40800Y-26361D01*
X40857Y-26380D01*
X40895Y-26419D01*
X40914Y-26457D01*
X40933Y-26533D01*
X40933Y-26590D01*
X40914Y-26666D01*
X40895Y-26704D01*
X40857Y-26742D01*
X40800Y-26761D01*
X40704Y-26761D01*
X39904Y-33483D02*
X40152Y-33483D01*
X40019Y-33636D01*
X40076Y-33636D01*
X40114Y-33655D01*
X40133Y-33674D01*
X40152Y-33712D01*
X40152Y-33807D01*
X40133Y-33845D01*
X40114Y-33864D01*
X40076Y-33883D01*
X39961Y-33883D01*
X39923Y-33864D01*
X39904Y-33845D01*
X40266Y-33483D02*
X40400Y-33883D01*
X40533Y-33483D01*
X40628Y-33483D02*
X40876Y-33483D01*
X40742Y-33636D01*
X40800Y-33636D01*
X40838Y-33655D01*
X40857Y-33674D01*
X40876Y-33712D01*
X40876Y-33807D01*
X40857Y-33845D01*
X40838Y-33864D01*
X40800Y-33883D01*
X40685Y-33883D01*
X40647Y-33864D01*
X40628Y-33845D01*
X39904Y-41461D02*
X40152Y-41461D01*
X40019Y-41614D01*
X40076Y-41614D01*
X40114Y-41633D01*
X40133Y-41652D01*
X40152Y-41690D01*
X40152Y-41785D01*
X40133Y-41823D01*
X40114Y-41842D01*
X40076Y-41861D01*
X39961Y-41861D01*
X39923Y-41842D01*
X39904Y-41823D01*
X40266Y-41461D02*
X40400Y-41861D01*
X40533Y-41461D01*
X40628Y-41461D02*
X40876Y-41461D01*
X40742Y-41614D01*
X40800Y-41614D01*
X40838Y-41633D01*
X40857Y-41652D01*
X40876Y-41690D01*
X40876Y-41785D01*
X40857Y-41823D01*
X40838Y-41842D01*
X40800Y-41861D01*
X40685Y-41861D01*
X40647Y-41842D01*
X40628Y-41823D01*
X39904Y-25361D02*
X40152Y-25361D01*
X40019Y-25514D01*
X40076Y-25514D01*
X40114Y-25533D01*
X40133Y-25552D01*
X40152Y-25590D01*
X40152Y-25685D01*
X40133Y-25723D01*
X40114Y-25742D01*
X40076Y-25761D01*
X39961Y-25761D01*
X39923Y-25742D01*
X39904Y-25723D01*
X40266Y-25361D02*
X40400Y-25761D01*
X40533Y-25361D01*
X40628Y-25361D02*
X40876Y-25361D01*
X40742Y-25514D01*
X40800Y-25514D01*
X40838Y-25533D01*
X40857Y-25552D01*
X40876Y-25590D01*
X40876Y-25685D01*
X40857Y-25723D01*
X40838Y-25742D01*
X40800Y-25761D01*
X40685Y-25761D01*
X40647Y-25742D01*
X40628Y-25723D01*
X38123Y-24861D02*
X37895Y-24861D01*
X38009Y-24861D02*
X38009Y-24461D01*
X37971Y-24519D01*
X37933Y-24557D01*
X37895Y-24576D01*
X38276Y-24500D02*
X38295Y-24480D01*
X38333Y-24461D01*
X38428Y-24461D01*
X38466Y-24480D01*
X38485Y-24500D01*
X38504Y-24538D01*
X38504Y-24576D01*
X38485Y-24633D01*
X38257Y-24861D01*
X38504Y-24861D01*
X39223Y-24861D02*
X38995Y-24861D01*
X39109Y-24861D02*
X39109Y-24461D01*
X39071Y-24519D01*
X39033Y-24557D01*
X38995Y-24576D01*
X39604Y-24861D02*
X39376Y-24861D01*
X39490Y-24861D02*
X39490Y-24461D01*
X39452Y-24519D01*
X39414Y-24557D01*
X39376Y-24576D01*
X38123Y-32883D02*
X37895Y-32883D01*
X38009Y-32883D02*
X38009Y-32483D01*
X37971Y-32541D01*
X37933Y-32579D01*
X37895Y-32598D01*
X38276Y-32522D02*
X38295Y-32502D01*
X38333Y-32483D01*
X38428Y-32483D01*
X38466Y-32502D01*
X38485Y-32522D01*
X38504Y-32560D01*
X38504Y-32598D01*
X38485Y-32655D01*
X38257Y-32883D01*
X38504Y-32883D01*
X39223Y-32883D02*
X38995Y-32883D01*
X39109Y-32883D02*
X39109Y-32483D01*
X39071Y-32541D01*
X39033Y-32579D01*
X38995Y-32598D01*
X39604Y-32883D02*
X39376Y-32883D01*
X39490Y-32883D02*
X39490Y-32483D01*
X39452Y-32541D01*
X39414Y-32579D01*
X39376Y-32598D01*
X38085Y-31300D02*
X38104Y-31280D01*
X38142Y-31261D01*
X38238Y-31261D01*
X38276Y-31280D01*
X38295Y-31300D01*
X38314Y-31338D01*
X38314Y-31376D01*
X38295Y-31433D01*
X38066Y-31661D01*
X38314Y-31661D01*
X39414Y-31661D02*
X39185Y-31661D01*
X39300Y-31661D02*
X39300Y-31261D01*
X39261Y-31319D01*
X39223Y-31357D01*
X39185Y-31376D01*
X38085Y-39322D02*
X38104Y-39302D01*
X38142Y-39283D01*
X38238Y-39283D01*
X38276Y-39302D01*
X38295Y-39322D01*
X38314Y-39360D01*
X38314Y-39398D01*
X38295Y-39455D01*
X38066Y-39683D01*
X38314Y-39683D01*
X39314Y-39683D02*
X39085Y-39683D01*
X39200Y-39683D02*
X39200Y-39283D01*
X39161Y-39341D01*
X39123Y-39379D01*
X39085Y-39398D01*
X38123Y-40961D02*
X37895Y-40961D01*
X38009Y-40961D02*
X38009Y-40561D01*
X37971Y-40619D01*
X37933Y-40657D01*
X37895Y-40676D01*
X38276Y-40600D02*
X38295Y-40580D01*
X38333Y-40561D01*
X38428Y-40561D01*
X38466Y-40580D01*
X38485Y-40600D01*
X38504Y-40638D01*
X38504Y-40676D01*
X38485Y-40733D01*
X38257Y-40961D01*
X38504Y-40961D01*
X39123Y-40961D02*
X38895Y-40961D01*
X39009Y-40961D02*
X39009Y-40561D01*
X38971Y-40619D01*
X38933Y-40657D01*
X38895Y-40676D01*
X39504Y-40961D02*
X39276Y-40961D01*
X39390Y-40961D02*
X39390Y-40561D01*
X39352Y-40619D01*
X39314Y-40657D01*
X39276Y-40676D01*
X38085Y-47400D02*
X38104Y-47380D01*
X38142Y-47361D01*
X38238Y-47361D01*
X38276Y-47380D01*
X38295Y-47400D01*
X38314Y-47438D01*
X38314Y-47476D01*
X38295Y-47533D01*
X38066Y-47761D01*
X38314Y-47761D01*
X39314Y-47761D02*
X39085Y-47761D01*
X39200Y-47761D02*
X39200Y-47361D01*
X39161Y-47419D01*
X39123Y-47457D01*
X39085Y-47476D01*
G54D14*
X57308Y-51994D02*
X57308Y-51544D01*
X57565Y-51994D01*
X57565Y-51544D01*
X57779Y-51544D02*
X57779Y-51908D01*
X57801Y-51951D01*
X57822Y-51972D01*
X57865Y-51994D01*
X57951Y-51994D01*
X57993Y-51972D01*
X58015Y-51951D01*
X58036Y-51908D01*
X58036Y-51544D01*
X58251Y-51994D02*
X58251Y-51544D01*
X58401Y-51865D01*
X58551Y-51544D01*
X58551Y-51994D01*
X58743Y-51865D02*
X58958Y-51865D01*
X58701Y-51994D02*
X58851Y-51544D01*
X59001Y-51994D01*
X59086Y-51544D02*
X59343Y-51544D01*
X59215Y-51994D02*
X59215Y-51544D01*
X59579Y-51544D02*
X59665Y-51544D01*
X59708Y-51565D01*
X59751Y-51608D01*
X59772Y-51694D01*
X59772Y-51844D01*
X59751Y-51929D01*
X59708Y-51972D01*
X59665Y-51994D01*
X59579Y-51994D01*
X59536Y-51972D01*
X59493Y-51929D01*
X59472Y-51844D01*
X59472Y-51694D01*
X59493Y-51608D01*
X59536Y-51565D01*
X59579Y-51544D01*
X60522Y-51994D02*
X60308Y-51994D01*
X60308Y-51544D01*
X60651Y-51865D02*
X60865Y-51865D01*
X60608Y-51994D02*
X60758Y-51544D01*
X60908Y-51994D01*
X61208Y-51758D02*
X61272Y-51779D01*
X61293Y-51801D01*
X61315Y-51844D01*
X61315Y-51908D01*
X61293Y-51951D01*
X61272Y-51972D01*
X61229Y-51994D01*
X61058Y-51994D01*
X61058Y-51544D01*
X61208Y-51544D01*
X61251Y-51565D01*
X61272Y-51587D01*
X61293Y-51629D01*
X61293Y-51672D01*
X61272Y-51715D01*
X61251Y-51737D01*
X61208Y-51758D01*
X61058Y-51758D01*
X57393Y-52286D02*
X57479Y-52286D01*
X57522Y-52308D01*
X57565Y-52350D01*
X57586Y-52436D01*
X57586Y-52586D01*
X57565Y-52672D01*
X57522Y-52715D01*
X57479Y-52736D01*
X57393Y-52736D01*
X57351Y-52715D01*
X57308Y-52672D01*
X57286Y-52586D01*
X57286Y-52436D01*
X57308Y-52350D01*
X57351Y-52308D01*
X57393Y-52286D01*
X57779Y-52436D02*
X57779Y-52886D01*
X57779Y-52458D02*
X57822Y-52436D01*
X57908Y-52436D01*
X57951Y-52458D01*
X57972Y-52479D01*
X57993Y-52522D01*
X57993Y-52650D01*
X57972Y-52693D01*
X57951Y-52715D01*
X57908Y-52736D01*
X57822Y-52736D01*
X57779Y-52715D01*
X58165Y-52715D02*
X58208Y-52736D01*
X58293Y-52736D01*
X58336Y-52715D01*
X58358Y-52672D01*
X58358Y-52650D01*
X58336Y-52608D01*
X58293Y-52586D01*
X58229Y-52586D01*
X58186Y-52565D01*
X58165Y-52522D01*
X58165Y-52500D01*
X58186Y-52458D01*
X58229Y-52436D01*
X58293Y-52436D01*
X58336Y-52458D01*
X58551Y-52736D02*
X58551Y-52436D01*
X58551Y-52286D02*
X58529Y-52308D01*
X58551Y-52329D01*
X58572Y-52308D01*
X58551Y-52286D01*
X58551Y-52329D01*
X58743Y-52715D02*
X58786Y-52736D01*
X58872Y-52736D01*
X58915Y-52715D01*
X58936Y-52672D01*
X58936Y-52650D01*
X58915Y-52608D01*
X58872Y-52586D01*
X58808Y-52586D01*
X58765Y-52565D01*
X58743Y-52522D01*
X58743Y-52500D01*
X58765Y-52458D01*
X58808Y-52436D01*
X58872Y-52436D01*
X58915Y-52458D01*
X59408Y-52286D02*
X59665Y-52286D01*
X59536Y-52736D02*
X59536Y-52286D01*
X59901Y-52286D02*
X59986Y-52286D01*
X60029Y-52308D01*
X60072Y-52350D01*
X60093Y-52436D01*
X60093Y-52586D01*
X60072Y-52672D01*
X60029Y-52715D01*
X59986Y-52736D01*
X59901Y-52736D01*
X59858Y-52715D01*
X59815Y-52672D01*
X59793Y-52586D01*
X59793Y-52436D01*
X59815Y-52350D01*
X59858Y-52308D01*
X59901Y-52286D01*
X60436Y-52500D02*
X60286Y-52500D01*
X60286Y-52736D02*
X60286Y-52286D01*
X60501Y-52286D01*
X60672Y-52500D02*
X60822Y-52500D01*
X60886Y-52736D02*
X60672Y-52736D01*
X60672Y-52286D01*
X60886Y-52286D01*
X61636Y-52736D02*
X61422Y-52736D01*
X61422Y-52286D01*
X61851Y-52736D02*
X61808Y-52715D01*
X61786Y-52693D01*
X61765Y-52650D01*
X61765Y-52522D01*
X61786Y-52479D01*
X61808Y-52458D01*
X61851Y-52436D01*
X61915Y-52436D01*
X61958Y-52458D01*
X61979Y-52479D01*
X62001Y-52522D01*
X62001Y-52650D01*
X61979Y-52693D01*
X61958Y-52715D01*
X61915Y-52736D01*
X61851Y-52736D01*
X62151Y-52436D02*
X62236Y-52736D01*
X62322Y-52522D01*
X62408Y-52736D01*
X62493Y-52436D01*
X62986Y-52715D02*
X63051Y-52736D01*
X63158Y-52736D01*
X63201Y-52715D01*
X63222Y-52693D01*
X63243Y-52650D01*
X63243Y-52608D01*
X63222Y-52565D01*
X63201Y-52543D01*
X63158Y-52522D01*
X63072Y-52500D01*
X63029Y-52479D01*
X63008Y-52458D01*
X62986Y-52415D01*
X62986Y-52372D01*
X63008Y-52329D01*
X63029Y-52308D01*
X63072Y-52286D01*
X63179Y-52286D01*
X63243Y-52308D01*
X63436Y-52436D02*
X63436Y-52886D01*
X63436Y-52458D02*
X63479Y-52436D01*
X63565Y-52436D01*
X63608Y-52458D01*
X63629Y-52479D01*
X63651Y-52522D01*
X63651Y-52650D01*
X63629Y-52693D01*
X63608Y-52715D01*
X63565Y-52736D01*
X63479Y-52736D01*
X63436Y-52715D01*
X64015Y-52715D02*
X63972Y-52736D01*
X63886Y-52736D01*
X63843Y-52715D01*
X63822Y-52672D01*
X63822Y-52500D01*
X63843Y-52458D01*
X63886Y-52436D01*
X63972Y-52436D01*
X64015Y-52458D01*
X64036Y-52500D01*
X64036Y-52543D01*
X63822Y-52586D01*
X64401Y-52715D02*
X64358Y-52736D01*
X64272Y-52736D01*
X64229Y-52715D01*
X64208Y-52672D01*
X64208Y-52500D01*
X64229Y-52458D01*
X64272Y-52436D01*
X64358Y-52436D01*
X64401Y-52458D01*
X64422Y-52500D01*
X64422Y-52543D01*
X64208Y-52586D01*
X64808Y-52736D02*
X64808Y-52286D01*
X64808Y-52715D02*
X64765Y-52736D01*
X64679Y-52736D01*
X64636Y-52715D01*
X64615Y-52693D01*
X64593Y-52650D01*
X64593Y-52522D01*
X64615Y-52479D01*
X64636Y-52458D01*
X64679Y-52436D01*
X64765Y-52436D01*
X64808Y-52458D01*
X65365Y-52736D02*
X65365Y-52286D01*
X65665Y-52286D02*
X65751Y-52286D01*
X65793Y-52308D01*
X65836Y-52350D01*
X65858Y-52436D01*
X65858Y-52586D01*
X65836Y-52672D01*
X65793Y-52715D01*
X65751Y-52736D01*
X65665Y-52736D01*
X65622Y-52715D01*
X65579Y-52672D01*
X65558Y-52586D01*
X65558Y-52436D01*
X65579Y-52350D01*
X65622Y-52308D01*
X65665Y-52286D01*
X66393Y-52736D02*
X66393Y-52286D01*
X66543Y-52608D01*
X66693Y-52286D01*
X66693Y-52736D01*
X66972Y-52736D02*
X66929Y-52715D01*
X66908Y-52693D01*
X66886Y-52650D01*
X66886Y-52522D01*
X66908Y-52479D01*
X66929Y-52458D01*
X66972Y-52436D01*
X67036Y-52436D01*
X67079Y-52458D01*
X67101Y-52479D01*
X67122Y-52522D01*
X67122Y-52650D01*
X67101Y-52693D01*
X67079Y-52715D01*
X67036Y-52736D01*
X66972Y-52736D01*
X67508Y-52736D02*
X67508Y-52286D01*
X67508Y-52715D02*
X67465Y-52736D01*
X67379Y-52736D01*
X67336Y-52715D01*
X67315Y-52693D01*
X67293Y-52650D01*
X67293Y-52522D01*
X67315Y-52479D01*
X67336Y-52458D01*
X67379Y-52436D01*
X67465Y-52436D01*
X67508Y-52458D01*
X67915Y-52436D02*
X67915Y-52736D01*
X67722Y-52436D02*
X67722Y-52672D01*
X67743Y-52715D01*
X67786Y-52736D01*
X67851Y-52736D01*
X67893Y-52715D01*
X67915Y-52693D01*
X68193Y-52736D02*
X68151Y-52715D01*
X68129Y-52672D01*
X68129Y-52286D01*
X68536Y-52715D02*
X68493Y-52736D01*
X68408Y-52736D01*
X68365Y-52715D01*
X68343Y-52672D01*
X68343Y-52500D01*
X68365Y-52458D01*
X68408Y-52436D01*
X68493Y-52436D01*
X68536Y-52458D01*
X68558Y-52500D01*
X68558Y-52543D01*
X68343Y-52586D01*
X57265Y-53179D02*
X57351Y-53479D01*
X57436Y-53264D01*
X57522Y-53479D01*
X57608Y-53179D01*
X57736Y-53179D02*
X57822Y-53479D01*
X57908Y-53264D01*
X57993Y-53479D01*
X58079Y-53179D01*
X58208Y-53179D02*
X58293Y-53479D01*
X58379Y-53264D01*
X58465Y-53479D01*
X58551Y-53179D01*
X58722Y-53436D02*
X58743Y-53457D01*
X58722Y-53479D01*
X58701Y-53457D01*
X58722Y-53436D01*
X58722Y-53479D01*
X58936Y-53179D02*
X58936Y-53479D01*
X58936Y-53222D02*
X58958Y-53200D01*
X59001Y-53179D01*
X59065Y-53179D01*
X59108Y-53200D01*
X59129Y-53243D01*
X59129Y-53479D01*
X59536Y-53179D02*
X59536Y-53479D01*
X59343Y-53179D02*
X59343Y-53414D01*
X59365Y-53457D01*
X59408Y-53479D01*
X59472Y-53479D01*
X59515Y-53457D01*
X59536Y-53436D01*
X59751Y-53479D02*
X59751Y-53179D01*
X59751Y-53222D02*
X59772Y-53200D01*
X59815Y-53179D01*
X59879Y-53179D01*
X59922Y-53200D01*
X59943Y-53243D01*
X59943Y-53479D01*
X59943Y-53243D02*
X59965Y-53200D01*
X60008Y-53179D01*
X60072Y-53179D01*
X60115Y-53200D01*
X60136Y-53243D01*
X60136Y-53479D01*
X60543Y-53479D02*
X60543Y-53243D01*
X60522Y-53200D01*
X60479Y-53179D01*
X60393Y-53179D01*
X60351Y-53200D01*
X60543Y-53457D02*
X60501Y-53479D01*
X60393Y-53479D01*
X60351Y-53457D01*
X60329Y-53414D01*
X60329Y-53372D01*
X60351Y-53329D01*
X60393Y-53307D01*
X60501Y-53307D01*
X60543Y-53286D01*
X60693Y-53179D02*
X60865Y-53179D01*
X60758Y-53029D02*
X60758Y-53414D01*
X60779Y-53457D01*
X60822Y-53479D01*
X60865Y-53479D01*
X61079Y-53479D02*
X61036Y-53457D01*
X61015Y-53436D01*
X60993Y-53393D01*
X60993Y-53264D01*
X61015Y-53222D01*
X61036Y-53200D01*
X61079Y-53179D01*
X61143Y-53179D01*
X61186Y-53200D01*
X61208Y-53222D01*
X61229Y-53264D01*
X61229Y-53393D01*
X61208Y-53436D01*
X61186Y-53457D01*
X61143Y-53479D01*
X61079Y-53479D01*
X61422Y-53436D02*
X61443Y-53457D01*
X61422Y-53479D01*
X61401Y-53457D01*
X61422Y-53436D01*
X61422Y-53479D01*
X61829Y-53457D02*
X61786Y-53479D01*
X61701Y-53479D01*
X61658Y-53457D01*
X61636Y-53436D01*
X61615Y-53393D01*
X61615Y-53264D01*
X61636Y-53222D01*
X61658Y-53200D01*
X61701Y-53179D01*
X61786Y-53179D01*
X61829Y-53200D01*
X62086Y-53479D02*
X62043Y-53457D01*
X62022Y-53436D01*
X62001Y-53393D01*
X62001Y-53264D01*
X62022Y-53222D01*
X62043Y-53200D01*
X62086Y-53179D01*
X62151Y-53179D01*
X62193Y-53200D01*
X62215Y-53222D01*
X62236Y-53264D01*
X62236Y-53393D01*
X62215Y-53436D01*
X62193Y-53457D01*
X62151Y-53479D01*
X62086Y-53479D01*
X62429Y-53479D02*
X62429Y-53179D01*
X62429Y-53222D02*
X62451Y-53200D01*
X62493Y-53179D01*
X62558Y-53179D01*
X62601Y-53200D01*
X62622Y-53243D01*
X62622Y-53479D01*
X62622Y-53243D02*
X62643Y-53200D01*
X62686Y-53179D01*
X62751Y-53179D01*
X62793Y-53200D01*
X62815Y-53243D01*
X62815Y-53479D01*
G54D15*
X75400Y-54392D02*
X75316Y-54273D01*
X75257Y-54392D02*
X75257Y-54142D01*
X75352Y-54142D01*
X75376Y-54154D01*
X75388Y-54166D01*
X75400Y-54190D01*
X75400Y-54225D01*
X75388Y-54249D01*
X75376Y-54261D01*
X75352Y-54273D01*
X75257Y-54273D01*
X75602Y-54380D02*
X75578Y-54392D01*
X75531Y-54392D01*
X75507Y-54380D01*
X75495Y-54356D01*
X75495Y-54261D01*
X75507Y-54237D01*
X75531Y-54225D01*
X75578Y-54225D01*
X75602Y-54237D01*
X75614Y-54261D01*
X75614Y-54285D01*
X75495Y-54309D01*
X75697Y-54225D02*
X75757Y-54392D01*
X75816Y-54225D01*
X75900Y-54166D02*
X75912Y-54154D01*
X75935Y-54142D01*
X75995Y-54142D01*
X76019Y-54154D01*
X76031Y-54166D01*
X76043Y-54190D01*
X76043Y-54213D01*
X76031Y-54249D01*
X75888Y-54392D01*
X76043Y-54392D01*
X76150Y-54368D02*
X76162Y-54380D01*
X76150Y-54392D01*
X76138Y-54380D01*
X76150Y-54368D01*
X76150Y-54392D01*
X76316Y-54142D02*
X76340Y-54142D01*
X76364Y-54154D01*
X76376Y-54166D01*
X76388Y-54190D01*
X76400Y-54237D01*
X76400Y-54297D01*
X76388Y-54344D01*
X76376Y-54368D01*
X76364Y-54380D01*
X76340Y-54392D01*
X76316Y-54392D01*
X76293Y-54380D01*
X76281Y-54368D01*
X76269Y-54344D01*
X76257Y-54297D01*
X76257Y-54237D01*
X76269Y-54190D01*
X76281Y-54166D01*
X76293Y-54154D01*
X76316Y-54142D01*
G54D10*
X72374Y-16092D02*
X34284Y-16092D01*
G54D12*
X52000Y-59892D02*
X52000Y-57136D01*
X52000Y-57136D02*
X52000Y-54970D01*
X52000Y-54970D02*
X51902Y-54872D01*
X51902Y-54872D02*
G75*
G03X50524Y-54872I-688J-688D01*
G74*
G01*
X47374Y-58021D02*
X50524Y-58021D01*
X50524Y-57332D02*
X50524Y-58021D01*
X50524Y-57332D02*
X50524Y-54872D01*
X47374Y-58021D02*
X47374Y-54872D01*
X47374Y-54872D02*
X46390Y-54872D01*
X46685Y-54872D02*
X46488Y-54872D01*
X34284Y-58021D02*
X34284Y-58120D01*
X34284Y-58120D02*
X40189Y-58120D01*
X40189Y-58120D02*
X40189Y-58021D01*
X34284Y-58021D02*
X34284Y-16092D01*
X40189Y-58021D02*
X40189Y-54872D01*
X40189Y-54872D02*
X46587Y-54872D01*
X72177Y-57628D02*
X57118Y-57628D01*
X72177Y-59892D02*
X72177Y-57628D01*
X57118Y-59892D02*
X72177Y-59892D01*
X57118Y-56348D02*
X57118Y-59892D01*
X56429Y-56348D02*
X57118Y-56348D01*
X56429Y-56348D02*
X56429Y-59892D01*
X56429Y-57628D02*
X52000Y-57628D01*
X52000Y-59892D02*
X56429Y-59892D01*
G54D16*
X44350Y-53250D02*
X43450Y-53250D01*
X43450Y-53250D02*
X43450Y-52750D01*
X43450Y-52750D02*
X44350Y-52750D01*
X44350Y-52750D02*
X44350Y-53250D01*
X60250Y-24950D02*
X59350Y-24950D01*
X59350Y-24950D02*
X59350Y-24450D01*
X59350Y-24450D02*
X60250Y-24450D01*
X60250Y-24450D02*
X60250Y-24950D01*
X63050Y-47250D02*
X62150Y-47250D01*
X62150Y-47250D02*
X62150Y-46750D01*
X62150Y-46750D02*
X63050Y-46750D01*
X63050Y-46750D02*
X63050Y-47250D01*
X67200Y-22100D02*
X66000Y-22100D01*
X66000Y-23550D02*
X66000Y-24300D01*
X66000Y-24300D02*
X67200Y-24300D01*
X67200Y-24300D02*
X67200Y-23550D01*
X67200Y-22900D02*
X67200Y-22100D01*
X67200Y-22178D02*
X66000Y-22178D01*
X66000Y-22100D02*
X66000Y-22900D01*
X68900Y-22100D02*
X67700Y-22100D01*
X67700Y-23550D02*
X67700Y-24300D01*
X67700Y-24300D02*
X68900Y-24300D01*
X68900Y-24300D02*
X68900Y-23550D01*
X68900Y-22900D02*
X68900Y-22100D01*
X68900Y-22178D02*
X67700Y-22178D01*
X67700Y-22100D02*
X67700Y-22900D01*
X42550Y-48950D02*
X42550Y-48050D01*
X42550Y-48050D02*
X43050Y-48050D01*
X43050Y-48050D02*
X43050Y-48950D01*
X43050Y-48950D02*
X42550Y-48950D01*
X40050Y-49700D02*
X39150Y-49700D01*
X39150Y-49700D02*
X39150Y-49200D01*
X39150Y-49200D02*
X40050Y-49200D01*
X40050Y-49200D02*
X40050Y-49700D01*
X40050Y-50550D02*
X39150Y-50550D01*
X39150Y-50550D02*
X39150Y-50050D01*
X39150Y-50050D02*
X40050Y-50050D01*
X40050Y-50050D02*
X40050Y-50550D01*
X69850Y-22750D02*
X69850Y-23650D01*
X69850Y-23650D02*
X69350Y-23650D01*
X69350Y-23650D02*
X69350Y-22750D01*
X69350Y-22750D02*
X69850Y-22750D01*
X68050Y-20200D02*
X68050Y-21450D01*
X68050Y-21450D02*
X68750Y-21450D01*
X68750Y-21450D02*
X68750Y-20200D01*
X66250Y-20200D02*
X66250Y-21450D01*
X66250Y-21450D02*
X66950Y-21450D01*
X66950Y-21450D02*
X66950Y-20200D01*
X68850Y-17800D02*
X68850Y-20200D01*
X68850Y-20200D02*
X66150Y-20200D01*
X66150Y-20200D02*
X66150Y-17100D01*
X66150Y-17050D02*
X68850Y-17050D01*
X68850Y-17100D02*
X68850Y-17800D01*
X50650Y-52250D02*
X50650Y-51350D01*
X50650Y-51350D02*
X51150Y-51350D01*
X51150Y-51350D02*
X51150Y-52250D01*
X51150Y-52250D02*
X50650Y-52250D01*
X53500Y-55000D02*
X53500Y-55080D01*
X52750Y-55600D02*
X52750Y-53800D01*
X52750Y-53800D02*
X53000Y-53800D01*
X54250Y-54440D02*
X52750Y-54440D01*
X54250Y-54310D02*
X52750Y-54310D01*
X54000Y-55600D02*
X54250Y-55600D01*
X54250Y-55600D02*
X54250Y-53800D01*
X54250Y-53800D02*
X54000Y-53800D01*
X53000Y-55600D02*
X52750Y-55600D01*
X53500Y-54750D02*
X53313Y-55000D01*
X53313Y-55000D02*
X53500Y-55000D01*
X53500Y-55000D02*
X53687Y-55000D01*
X53687Y-55000D02*
X53500Y-54750D01*
X53500Y-54750D02*
X53375Y-54750D01*
X53375Y-54750D02*
X53313Y-54812D01*
X53500Y-54750D02*
X53625Y-54750D01*
X53625Y-54750D02*
X53687Y-54688D01*
X53500Y-54750D02*
X53500Y-54313D01*
X47350Y-51150D02*
X47350Y-50250D01*
X47350Y-50250D02*
X47850Y-50250D01*
X47850Y-50250D02*
X47850Y-51150D01*
X47850Y-51150D02*
X47350Y-51150D01*
X43750Y-48950D02*
X43750Y-48050D01*
X43750Y-48050D02*
X44250Y-48050D01*
X44250Y-48050D02*
X44250Y-48950D01*
X44250Y-48950D02*
X43750Y-48950D01*
X39150Y-50850D02*
X40050Y-50850D01*
X40050Y-50850D02*
X40050Y-51350D01*
X40050Y-51350D02*
X39150Y-51350D01*
X39150Y-51350D02*
X39150Y-50850D01*
X47850Y-51650D02*
X47850Y-52550D01*
X47850Y-52550D02*
X47350Y-52550D01*
X47350Y-52550D02*
X47350Y-51650D01*
X47350Y-51650D02*
X47850Y-51650D01*
G54D17*
X50100Y-54100D02*
X49100Y-54100D01*
X49100Y-54100D02*
X49100Y-48100D01*
X49100Y-48100D02*
X50100Y-48100D01*
X50100Y-48100D02*
X50100Y-54100D01*
X50100Y-53100D02*
X49100Y-53100D01*
G54D18*
X46900Y-52700D02*
X46900Y-50200D01*
X44900Y-52700D02*
X44900Y-50200D01*
X45900Y-49200D02*
G75*
G03X44900Y-50200I0J-1000D01*
G74*
G01*
X46900Y-50200D02*
G75*
G03X45900Y-49200I-1000J0D01*
G74*
G01*
X44900Y-52700D02*
G75*
G03X45900Y-53700I1000J0D01*
G74*
G01*
X45900Y-53700D02*
G75*
G03X46900Y-52700I0J1000D01*
G74*
G01*
G54D19*
X52500Y-52100D02*
X51500Y-52100D01*
X51500Y-52100D02*
X51500Y-50100D01*
X51500Y-50100D02*
X52500Y-50100D01*
X52500Y-50100D02*
X52500Y-52100D01*
G54D16*
X37150Y-50050D02*
X38050Y-50050D01*
X38050Y-50050D02*
X38050Y-50550D01*
X38050Y-50550D02*
X37150Y-50550D01*
X37150Y-50550D02*
X37150Y-50050D01*
G54D20*
X34388Y-51979D02*
X34663Y-51979D01*
X36199Y-51979D02*
X35470Y-51979D01*
X34585Y-49420D02*
X34663Y-49420D01*
X36199Y-49420D02*
X35490Y-49420D01*
X34585Y-49420D02*
X34384Y-49420D01*
X34384Y-49420D02*
X34384Y-51971D01*
G54D21*
G36*
X57100Y-53533D02*
X57045Y-53533D01*
X57045Y-52261D01*
X56997Y-52048D01*
X56900Y-51868D01*
X56756Y-51727D01*
X56567Y-51629D01*
X56386Y-51585D01*
X56221Y-51561D01*
X56336Y-51655D01*
X56502Y-51807D01*
X56615Y-51956D01*
X56685Y-52119D01*
X56721Y-52315D01*
X56728Y-52413D01*
X56727Y-52582D01*
X56710Y-52744D01*
X56681Y-52886D01*
X56641Y-52995D01*
X56595Y-53057D01*
X56568Y-53067D01*
X56548Y-53062D01*
X56548Y-52410D01*
X56548Y-52396D01*
X56517Y-52169D01*
X56432Y-51979D01*
X56298Y-51829D01*
X56116Y-51720D01*
X55891Y-51656D01*
X55626Y-51639D01*
X55541Y-51643D01*
X55407Y-51657D01*
X55311Y-51681D01*
X55241Y-51728D01*
X55182Y-51807D01*
X55122Y-51931D01*
X55079Y-52033D01*
X55010Y-52261D01*
X54982Y-52499D01*
X54995Y-52729D01*
X55048Y-52930D01*
X55073Y-52983D01*
X55178Y-53151D01*
X55296Y-53268D01*
X55434Y-53347D01*
X55539Y-53380D01*
X55648Y-53397D01*
X55737Y-53395D01*
X55777Y-53378D01*
X55764Y-53351D01*
X55707Y-53302D01*
X55654Y-53266D01*
X55484Y-53120D01*
X55360Y-52932D01*
X55285Y-52710D01*
X55262Y-52463D01*
X55292Y-52197D01*
X55311Y-52117D01*
X55340Y-52019D01*
X55368Y-51971D01*
X55413Y-51956D01*
X55480Y-51957D01*
X55667Y-51998D01*
X55862Y-52089D01*
X56048Y-52220D01*
X56211Y-52378D01*
X56336Y-52552D01*
X56387Y-52659D01*
X56425Y-52756D01*
X56458Y-52827D01*
X56470Y-52846D01*
X56493Y-52841D01*
X56514Y-52782D01*
X56532Y-52681D01*
X56544Y-52553D01*
X56548Y-52410D01*
X56548Y-53062D01*
X56490Y-53048D01*
X56377Y-52998D01*
X56249Y-52927D01*
X56124Y-52846D01*
X56039Y-52780D01*
X55840Y-52567D01*
X55688Y-52313D01*
X55648Y-52219D01*
X55586Y-52054D01*
X55527Y-52185D01*
X55469Y-52392D01*
X55469Y-52606D01*
X55522Y-52814D01*
X55623Y-53005D01*
X55766Y-53166D01*
X55946Y-53285D01*
X56016Y-53313D01*
X56157Y-53346D01*
X56327Y-53362D01*
X56497Y-53359D01*
X56640Y-53336D01*
X56666Y-53328D01*
X56729Y-53298D01*
X56781Y-53246D01*
X56834Y-53158D01*
X56884Y-53053D01*
X56990Y-52768D01*
X57044Y-52503D01*
X57045Y-52261D01*
X57045Y-53533D01*
X56017Y-53533D01*
X54934Y-53533D01*
X54934Y-52500D01*
X54934Y-51467D01*
X56017Y-51467D01*
X57100Y-51467D01*
X57100Y-52500D01*
X57100Y-53533D01*
X57100Y-53533D01*
X57100Y-53533D01*
G37*
G54D10*
X54525Y-18825D02*
X54525Y-18725D01*
X54525Y-18725D02*
X54875Y-18725D01*
X54875Y-18725D02*
X54875Y-18825D01*
X55050Y-18750D02*
X55050Y-18400D01*
X55050Y-18400D02*
X54975Y-18400D01*
X54350Y-18400D02*
X54425Y-18400D01*
X54350Y-18800D02*
X54350Y-18400D01*
X54350Y-18850D02*
X55050Y-18850D01*
X54350Y-19200D02*
X54350Y-18750D01*
X55050Y-18750D02*
X55050Y-19200D01*
X54350Y-19550D02*
X55050Y-19550D01*
X55050Y-19550D02*
X55050Y-19200D01*
X54350Y-19550D02*
X54350Y-19200D01*
X53325Y-18825D02*
X53325Y-18725D01*
X53325Y-18725D02*
X53675Y-18725D01*
X53675Y-18725D02*
X53675Y-18825D01*
X53850Y-18750D02*
X53850Y-18400D01*
X53850Y-18400D02*
X53775Y-18400D01*
X53150Y-18400D02*
X53225Y-18400D01*
X53150Y-18800D02*
X53150Y-18400D01*
X53150Y-18850D02*
X53850Y-18850D01*
X53150Y-19200D02*
X53150Y-18750D01*
X53850Y-18750D02*
X53850Y-19200D01*
X53150Y-19550D02*
X53850Y-19550D01*
X53850Y-19550D02*
X53850Y-19200D01*
X53150Y-19550D02*
X53150Y-19200D01*
X52125Y-18825D02*
X52125Y-18725D01*
X52125Y-18725D02*
X52475Y-18725D01*
X52475Y-18725D02*
X52475Y-18825D01*
X52650Y-18750D02*
X52650Y-18400D01*
X52650Y-18400D02*
X52575Y-18400D01*
X51950Y-18400D02*
X52025Y-18400D01*
X51950Y-18800D02*
X51950Y-18400D01*
X51950Y-18850D02*
X52650Y-18850D01*
X51950Y-19200D02*
X51950Y-18750D01*
X52650Y-18750D02*
X52650Y-19200D01*
X51950Y-19550D02*
X52650Y-19550D01*
X52650Y-19550D02*
X52650Y-19200D01*
X51950Y-19550D02*
X51950Y-19200D01*
X50925Y-18825D02*
X50925Y-18725D01*
X50925Y-18725D02*
X51275Y-18725D01*
X51275Y-18725D02*
X51275Y-18825D01*
X51450Y-18750D02*
X51450Y-18400D01*
X51450Y-18400D02*
X51375Y-18400D01*
X50750Y-18400D02*
X50825Y-18400D01*
X50750Y-18800D02*
X50750Y-18400D01*
X50750Y-18850D02*
X51450Y-18850D01*
X50750Y-19200D02*
X50750Y-18750D01*
X51450Y-18750D02*
X51450Y-19200D01*
X50750Y-19550D02*
X51450Y-19550D01*
X51450Y-19550D02*
X51450Y-19200D01*
X50750Y-19550D02*
X50750Y-19200D01*
X48425Y-18825D02*
X48425Y-18725D01*
X48425Y-18725D02*
X48775Y-18725D01*
X48775Y-18725D02*
X48775Y-18825D01*
X48950Y-18750D02*
X48950Y-18400D01*
X48950Y-18400D02*
X48875Y-18400D01*
X48250Y-18400D02*
X48325Y-18400D01*
X48250Y-18800D02*
X48250Y-18400D01*
X48250Y-18850D02*
X48950Y-18850D01*
X48250Y-19200D02*
X48250Y-18750D01*
X48950Y-18750D02*
X48950Y-19200D01*
X48250Y-19550D02*
X48950Y-19550D01*
X48950Y-19550D02*
X48950Y-19200D01*
X48250Y-19550D02*
X48250Y-19200D01*
X49725Y-18825D02*
X49725Y-18725D01*
X49725Y-18725D02*
X50075Y-18725D01*
X50075Y-18725D02*
X50075Y-18825D01*
X50250Y-18750D02*
X50250Y-18400D01*
X50250Y-18400D02*
X50175Y-18400D01*
X49550Y-18400D02*
X49625Y-18400D01*
X49550Y-18800D02*
X49550Y-18400D01*
X49550Y-18850D02*
X50250Y-18850D01*
X49550Y-19200D02*
X49550Y-18750D01*
X50250Y-18750D02*
X50250Y-19200D01*
X49550Y-19550D02*
X50250Y-19550D01*
X50250Y-19550D02*
X50250Y-19200D01*
X49550Y-19550D02*
X49550Y-19200D01*
G54D22*
X42936Y-51944D02*
G75*
G03X42936Y-51944I-157J0D01*
G74*
G01*
X41197Y-50900D02*
X41197Y-50348D01*
X41197Y-50348D02*
X41195Y-49424D01*
X41195Y-49424D02*
X43403Y-49424D01*
X43403Y-49424D02*
X43403Y-49779D01*
X43403Y-49779D02*
X43403Y-51290D01*
X43403Y-51290D02*
X43403Y-52376D01*
X43403Y-52376D02*
X41197Y-52376D01*
X41197Y-52376D02*
X41197Y-51280D01*
X41197Y-51280D02*
X41197Y-50770D01*
G54D17*
X41100Y-19500D02*
X47100Y-19500D01*
X47100Y-19500D02*
X47100Y-21500D01*
X47100Y-21500D02*
X41100Y-21500D01*
X41100Y-21500D02*
X41100Y-19500D01*
X37700Y-47200D02*
X37700Y-41200D01*
X37700Y-41200D02*
X39700Y-41200D01*
X39700Y-41200D02*
X39700Y-47200D01*
X39700Y-47200D02*
X37700Y-47200D01*
X37700Y-39122D02*
X37700Y-33122D01*
X37700Y-33122D02*
X39700Y-33122D01*
X39700Y-33122D02*
X39700Y-39122D01*
X39700Y-39122D02*
X37700Y-39122D01*
X37700Y-31100D02*
X37700Y-25100D01*
X37700Y-25100D02*
X39700Y-25100D01*
X39700Y-25100D02*
X39700Y-31100D01*
X39700Y-31100D02*
X37700Y-31100D01*
G54D10*
X45847Y-37374D02*
X47776Y-37374D01*
X47776Y-37374D02*
X47815Y-37374D01*
X47815Y-37374D02*
X47815Y-34343D01*
X47815Y-34343D02*
X45847Y-34343D01*
X45847Y-34343D02*
X45847Y-37374D01*
X45177Y-40721D02*
X45177Y-39382D01*
X46359Y-41429D02*
X45177Y-40721D01*
X46359Y-45878D02*
X46359Y-41429D01*
X46949Y-46272D02*
X46359Y-45878D01*
X46359Y-25996D02*
X45177Y-26666D01*
X45177Y-26666D02*
X45177Y-27296D01*
X46359Y-25445D02*
X46359Y-25996D01*
X46674Y-25327D02*
X46359Y-25327D01*
X46359Y-25327D02*
X46359Y-25524D01*
X46752Y-25327D02*
X46359Y-25327D01*
X46359Y-25406D02*
X46359Y-25327D01*
X46359Y-25327D02*
X46477Y-25327D01*
X45177Y-39422D02*
X45177Y-35012D01*
X45177Y-35012D02*
X45177Y-30130D01*
X45177Y-30130D02*
X45177Y-28555D01*
X45177Y-28555D02*
X45177Y-27256D01*
X47225Y-46272D02*
X46949Y-46272D01*
X50886Y-46272D02*
X47225Y-46272D01*
X59075Y-25327D02*
X57225Y-25327D01*
X57225Y-25327D02*
X52382Y-25327D01*
X52382Y-25327D02*
X46477Y-25327D01*
X72303Y-25445D02*
X72303Y-25878D01*
X63327Y-25327D02*
X65807Y-25327D01*
X65807Y-25327D02*
X70177Y-25327D01*
X70177Y-25327D02*
X71674Y-25327D01*
X71674Y-25327D02*
X72303Y-25327D01*
X72303Y-25327D02*
X72303Y-25485D01*
X72303Y-36272D02*
X72303Y-34107D01*
X72303Y-34107D02*
X72303Y-31784D01*
X72303Y-31784D02*
X72303Y-29737D01*
X72303Y-29737D02*
X72303Y-27453D01*
X72303Y-27453D02*
X72303Y-25839D01*
X67382Y-46272D02*
X58012Y-46272D01*
X58012Y-46272D02*
X50768Y-46272D01*
X66674Y-46272D02*
X72303Y-46272D01*
X72303Y-35800D02*
X72303Y-46272D01*
X58760Y-25327D02*
X63524Y-25327D01*
X58760Y-46272D02*
X66910Y-46272D01*
G54D22*
X60290Y-22020D02*
X60280Y-22020D01*
X60610Y-22020D02*
X60600Y-22020D01*
X60920Y-22020D02*
X60910Y-22020D01*
X60290Y-22380D02*
X60280Y-22380D01*
X60610Y-22380D02*
X60600Y-22380D01*
X60920Y-22380D02*
X60910Y-22380D01*
X59880Y-22380D02*
X59880Y-22020D01*
X59880Y-22020D02*
X59950Y-22020D01*
X59880Y-22380D02*
X59950Y-22380D01*
X61320Y-22380D02*
X61250Y-22380D01*
X61320Y-22380D02*
X61320Y-22020D01*
X61320Y-22020D02*
X61250Y-22020D01*
X52590Y-22020D02*
X52580Y-22020D01*
X52910Y-22020D02*
X52900Y-22020D01*
X53220Y-22020D02*
X53210Y-22020D01*
X52590Y-22380D02*
X52580Y-22380D01*
X52910Y-22380D02*
X52900Y-22380D01*
X53220Y-22380D02*
X53210Y-22380D01*
X52180Y-22380D02*
X52180Y-22020D01*
X52180Y-22020D02*
X52250Y-22020D01*
X52180Y-22380D02*
X52250Y-22380D01*
X53620Y-22380D02*
X53550Y-22380D01*
X53620Y-22380D02*
X53620Y-22020D01*
X53620Y-22020D02*
X53550Y-22020D01*
X63900Y-18650D02*
X63900Y-18500D01*
X63600Y-19200D02*
X63600Y-17950D01*
X63600Y-17950D02*
X63600Y-17900D01*
X63600Y-17900D02*
X64200Y-17900D01*
X64200Y-17900D02*
X64200Y-19200D01*
X64200Y-19200D02*
X63600Y-19200D01*
X61700Y-18650D02*
X61700Y-18500D01*
X61400Y-19200D02*
X61400Y-17950D01*
X61400Y-17950D02*
X61400Y-17900D01*
X61400Y-17900D02*
X62000Y-17900D01*
X62000Y-17900D02*
X62000Y-19200D01*
X62000Y-19200D02*
X61400Y-19200D01*
X59500Y-18650D02*
X59500Y-18500D01*
X59200Y-19200D02*
X59200Y-17950D01*
X59200Y-17950D02*
X59200Y-17900D01*
X59200Y-17900D02*
X59800Y-17900D01*
X59800Y-17900D02*
X59800Y-19200D01*
X59800Y-19200D02*
X59200Y-19200D01*
X57300Y-18650D02*
X57300Y-18500D01*
X57000Y-19200D02*
X57000Y-17950D01*
X57000Y-17950D02*
X57000Y-17900D01*
X57000Y-17900D02*
X57600Y-17900D01*
X57600Y-17900D02*
X57600Y-19200D01*
X57600Y-19200D02*
X57000Y-19200D01*
G54D13*
X43850Y-53792D02*
X43835Y-53807D01*
X43792Y-53821D01*
X43764Y-53821D01*
X43721Y-53807D01*
X43692Y-53778D01*
X43678Y-53750D01*
X43664Y-53692D01*
X43664Y-53650D01*
X43678Y-53592D01*
X43692Y-53564D01*
X43721Y-53535D01*
X43764Y-53521D01*
X43792Y-53521D01*
X43835Y-53535D01*
X43850Y-53550D01*
X44107Y-53621D02*
X44107Y-53821D01*
X44035Y-53507D02*
X43964Y-53721D01*
X44150Y-53721D01*
X60650Y-24821D02*
X60550Y-24678D01*
X60478Y-24821D02*
X60478Y-24521D01*
X60592Y-24521D01*
X60621Y-24535D01*
X60635Y-24550D01*
X60650Y-24578D01*
X60650Y-24621D01*
X60635Y-24650D01*
X60621Y-24664D01*
X60592Y-24678D01*
X60478Y-24678D01*
X60907Y-24521D02*
X60850Y-24521D01*
X60821Y-24535D01*
X60807Y-24550D01*
X60778Y-24592D01*
X60764Y-24650D01*
X60764Y-24764D01*
X60778Y-24792D01*
X60792Y-24807D01*
X60821Y-24821D01*
X60878Y-24821D01*
X60907Y-24807D01*
X60921Y-24792D01*
X60935Y-24764D01*
X60935Y-24692D01*
X60921Y-24664D01*
X60907Y-24650D01*
X60878Y-24635D01*
X60821Y-24635D01*
X60792Y-24650D01*
X60778Y-24664D01*
X60764Y-24692D01*
X63550Y-47121D02*
X63450Y-46978D01*
X63378Y-47121D02*
X63378Y-46821D01*
X63492Y-46821D01*
X63521Y-46835D01*
X63535Y-46850D01*
X63550Y-46878D01*
X63550Y-46921D01*
X63535Y-46950D01*
X63521Y-46964D01*
X63492Y-46978D01*
X63378Y-46978D01*
X63650Y-46821D02*
X63835Y-46821D01*
X63735Y-46935D01*
X63778Y-46935D01*
X63807Y-46950D01*
X63821Y-46964D01*
X63835Y-46992D01*
X63835Y-47064D01*
X63821Y-47092D01*
X63807Y-47107D01*
X63778Y-47121D01*
X63692Y-47121D01*
X63664Y-47107D01*
X63650Y-47092D01*
X66550Y-24792D02*
X66535Y-24807D01*
X66492Y-24821D01*
X66464Y-24821D01*
X66421Y-24807D01*
X66392Y-24778D01*
X66378Y-24750D01*
X66364Y-24692D01*
X66364Y-24650D01*
X66378Y-24592D01*
X66392Y-24564D01*
X66421Y-24535D01*
X66464Y-24521D01*
X66492Y-24521D01*
X66535Y-24535D01*
X66550Y-24550D01*
X66721Y-24650D02*
X66692Y-24635D01*
X66678Y-24621D01*
X66664Y-24592D01*
X66664Y-24578D01*
X66678Y-24550D01*
X66692Y-24535D01*
X66721Y-24521D01*
X66778Y-24521D01*
X66807Y-24535D01*
X66821Y-24550D01*
X66835Y-24578D01*
X66835Y-24592D01*
X66821Y-24621D01*
X66807Y-24635D01*
X66778Y-24650D01*
X66721Y-24650D01*
X66692Y-24664D01*
X66678Y-24678D01*
X66664Y-24707D01*
X66664Y-24764D01*
X66678Y-24792D01*
X66692Y-24807D01*
X66721Y-24821D01*
X66778Y-24821D01*
X66807Y-24807D01*
X66821Y-24792D01*
X66835Y-24764D01*
X66835Y-24707D01*
X66821Y-24678D01*
X66807Y-24664D01*
X66778Y-24650D01*
X68250Y-24792D02*
X68235Y-24807D01*
X68192Y-24821D01*
X68164Y-24821D01*
X68121Y-24807D01*
X68092Y-24778D01*
X68078Y-24750D01*
X68064Y-24692D01*
X68064Y-24650D01*
X68078Y-24592D01*
X68092Y-24564D01*
X68121Y-24535D01*
X68164Y-24521D01*
X68192Y-24521D01*
X68235Y-24535D01*
X68250Y-24550D01*
X68392Y-24821D02*
X68450Y-24821D01*
X68478Y-24807D01*
X68492Y-24792D01*
X68521Y-24750D01*
X68535Y-24692D01*
X68535Y-24578D01*
X68521Y-24550D01*
X68507Y-24535D01*
X68478Y-24521D01*
X68421Y-24521D01*
X68392Y-24535D01*
X68378Y-24550D01*
X68364Y-24578D01*
X68364Y-24650D01*
X68378Y-24678D01*
X68392Y-24692D01*
X68421Y-24707D01*
X68478Y-24707D01*
X68507Y-24692D01*
X68521Y-24678D01*
X68535Y-24650D01*
X42921Y-47750D02*
X42778Y-47850D01*
X42921Y-47921D02*
X42621Y-47921D01*
X42621Y-47807D01*
X42635Y-47778D01*
X42650Y-47764D01*
X42678Y-47750D01*
X42721Y-47750D01*
X42750Y-47764D01*
X42764Y-47778D01*
X42778Y-47807D01*
X42778Y-47921D01*
X42621Y-47650D02*
X42621Y-47450D01*
X42921Y-47578D01*
X38650Y-49621D02*
X38550Y-49478D01*
X38478Y-49621D02*
X38478Y-49321D01*
X38592Y-49321D01*
X38621Y-49335D01*
X38635Y-49350D01*
X38650Y-49378D01*
X38650Y-49421D01*
X38635Y-49450D01*
X38621Y-49464D01*
X38592Y-49478D01*
X38478Y-49478D01*
X38821Y-49450D02*
X38792Y-49435D01*
X38778Y-49421D01*
X38764Y-49392D01*
X38764Y-49378D01*
X38778Y-49350D01*
X38792Y-49335D01*
X38821Y-49321D01*
X38878Y-49321D01*
X38907Y-49335D01*
X38921Y-49350D01*
X38935Y-49378D01*
X38935Y-49392D01*
X38921Y-49421D01*
X38907Y-49435D01*
X38878Y-49450D01*
X38821Y-49450D01*
X38792Y-49464D01*
X38778Y-49478D01*
X38764Y-49507D01*
X38764Y-49564D01*
X38778Y-49592D01*
X38792Y-49607D01*
X38821Y-49621D01*
X38878Y-49621D01*
X38907Y-49607D01*
X38921Y-49592D01*
X38935Y-49564D01*
X38935Y-49507D01*
X38921Y-49478D01*
X38907Y-49464D01*
X38878Y-49450D01*
X38650Y-50421D02*
X38550Y-50278D01*
X38478Y-50421D02*
X38478Y-50121D01*
X38592Y-50121D01*
X38621Y-50135D01*
X38635Y-50150D01*
X38650Y-50178D01*
X38650Y-50221D01*
X38635Y-50250D01*
X38621Y-50264D01*
X38592Y-50278D01*
X38478Y-50278D01*
X38792Y-50421D02*
X38850Y-50421D01*
X38878Y-50407D01*
X38892Y-50392D01*
X38921Y-50350D01*
X38935Y-50292D01*
X38935Y-50178D01*
X38921Y-50150D01*
X38907Y-50135D01*
X38878Y-50121D01*
X38821Y-50121D01*
X38792Y-50135D01*
X38778Y-50150D01*
X38764Y-50178D01*
X38764Y-50250D01*
X38778Y-50278D01*
X38792Y-50292D01*
X38821Y-50307D01*
X38878Y-50307D01*
X38907Y-50292D01*
X38921Y-50278D01*
X38935Y-50250D01*
X70392Y-23392D02*
X70407Y-23407D01*
X70421Y-23450D01*
X70421Y-23478D01*
X70407Y-23521D01*
X70378Y-23550D01*
X70350Y-23564D01*
X70292Y-23578D01*
X70250Y-23578D01*
X70192Y-23564D01*
X70164Y-23550D01*
X70135Y-23521D01*
X70121Y-23478D01*
X70121Y-23450D01*
X70135Y-23407D01*
X70150Y-23392D01*
X70421Y-23107D02*
X70421Y-23278D01*
X70421Y-23192D02*
X70121Y-23192D01*
X70164Y-23221D01*
X70192Y-23250D01*
X70207Y-23278D01*
X70121Y-22921D02*
X70121Y-22892D01*
X70135Y-22864D01*
X70150Y-22850D01*
X70178Y-22835D01*
X70235Y-22821D01*
X70307Y-22821D01*
X70364Y-22835D01*
X70392Y-22850D01*
X70407Y-22864D01*
X70421Y-22892D01*
X70421Y-22921D01*
X70407Y-22950D01*
X70392Y-22964D01*
X70364Y-22978D01*
X70307Y-22992D01*
X70235Y-22992D01*
X70178Y-22978D01*
X70150Y-22964D01*
X70135Y-22950D01*
X70121Y-22921D01*
X67271Y-16671D02*
X67271Y-16914D01*
X67285Y-16942D01*
X67300Y-16957D01*
X67328Y-16971D01*
X67385Y-16971D01*
X67414Y-16957D01*
X67428Y-16942D01*
X67442Y-16914D01*
X67442Y-16671D01*
X67728Y-16671D02*
X67585Y-16671D01*
X67571Y-16814D01*
X67585Y-16800D01*
X67614Y-16785D01*
X67685Y-16785D01*
X67714Y-16800D01*
X67728Y-16814D01*
X67742Y-16842D01*
X67742Y-16914D01*
X67728Y-16942D01*
X67714Y-16957D01*
X67685Y-16971D01*
X67614Y-16971D01*
X67585Y-16957D01*
X67571Y-16942D01*
X51021Y-52750D02*
X50878Y-52850D01*
X51021Y-52921D02*
X50721Y-52921D01*
X50721Y-52807D01*
X50735Y-52778D01*
X50750Y-52764D01*
X50778Y-52750D01*
X50821Y-52750D01*
X50850Y-52764D01*
X50864Y-52778D01*
X50878Y-52807D01*
X50878Y-52921D01*
X51021Y-52464D02*
X51021Y-52635D01*
X51021Y-52550D02*
X50721Y-52550D01*
X50764Y-52578D01*
X50792Y-52607D01*
X50807Y-52635D01*
X53621Y-56521D02*
X53321Y-56521D01*
X53321Y-56450D01*
X53335Y-56407D01*
X53364Y-56378D01*
X53392Y-56364D01*
X53450Y-56350D01*
X53492Y-56350D01*
X53550Y-56364D01*
X53578Y-56378D01*
X53607Y-56407D01*
X53621Y-56450D01*
X53621Y-56521D01*
X53421Y-56092D02*
X53621Y-56092D01*
X53307Y-56164D02*
X53521Y-56235D01*
X53521Y-56050D01*
X47692Y-49850D02*
X47707Y-49864D01*
X47721Y-49907D01*
X47721Y-49935D01*
X47707Y-49978D01*
X47678Y-50007D01*
X47650Y-50021D01*
X47592Y-50035D01*
X47550Y-50035D01*
X47492Y-50021D01*
X47464Y-50007D01*
X47435Y-49978D01*
X47421Y-49935D01*
X47421Y-49907D01*
X47435Y-49864D01*
X47450Y-49850D01*
X47721Y-49564D02*
X47721Y-49735D01*
X47721Y-49650D02*
X47421Y-49650D01*
X47464Y-49678D01*
X47492Y-49707D01*
X47507Y-49735D01*
X44121Y-47750D02*
X43978Y-47850D01*
X44121Y-47921D02*
X43821Y-47921D01*
X43821Y-47807D01*
X43835Y-47778D01*
X43850Y-47764D01*
X43878Y-47750D01*
X43921Y-47750D01*
X43950Y-47764D01*
X43964Y-47778D01*
X43978Y-47807D01*
X43978Y-47921D01*
X43850Y-47635D02*
X43835Y-47621D01*
X43821Y-47592D01*
X43821Y-47521D01*
X43835Y-47492D01*
X43850Y-47478D01*
X43878Y-47464D01*
X43907Y-47464D01*
X43950Y-47478D01*
X44121Y-47650D01*
X44121Y-47464D01*
X38650Y-51192D02*
X38635Y-51207D01*
X38592Y-51221D01*
X38564Y-51221D01*
X38521Y-51207D01*
X38492Y-51178D01*
X38478Y-51150D01*
X38464Y-51092D01*
X38464Y-51050D01*
X38478Y-50992D01*
X38492Y-50964D01*
X38521Y-50935D01*
X38564Y-50921D01*
X38592Y-50921D01*
X38635Y-50935D01*
X38650Y-50950D01*
X38750Y-50921D02*
X38935Y-50921D01*
X38835Y-51035D01*
X38878Y-51035D01*
X38907Y-51050D01*
X38921Y-51064D01*
X38935Y-51092D01*
X38935Y-51164D01*
X38921Y-51192D01*
X38907Y-51207D01*
X38878Y-51221D01*
X38792Y-51221D01*
X38764Y-51207D01*
X38750Y-51192D01*
X47692Y-53050D02*
X47707Y-53064D01*
X47721Y-53107D01*
X47721Y-53135D01*
X47707Y-53178D01*
X47678Y-53207D01*
X47650Y-53221D01*
X47592Y-53235D01*
X47550Y-53235D01*
X47492Y-53221D01*
X47464Y-53207D01*
X47435Y-53178D01*
X47421Y-53135D01*
X47421Y-53107D01*
X47435Y-53064D01*
X47450Y-53050D01*
X47450Y-52935D02*
X47435Y-52921D01*
X47421Y-52892D01*
X47421Y-52821D01*
X47435Y-52792D01*
X47450Y-52778D01*
X47478Y-52764D01*
X47507Y-52764D01*
X47550Y-52778D01*
X47721Y-52950D01*
X47721Y-52764D01*
X49721Y-47921D02*
X49421Y-47921D01*
X49421Y-47807D01*
X49435Y-47778D01*
X49450Y-47764D01*
X49478Y-47750D01*
X49521Y-47750D01*
X49550Y-47764D01*
X49564Y-47778D01*
X49578Y-47807D01*
X49578Y-47921D01*
X49421Y-47492D02*
X49421Y-47550D01*
X49435Y-47578D01*
X49450Y-47592D01*
X49492Y-47621D01*
X49550Y-47635D01*
X49664Y-47635D01*
X49692Y-47621D01*
X49707Y-47607D01*
X49721Y-47578D01*
X49721Y-47521D01*
X49707Y-47492D01*
X49692Y-47478D01*
X49664Y-47464D01*
X49592Y-47464D01*
X49564Y-47478D01*
X49550Y-47492D01*
X49535Y-47521D01*
X49535Y-47578D01*
X49550Y-47607D01*
X49564Y-47621D01*
X49592Y-47635D01*
X45721Y-48842D02*
X46021Y-48642D01*
X45721Y-48642D02*
X46021Y-48842D01*
X46021Y-48371D02*
X46021Y-48542D01*
X46021Y-48457D02*
X45721Y-48457D01*
X45764Y-48485D01*
X45792Y-48514D01*
X45807Y-48542D01*
X52121Y-49921D02*
X51821Y-49921D01*
X51821Y-49807D01*
X51835Y-49778D01*
X51850Y-49764D01*
X51878Y-49750D01*
X51921Y-49750D01*
X51950Y-49764D01*
X51964Y-49778D01*
X51978Y-49807D01*
X51978Y-49921D01*
X51821Y-49478D02*
X51821Y-49621D01*
X51964Y-49635D01*
X51950Y-49621D01*
X51935Y-49592D01*
X51935Y-49521D01*
X51950Y-49492D01*
X51964Y-49478D01*
X51992Y-49464D01*
X52064Y-49464D01*
X52092Y-49478D01*
X52107Y-49492D01*
X52121Y-49521D01*
X52121Y-49592D01*
X52107Y-49621D01*
X52092Y-49635D01*
X37407Y-49721D02*
X37307Y-49578D01*
X37235Y-49721D02*
X37235Y-49421D01*
X37350Y-49421D01*
X37378Y-49435D01*
X37392Y-49450D01*
X37407Y-49478D01*
X37407Y-49521D01*
X37392Y-49550D01*
X37378Y-49564D01*
X37350Y-49578D01*
X37235Y-49578D01*
X37692Y-49721D02*
X37521Y-49721D01*
X37607Y-49721D02*
X37607Y-49421D01*
X37578Y-49464D01*
X37550Y-49492D01*
X37521Y-49507D01*
X37878Y-49421D02*
X37907Y-49421D01*
X37935Y-49435D01*
X37950Y-49450D01*
X37964Y-49478D01*
X37978Y-49535D01*
X37978Y-49607D01*
X37964Y-49664D01*
X37950Y-49692D01*
X37935Y-49707D01*
X37907Y-49721D01*
X37878Y-49721D01*
X37850Y-49707D01*
X37835Y-49692D01*
X37821Y-49664D01*
X37807Y-49607D01*
X37807Y-49535D01*
X37821Y-49478D01*
X37835Y-49450D01*
X37850Y-49435D01*
X37878Y-49421D01*
X34821Y-48442D02*
X35121Y-48242D01*
X34821Y-48242D02*
X35121Y-48442D01*
X34850Y-48142D02*
X34835Y-48128D01*
X34821Y-48100D01*
X34821Y-48028D01*
X34835Y-48000D01*
X34850Y-47985D01*
X34878Y-47971D01*
X34907Y-47971D01*
X34950Y-47985D01*
X35121Y-48157D01*
X35121Y-47971D01*
X54821Y-20221D02*
X54521Y-20221D01*
X54521Y-20150D01*
X54535Y-20107D01*
X54564Y-20078D01*
X54592Y-20064D01*
X54650Y-20050D01*
X54692Y-20050D01*
X54750Y-20064D01*
X54778Y-20078D01*
X54807Y-20107D01*
X54821Y-20150D01*
X54821Y-20221D01*
X54521Y-19950D02*
X54521Y-19750D01*
X54821Y-19878D01*
X53621Y-20221D02*
X53321Y-20221D01*
X53321Y-20150D01*
X53335Y-20107D01*
X53364Y-20078D01*
X53392Y-20064D01*
X53450Y-20050D01*
X53492Y-20050D01*
X53550Y-20064D01*
X53578Y-20078D01*
X53607Y-20107D01*
X53621Y-20150D01*
X53621Y-20221D01*
X53321Y-19950D02*
X53321Y-19764D01*
X53435Y-19864D01*
X53435Y-19821D01*
X53450Y-19792D01*
X53464Y-19778D01*
X53492Y-19764D01*
X53564Y-19764D01*
X53592Y-19778D01*
X53607Y-19792D01*
X53621Y-19821D01*
X53621Y-19907D01*
X53607Y-19935D01*
X53592Y-19950D01*
X52421Y-20221D02*
X52121Y-20221D01*
X52121Y-20150D01*
X52135Y-20107D01*
X52164Y-20078D01*
X52192Y-20064D01*
X52250Y-20050D01*
X52292Y-20050D01*
X52350Y-20064D01*
X52378Y-20078D01*
X52407Y-20107D01*
X52421Y-20150D01*
X52421Y-20221D01*
X52150Y-19935D02*
X52135Y-19921D01*
X52121Y-19892D01*
X52121Y-19821D01*
X52135Y-19792D01*
X52150Y-19778D01*
X52178Y-19764D01*
X52207Y-19764D01*
X52250Y-19778D01*
X52421Y-19950D01*
X52421Y-19764D01*
X51221Y-20221D02*
X50921Y-20221D01*
X50921Y-20150D01*
X50935Y-20107D01*
X50964Y-20078D01*
X50992Y-20064D01*
X51050Y-20050D01*
X51092Y-20050D01*
X51150Y-20064D01*
X51178Y-20078D01*
X51207Y-20107D01*
X51221Y-20150D01*
X51221Y-20221D01*
X51221Y-19764D02*
X51221Y-19935D01*
X51221Y-19850D02*
X50921Y-19850D01*
X50964Y-19878D01*
X50992Y-19907D01*
X51007Y-19935D01*
X48721Y-20221D02*
X48421Y-20221D01*
X48421Y-20150D01*
X48435Y-20107D01*
X48464Y-20078D01*
X48492Y-20064D01*
X48550Y-20050D01*
X48592Y-20050D01*
X48650Y-20064D01*
X48678Y-20078D01*
X48707Y-20107D01*
X48721Y-20150D01*
X48721Y-20221D01*
X48421Y-19778D02*
X48421Y-19921D01*
X48564Y-19935D01*
X48550Y-19921D01*
X48535Y-19892D01*
X48535Y-19821D01*
X48550Y-19792D01*
X48564Y-19778D01*
X48592Y-19764D01*
X48664Y-19764D01*
X48692Y-19778D01*
X48707Y-19792D01*
X48721Y-19821D01*
X48721Y-19892D01*
X48707Y-19921D01*
X48692Y-19935D01*
X50021Y-20221D02*
X49721Y-20221D01*
X49721Y-20150D01*
X49735Y-20107D01*
X49764Y-20078D01*
X49792Y-20064D01*
X49850Y-20050D01*
X49892Y-20050D01*
X49950Y-20064D01*
X49978Y-20078D01*
X50007Y-20107D01*
X50021Y-20150D01*
X50021Y-20221D01*
X49721Y-19792D02*
X49721Y-19850D01*
X49735Y-19878D01*
X49750Y-19892D01*
X49792Y-19921D01*
X49850Y-19935D01*
X49964Y-19935D01*
X49992Y-19921D01*
X50007Y-19907D01*
X50021Y-19878D01*
X50021Y-19821D01*
X50007Y-19792D01*
X49992Y-19778D01*
X49964Y-19764D01*
X49892Y-19764D01*
X49864Y-19778D01*
X49850Y-19792D01*
X49835Y-19821D01*
X49835Y-19878D01*
X49850Y-19907D01*
X49864Y-19921D01*
X49892Y-19935D01*
X42071Y-52621D02*
X42071Y-52864D01*
X42085Y-52892D01*
X42100Y-52907D01*
X42128Y-52921D01*
X42185Y-52921D01*
X42214Y-52907D01*
X42228Y-52892D01*
X42242Y-52864D01*
X42242Y-52621D01*
X42357Y-52621D02*
X42542Y-52621D01*
X42442Y-52735D01*
X42485Y-52735D01*
X42514Y-52750D01*
X42528Y-52764D01*
X42542Y-52792D01*
X42542Y-52864D01*
X42528Y-52892D01*
X42514Y-52907D01*
X42485Y-52921D01*
X42400Y-52921D01*
X42371Y-52907D01*
X42357Y-52892D01*
G54D11*
X43804Y-22161D02*
X43804Y-21761D01*
X43957Y-21761D01*
X43995Y-21780D01*
X44014Y-21800D01*
X44033Y-21838D01*
X44033Y-21895D01*
X44014Y-21933D01*
X43995Y-21952D01*
X43957Y-21971D01*
X43804Y-21971D01*
X44166Y-21761D02*
X44414Y-21761D01*
X44280Y-21914D01*
X44338Y-21914D01*
X44376Y-21933D01*
X44395Y-21952D01*
X44414Y-21990D01*
X44414Y-22085D01*
X44395Y-22123D01*
X44376Y-22142D01*
X44338Y-22161D01*
X44223Y-22161D01*
X44185Y-22142D01*
X44166Y-22123D01*
G54D23*
G54D11*
X40004Y-44361D02*
X40004Y-43961D01*
X40157Y-43961D01*
X40195Y-43980D01*
X40214Y-44000D01*
X40233Y-44038D01*
X40233Y-44095D01*
X40214Y-44133D01*
X40195Y-44152D01*
X40157Y-44171D01*
X40004Y-44171D01*
X40576Y-44095D02*
X40576Y-44361D01*
X40480Y-43942D02*
X40385Y-44228D01*
X40633Y-44228D01*
G54D23*
G54D11*
X40104Y-36261D02*
X40104Y-35861D01*
X40257Y-35861D01*
X40295Y-35880D01*
X40314Y-35900D01*
X40333Y-35938D01*
X40333Y-35995D01*
X40314Y-36033D01*
X40295Y-36052D01*
X40257Y-36071D01*
X40104Y-36071D01*
X40714Y-36261D02*
X40485Y-36261D01*
X40600Y-36261D02*
X40600Y-35861D01*
X40561Y-35919D01*
X40523Y-35957D01*
X40485Y-35976D01*
G54D23*
G54D11*
X40104Y-28261D02*
X40104Y-27861D01*
X40257Y-27861D01*
X40295Y-27880D01*
X40314Y-27900D01*
X40333Y-27938D01*
X40333Y-27995D01*
X40314Y-28033D01*
X40295Y-28052D01*
X40257Y-28071D01*
X40104Y-28071D01*
X40485Y-27900D02*
X40504Y-27880D01*
X40542Y-27861D01*
X40638Y-27861D01*
X40676Y-27880D01*
X40695Y-27900D01*
X40714Y-27938D01*
X40714Y-27976D01*
X40695Y-28033D01*
X40466Y-28261D01*
X40714Y-28261D01*
G54D23*
G54D13*
X72689Y-25302D02*
X72689Y-25545D01*
X72703Y-25573D01*
X72718Y-25588D01*
X72746Y-25602D01*
X72803Y-25602D01*
X72832Y-25588D01*
X72846Y-25573D01*
X72860Y-25545D01*
X72860Y-25302D01*
X72989Y-25331D02*
X73003Y-25316D01*
X73032Y-25302D01*
X73103Y-25302D01*
X73132Y-25316D01*
X73146Y-25331D01*
X73160Y-25359D01*
X73160Y-25388D01*
X73146Y-25431D01*
X72975Y-25602D01*
X73160Y-25602D01*
X61750Y-22321D02*
X61650Y-22178D01*
X61578Y-22321D02*
X61578Y-22021D01*
X61692Y-22021D01*
X61721Y-22035D01*
X61735Y-22050D01*
X61750Y-22078D01*
X61750Y-22121D01*
X61735Y-22150D01*
X61721Y-22164D01*
X61692Y-22178D01*
X61578Y-22178D01*
X62007Y-22121D02*
X62007Y-22321D01*
X61935Y-22007D02*
X61864Y-22221D01*
X62050Y-22221D01*
X52850Y-23321D02*
X52750Y-23178D01*
X52678Y-23321D02*
X52678Y-23021D01*
X52792Y-23021D01*
X52821Y-23035D01*
X52835Y-23050D01*
X52850Y-23078D01*
X52850Y-23121D01*
X52835Y-23150D01*
X52821Y-23164D01*
X52792Y-23178D01*
X52678Y-23178D01*
X53121Y-23021D02*
X52978Y-23021D01*
X52964Y-23164D01*
X52978Y-23150D01*
X53007Y-23135D01*
X53078Y-23135D01*
X53107Y-23150D01*
X53121Y-23164D01*
X53135Y-23192D01*
X53135Y-23264D01*
X53121Y-23292D01*
X53107Y-23307D01*
X53078Y-23321D01*
X53007Y-23321D01*
X52978Y-23307D01*
X52964Y-23292D01*
X64007Y-21399D02*
X64021Y-21357D01*
X64021Y-21285D01*
X64007Y-21257D01*
X63992Y-21242D01*
X63964Y-21228D01*
X63935Y-21228D01*
X63907Y-21242D01*
X63892Y-21257D01*
X63878Y-21285D01*
X63864Y-21342D01*
X63850Y-21371D01*
X63835Y-21385D01*
X63807Y-21399D01*
X63778Y-21399D01*
X63750Y-21385D01*
X63735Y-21371D01*
X63721Y-21342D01*
X63721Y-21271D01*
X63735Y-21228D01*
X63721Y-21128D02*
X64021Y-21057D01*
X63807Y-20999D01*
X64021Y-20942D01*
X63721Y-20871D01*
X63821Y-20628D02*
X64021Y-20628D01*
X63707Y-20700D02*
X63921Y-20771D01*
X63921Y-20585D01*
X61807Y-21399D02*
X61821Y-21357D01*
X61821Y-21285D01*
X61807Y-21257D01*
X61792Y-21242D01*
X61764Y-21228D01*
X61735Y-21228D01*
X61707Y-21242D01*
X61692Y-21257D01*
X61678Y-21285D01*
X61664Y-21342D01*
X61650Y-21371D01*
X61635Y-21385D01*
X61607Y-21399D01*
X61578Y-21399D01*
X61550Y-21385D01*
X61535Y-21371D01*
X61521Y-21342D01*
X61521Y-21271D01*
X61535Y-21228D01*
X61521Y-21128D02*
X61821Y-21057D01*
X61607Y-20999D01*
X61821Y-20942D01*
X61521Y-20871D01*
X61521Y-20785D02*
X61521Y-20600D01*
X61635Y-20700D01*
X61635Y-20657D01*
X61650Y-20628D01*
X61664Y-20614D01*
X61692Y-20600D01*
X61764Y-20600D01*
X61792Y-20614D01*
X61807Y-20628D01*
X61821Y-20657D01*
X61821Y-20742D01*
X61807Y-20771D01*
X61792Y-20785D01*
X59607Y-21399D02*
X59621Y-21357D01*
X59621Y-21285D01*
X59607Y-21257D01*
X59592Y-21242D01*
X59564Y-21228D01*
X59535Y-21228D01*
X59507Y-21242D01*
X59492Y-21257D01*
X59478Y-21285D01*
X59464Y-21342D01*
X59450Y-21371D01*
X59435Y-21385D01*
X59407Y-21399D01*
X59378Y-21399D01*
X59350Y-21385D01*
X59335Y-21371D01*
X59321Y-21342D01*
X59321Y-21271D01*
X59335Y-21228D01*
X59321Y-21128D02*
X59621Y-21057D01*
X59407Y-20999D01*
X59621Y-20942D01*
X59321Y-20871D01*
X59350Y-20771D02*
X59335Y-20757D01*
X59321Y-20728D01*
X59321Y-20657D01*
X59335Y-20628D01*
X59350Y-20614D01*
X59378Y-20600D01*
X59407Y-20600D01*
X59450Y-20614D01*
X59621Y-20785D01*
X59621Y-20600D01*
X57407Y-21399D02*
X57421Y-21357D01*
X57421Y-21285D01*
X57407Y-21257D01*
X57392Y-21242D01*
X57364Y-21228D01*
X57335Y-21228D01*
X57307Y-21242D01*
X57292Y-21257D01*
X57278Y-21285D01*
X57264Y-21342D01*
X57250Y-21371D01*
X57235Y-21385D01*
X57207Y-21399D01*
X57178Y-21399D01*
X57150Y-21385D01*
X57135Y-21371D01*
X57121Y-21342D01*
X57121Y-21271D01*
X57135Y-21228D01*
X57121Y-21128D02*
X57421Y-21057D01*
X57207Y-20999D01*
X57421Y-20942D01*
X57121Y-20871D01*
X57421Y-20600D02*
X57421Y-20771D01*
X57421Y-20685D02*
X57121Y-20685D01*
X57164Y-20714D01*
X57192Y-20742D01*
X57207Y-20771D01*
M02*
