M48
;DRILL file {Pcbnew (2013-07-07 BZR 4022)-stable} date 15/12/2015 05:15:51 PM
;FORMAT={-:-/ absolute / inch / decimal}
FMAT,2
INCH,TZ
T1C0.010
T2C0.030
T3C0.033
T4C0.035
T5C0.040
T6C0.125
T7C0.126
T8C0.138
%
G90
G05
M72
T1
X3.522Y-1.8
X3.672Y-1.893
X3.6794Y-5.1218
X3.7658Y-5.0306
X3.7897Y-1.9741
X3.8506Y-2.1078
X3.9283Y-2.2296
X3.9516Y-5.0294
X3.9815Y-4.0804
X3.9829Y-5.2095
X3.9912Y-4.9942
X4.0092Y-4.3442
X4.0158Y-3.9061
X4.0158Y-3.9922
X4.017Y-3.1545
X4.023Y-4.6953
X4.0359Y-5.2053
X4.0383Y-4.3155
X4.0612Y-2.7438
X4.0692Y-4.3414
X4.0722Y-2.3632
X4.083Y-3.2355
X4.1028Y-4.3404
X4.1286Y-4.3098
X4.1475Y-3.504
X4.149Y-3.5805
X4.1517Y-5.0775
X4.1523Y-5.1101
X4.1556Y-5.0433
X4.1638Y-4.3096
X4.1908Y-4.8602
X4.1932Y-4.183
X4.2378Y-4.6962
X4.2801Y-4.8564
X4.299Y-5.0538
X4.3085Y-5.0852
X4.3089Y-5.022
X4.31Y-4.9896
X4.3272Y-5.2989
X4.3371Y-4.7655
X4.3395Y-4.8249
X4.4001Y-4.8564
X4.4202Y-5.2569
X4.4253Y-5.0889
X4.4256Y-4.6959
X4.4405Y-4.7652
X4.4763Y-4.7493
X4.4824Y-4.8246
X4.539Y-4.032
X4.6269Y-4.8427
X4.665Y-4.0905
X4.6935Y-4.5936
X4.758Y-4.053
X4.7592Y-4.8574
X4.7596Y-5.0752
X4.7598Y-5.2056
X4.7778Y-4.589
X4.8645Y-4.299
X4.8806Y-4.5874
X4.89Y-3.96
X4.9185Y-3.8505
X4.98Y-4.587
X5.0745Y-3.855
X5.082Y-4.2975
X5.0835Y-4.5879
X5.091Y-4.1441
X5.0915Y-5.1875
X5.1738Y-4.6673
X5.2426Y-2.2846
X5.2689Y-5.7411
X5.272Y-5.261
X5.2779Y-4.1315
X5.2806Y-2.2852
X5.2842Y-3.9362
X5.2875Y-5.3901
X5.2884Y-3.1382
X5.32Y-4.362
X5.3406Y-2.2828
X5.3469Y-5.744
X5.3598Y-5.6911
X5.408Y-4.25
X5.469Y-5.687
X5.5434Y-5.6625
X5.546Y-5.4328
X5.546Y-5.5637
X5.583Y-5.7477
X5.6256Y-5.5977
X5.6307Y-4.7447
X5.6335Y-4.695
X5.6874Y-5.4433
X5.7273Y-4.7622
X5.7675Y-5.6832
X5.811Y-5.5461
X5.8305Y-2.5053
X5.8452Y-5.721
X5.8457Y-5.6316
X5.9199Y-5.6433
X5.976Y-5.7411
X5.9771Y-5.6239
X6.0654Y-5.7201
X6.1086Y-5.6901
X6.2Y-5.6934
X6.2572Y-5.6001
X6.2638Y-5.7152
X6.2676Y-4.6994
X6.2957Y-5.6316
X6.375Y-5.536
X6.3816Y-5.7276
X6.4875Y-5.577
X6.4901Y-5.7383
X6.5323Y-5.703
X6.55Y-1.64
X6.55Y-1.71
X6.55Y-1.79
X6.55Y-1.89
X6.58Y-1.67
X6.58Y-1.76
X6.58Y-1.83
X6.63Y-1.64
X6.6423Y-5.6079
X6.6471Y-5.5343
X6.6566Y-2.3066
X6.66Y-1.67
X6.6915Y-5.6901
X6.6919Y-5.6106
X6.75Y-1.64
X6.7511Y-5.6879
X6.7916Y-5.7246
X6.81Y-1.67
X6.814Y-5.7016
X6.8303Y-2.3061
X6.8358Y-5.5881
X6.8392Y-5.4482
X6.86Y-1.64
X6.9104Y-5.7153
X6.9156Y-5.4712
X6.92Y-1.67
X6.92Y-1.76
X6.92Y-1.85
X6.92Y-1.94
X6.95Y-1.64
X6.95Y-1.72
X6.95Y-1.8
X6.95Y-1.89
X6.968Y-5.709
X7.0274Y-5.7136
X7.1028Y-5.7054
X7.1301Y-5.7282
X7.1585Y-5.7477
X7.1853Y-5.6586
X7.1876Y-5.7198
T2
X4.59Y-5.045
X4.59Y-5.245
T3
X3.6189Y-4.9716
X3.6189Y-5.1684
T5
X3.82Y-2.56
X3.82Y-2.66
X3.82Y-2.76
X3.82Y-2.86
X3.82Y-2.96
X3.82Y-3.06
X3.82Y-3.3622
X3.82Y-3.4622
X3.82Y-3.5622
X3.82Y-3.6622
X3.82Y-3.7622
X3.82Y-3.8622
X3.82Y-4.17
X3.82Y-4.27
X3.82Y-4.37
X3.82Y-4.47
X3.82Y-4.57
X3.82Y-4.67
X3.92Y-2.56
X3.92Y-2.66
X3.92Y-2.76
X3.92Y-2.86
X3.92Y-2.96
X3.92Y-3.06
X3.92Y-3.3622
X3.92Y-3.4622
X3.92Y-3.5622
X3.92Y-3.6622
X3.92Y-3.7622
X3.92Y-3.8622
X3.92Y-4.17
X3.92Y-4.27
X3.92Y-4.37
X3.92Y-4.47
X3.92Y-4.57
X3.92Y-4.67
X4.16Y-2.
X4.16Y-2.1
X4.26Y-2.
X4.26Y-2.1
X4.36Y-2.
X4.36Y-2.1
X4.46Y-2.
X4.46Y-2.1
X4.56Y-2.
X4.56Y-2.1
X4.6328Y-3.4852
X4.6328Y-3.5852
X4.6328Y-3.6852
X4.66Y-2.
X4.66Y-2.1
X4.73Y-2.6425
X4.73Y-4.5425
X4.7328Y-3.4852
X4.7328Y-3.5852
X4.7328Y-3.6852
X4.83Y-2.6425
X4.83Y-4.5425
X4.93Y-2.6425
X4.93Y-4.5425
X4.96Y-4.86
X4.96Y-4.96
X4.96Y-5.06
X4.96Y-5.16
X4.96Y-5.26
X4.96Y-5.36
X5.03Y-2.6425
X5.03Y-4.5425
X5.13Y-2.6425
X5.13Y-4.5425
X5.2Y-5.06
X5.2Y-5.16
X5.23Y-2.6425
X5.23Y-4.5425
X5.33Y-4.5425
X5.43Y-2.6425
X5.43Y-4.5425
X5.53Y-2.6425
X5.58Y-4.5425
X5.63Y-2.6425
X5.68Y-4.5425
X5.73Y-2.6425
X5.78Y-4.5425
X5.83Y-2.6425
X5.88Y-4.5425
X5.93Y-2.6425
X5.98Y-4.5425
X6.03Y-2.6425
X6.08Y-4.5425
X6.13Y-2.6425
X6.18Y-4.5425
X6.28Y-4.5425
X6.38Y-4.5425
X6.48Y-4.5425
T6
X3.7237Y-2.2549
X3.7237Y-5.625
X7.4839Y-5.2717
T7
X4.637Y-2.8421
X4.637Y-3.9413
X6.6401Y-4.5361
X6.6755Y-2.6495
T8
X4.9295Y-2.4603
X7.1305Y-2.1073
T4
X3.5156Y-4.9283G85X3.4959Y-4.9283
G05
X3.5156Y-5.2117G85X3.4959Y-5.2117
G05
T0
M30
