G04 (created by PCBNEW (2013-07-07 BZR 4022)-stable) date 15/12/2015 05:15:49 PM*
%MOIN*%
G04 Gerber Fmt 3.4, Leading zero omitted, Abs format*
%FSLAX34Y34*%
G01*
G70*
G90*
G04 APERTURE LIST*
%ADD10C,0.00590551*%
%ADD11C,0.2*%
%ADD12R,0.0256X0.1417*%
%ADD13R,0.0256X0.1811*%
%ADD14O,0.0256X0.0256*%
%ADD15R,0.06X0.06*%
%ADD16C,0.06*%
%ADD17C,0.056*%
%ADD18R,0.11811X0.0984252*%
%ADD19C,0.0610236*%
%ADD20C,0.0629921*%
%ADD21O,0.065X0.09*%
%ADD22O,0.06X0.09*%
%ADD23C,0.15748*%
%ADD24C,0.07*%
G04 APERTURE END LIST*
G54D10*
G54D11*
X71304Y-21073D03*
G54D12*
X52276Y-58435D03*
G54D13*
X52670Y-58632D03*
X53063Y-58632D03*
X53457Y-58632D03*
X53851Y-58632D03*
X54244Y-58632D03*
X54638Y-58632D03*
X55032Y-58632D03*
X55425Y-58632D03*
X55819Y-58632D03*
X56213Y-58632D03*
X58181Y-58632D03*
X58575Y-58632D03*
X58969Y-58632D03*
X59362Y-58632D03*
X59756Y-58632D03*
X57394Y-58632D03*
X57788Y-58632D03*
G54D14*
X53457Y-59538D03*
X53851Y-59538D03*
X54244Y-59538D03*
X54638Y-59538D03*
X55032Y-59538D03*
X55425Y-59538D03*
X55819Y-59538D03*
X58181Y-59538D03*
X58575Y-59538D03*
X53063Y-59538D03*
X57788Y-59538D03*
X58969Y-59538D03*
X56213Y-59538D03*
X57394Y-59538D03*
X59362Y-59538D03*
X59756Y-59538D03*
X52670Y-59538D03*
G54D13*
X60150Y-58632D03*
X60543Y-58632D03*
X60937Y-58632D03*
X61331Y-58632D03*
X61724Y-58632D03*
X62118Y-58632D03*
X62512Y-58632D03*
X62906Y-58632D03*
X63299Y-58632D03*
X63693Y-58632D03*
X64087Y-58632D03*
X64480Y-58632D03*
X64874Y-58632D03*
X65268Y-58632D03*
X65661Y-58632D03*
X66055Y-58632D03*
X66449Y-58632D03*
X66843Y-58632D03*
X67236Y-58632D03*
X67630Y-58632D03*
X68024Y-58632D03*
X68417Y-58632D03*
X68811Y-58632D03*
X69205Y-58632D03*
X69598Y-58632D03*
X69992Y-58632D03*
X70386Y-58632D03*
X70780Y-58632D03*
X71173Y-58632D03*
X71567Y-58632D03*
X71961Y-58632D03*
G54D14*
X60150Y-59538D03*
X60543Y-59538D03*
X60937Y-59538D03*
X61331Y-59538D03*
X61724Y-59538D03*
X62118Y-59538D03*
X62512Y-59538D03*
X62906Y-59538D03*
X63299Y-59538D03*
X63693Y-59538D03*
X64087Y-59538D03*
X64480Y-59538D03*
X64874Y-59538D03*
X65268Y-59538D03*
X65661Y-59538D03*
X66055Y-59538D03*
X66449Y-59538D03*
X66843Y-59538D03*
X67236Y-59538D03*
X67630Y-59538D03*
X68024Y-59538D03*
X68417Y-59538D03*
X68811Y-59538D03*
X69205Y-59538D03*
X69598Y-59538D03*
X69992Y-59538D03*
X70386Y-59538D03*
X70780Y-59538D03*
X71173Y-59538D03*
X71567Y-59538D03*
X71961Y-59538D03*
G54D11*
X49295Y-24602D03*
X37236Y-56250D03*
G54D15*
X49600Y-53600D03*
G54D16*
X49600Y-52600D03*
X49600Y-51600D03*
X49600Y-50600D03*
X49600Y-49600D03*
X49600Y-48600D03*
G54D17*
X45900Y-52450D03*
X45900Y-50450D03*
G54D15*
X52000Y-51600D03*
G54D16*
X52000Y-50600D03*
G54D18*
X35057Y-49282D03*
X35057Y-52117D03*
G54D19*
X36189Y-49715D03*
G54D20*
X36189Y-51684D03*
G54D11*
X74838Y-52716D03*
G54D15*
X41600Y-21000D03*
G54D16*
X41600Y-20000D03*
X42600Y-21000D03*
X42600Y-20000D03*
X43600Y-21000D03*
X43600Y-20000D03*
X44600Y-21000D03*
X44600Y-20000D03*
X45600Y-21000D03*
X45600Y-20000D03*
X46600Y-21000D03*
X46600Y-20000D03*
G54D15*
X39200Y-46700D03*
G54D16*
X38200Y-46700D03*
X39200Y-45700D03*
X38200Y-45700D03*
X39200Y-44700D03*
X38200Y-44700D03*
X39200Y-43700D03*
X38200Y-43700D03*
X39200Y-42700D03*
X38200Y-42700D03*
X39200Y-41700D03*
X38200Y-41700D03*
G54D15*
X39200Y-38622D03*
G54D16*
X38200Y-38622D03*
X39200Y-37622D03*
X38200Y-37622D03*
X39200Y-36622D03*
X38200Y-36622D03*
X39200Y-35622D03*
X38200Y-35622D03*
X39200Y-34622D03*
X38200Y-34622D03*
X39200Y-33622D03*
X38200Y-33622D03*
G54D15*
X39200Y-30600D03*
G54D16*
X38200Y-30600D03*
X39200Y-29600D03*
X38200Y-29600D03*
X39200Y-28600D03*
X38200Y-28600D03*
X39200Y-27600D03*
X38200Y-27600D03*
X39200Y-26600D03*
X38200Y-26600D03*
X39200Y-25600D03*
X38200Y-25600D03*
G54D21*
X61300Y-26425D03*
X60300Y-26425D03*
X59300Y-26425D03*
X58300Y-26425D03*
X57300Y-26425D03*
X56300Y-26425D03*
X55300Y-26425D03*
X54300Y-26425D03*
X52300Y-26425D03*
X51300Y-26425D03*
X50300Y-26425D03*
X49300Y-26425D03*
X48300Y-26425D03*
X47300Y-26425D03*
X47300Y-45425D03*
X48300Y-45425D03*
G54D22*
X49300Y-45425D03*
G54D21*
X50300Y-45425D03*
X51300Y-45425D03*
X52300Y-45425D03*
X53300Y-45425D03*
X54300Y-45425D03*
X55800Y-45425D03*
X56800Y-45425D03*
X57800Y-45425D03*
X58800Y-45425D03*
X59800Y-45425D03*
X60800Y-45425D03*
X61800Y-45425D03*
X62800Y-45425D03*
X63800Y-45425D03*
X64800Y-45425D03*
G54D23*
X66401Y-45361D03*
X46370Y-39413D03*
X46370Y-28421D03*
X66755Y-26495D03*
G54D24*
X47327Y-36852D03*
X46327Y-36852D03*
X47327Y-35852D03*
X46327Y-35852D03*
X47327Y-34852D03*
X46327Y-34852D03*
G54D11*
X37236Y-22549D03*
M02*
