G04 (created by PCBNEW (2013-07-07 BZR 4022)-stable) date 15/12/2015 05:15:49 PM*
%MOIN*%
G04 Gerber Fmt 3.4, Leading zero omitted, Abs format*
%FSLAX34Y34*%
G01*
G70*
G90*
G04 APERTURE LIST*
%ADD10C,0.00590551*%
%ADD11C,0.015*%
G04 APERTURE END LIST*
G54D10*
G54D11*
X72181Y-54783D02*
X72181Y-54881D01*
X76807Y-54783D02*
X72181Y-54783D01*
X76807Y-54586D02*
X76807Y-54783D01*
X76807Y-16102D02*
X76019Y-16102D01*
X76807Y-54685D02*
X76807Y-16102D01*
X34287Y-16102D02*
X76413Y-16102D01*
X52003Y-59901D02*
X52003Y-59803D01*
X56433Y-59901D02*
X52003Y-59901D01*
X56433Y-56358D02*
X56433Y-59901D01*
X57122Y-56358D02*
X56433Y-56358D01*
X57122Y-59901D02*
X57122Y-56358D01*
X72181Y-59901D02*
X57122Y-59901D01*
X52003Y-59901D02*
X52003Y-59606D01*
X72181Y-54783D02*
X72181Y-59901D01*
X34287Y-58129D02*
X34287Y-16102D01*
X40192Y-58129D02*
X34287Y-58129D01*
X40192Y-54881D02*
X40192Y-58129D01*
X52003Y-54980D02*
X51905Y-54881D01*
X52003Y-55078D02*
X52003Y-54980D01*
X52003Y-59803D02*
X52003Y-55078D01*
X50527Y-57933D02*
X50527Y-54881D01*
X47377Y-57933D02*
X50527Y-57933D01*
X47377Y-54881D02*
X47377Y-57933D01*
X51917Y-54894D02*
G75*
G03X50527Y-54881I-700J-676D01*
G74*
G01*
X40192Y-54881D02*
X47377Y-54881D01*
M02*
