G04 (created by PCBNEW (2013-07-07 BZR 4022)-stable) date 15/12/2015 05:15:49 PM*
%MOIN*%
G04 Gerber Fmt 3.4, Leading zero omitted, Abs format*
%FSLAX34Y34*%
G01*
G70*
G90*
G04 APERTURE LIST*
%ADD10C,0.00590551*%
%ADD11C,0.2*%
%ADD12R,0.0256X0.1417*%
%ADD13R,0.0256X0.1811*%
%ADD14O,0.0256X0.0256*%
%ADD15R,0.06X0.06*%
%ADD16C,0.06*%
%ADD17C,0.056*%
%ADD18R,0.11811X0.0984252*%
%ADD19C,0.0610236*%
%ADD20C,0.0629921*%
%ADD21O,0.065X0.09*%
%ADD22O,0.06X0.09*%
%ADD23C,0.15748*%
%ADD24C,0.07*%
%ADD25C,0.024*%
%ADD26C,0.018*%
%ADD27C,0.008*%
%ADD28C,0.01*%
%ADD29C,0.024*%
%ADD30C,0.009*%
%ADD31C,0.012*%
%ADD32C,0.016*%
%ADD33C,0.005*%
G04 APERTURE END LIST*
G54D10*
G54D11*
X71304Y-21073D03*
G54D12*
X52276Y-58435D03*
G54D13*
X52670Y-58632D03*
X53063Y-58632D03*
X53457Y-58632D03*
X53851Y-58632D03*
X54244Y-58632D03*
X54638Y-58632D03*
X55032Y-58632D03*
X55425Y-58632D03*
X55819Y-58632D03*
X56213Y-58632D03*
X58181Y-58632D03*
X58575Y-58632D03*
X58969Y-58632D03*
X59362Y-58632D03*
X59756Y-58632D03*
X57394Y-58632D03*
X57788Y-58632D03*
G54D14*
X53457Y-59538D03*
X53851Y-59538D03*
X54244Y-59538D03*
X54638Y-59538D03*
X55032Y-59538D03*
X55425Y-59538D03*
X55819Y-59538D03*
X58181Y-59538D03*
X58575Y-59538D03*
X53063Y-59538D03*
X57788Y-59538D03*
X58969Y-59538D03*
X56213Y-59538D03*
X57394Y-59538D03*
X59362Y-59538D03*
X59756Y-59538D03*
X52670Y-59538D03*
G54D13*
X60150Y-58632D03*
X60543Y-58632D03*
X60937Y-58632D03*
X61331Y-58632D03*
X61724Y-58632D03*
X62118Y-58632D03*
X62512Y-58632D03*
X62906Y-58632D03*
X63299Y-58632D03*
X63693Y-58632D03*
X64087Y-58632D03*
X64480Y-58632D03*
X64874Y-58632D03*
X65268Y-58632D03*
X65661Y-58632D03*
X66055Y-58632D03*
X66449Y-58632D03*
X66843Y-58632D03*
X67236Y-58632D03*
X67630Y-58632D03*
X68024Y-58632D03*
X68417Y-58632D03*
X68811Y-58632D03*
X69205Y-58632D03*
X69598Y-58632D03*
X69992Y-58632D03*
X70386Y-58632D03*
X70780Y-58632D03*
X71173Y-58632D03*
X71567Y-58632D03*
X71961Y-58632D03*
G54D14*
X60150Y-59538D03*
X60543Y-59538D03*
X60937Y-59538D03*
X61331Y-59538D03*
X61724Y-59538D03*
X62118Y-59538D03*
X62512Y-59538D03*
X62906Y-59538D03*
X63299Y-59538D03*
X63693Y-59538D03*
X64087Y-59538D03*
X64480Y-59538D03*
X64874Y-59538D03*
X65268Y-59538D03*
X65661Y-59538D03*
X66055Y-59538D03*
X66449Y-59538D03*
X66843Y-59538D03*
X67236Y-59538D03*
X67630Y-59538D03*
X68024Y-59538D03*
X68417Y-59538D03*
X68811Y-59538D03*
X69205Y-59538D03*
X69598Y-59538D03*
X69992Y-59538D03*
X70386Y-59538D03*
X70780Y-59538D03*
X71173Y-59538D03*
X71567Y-59538D03*
X71961Y-59538D03*
G54D11*
X49295Y-24602D03*
X37236Y-56250D03*
G54D15*
X49600Y-53600D03*
G54D16*
X49600Y-52600D03*
X49600Y-51600D03*
X49600Y-50600D03*
X49600Y-49600D03*
X49600Y-48600D03*
G54D17*
X45900Y-52450D03*
X45900Y-50450D03*
G54D15*
X52000Y-51600D03*
G54D16*
X52000Y-50600D03*
G54D18*
X35057Y-49282D03*
X35057Y-52117D03*
G54D19*
X36189Y-49715D03*
G54D20*
X36189Y-51684D03*
G54D11*
X74838Y-52716D03*
G54D15*
X41600Y-21000D03*
G54D16*
X41600Y-20000D03*
X42600Y-21000D03*
X42600Y-20000D03*
X43600Y-21000D03*
X43600Y-20000D03*
X44600Y-21000D03*
X44600Y-20000D03*
X45600Y-21000D03*
X45600Y-20000D03*
X46600Y-21000D03*
X46600Y-20000D03*
G54D15*
X39200Y-46700D03*
G54D16*
X38200Y-46700D03*
X39200Y-45700D03*
X38200Y-45700D03*
X39200Y-44700D03*
X38200Y-44700D03*
X39200Y-43700D03*
X38200Y-43700D03*
X39200Y-42700D03*
X38200Y-42700D03*
X39200Y-41700D03*
X38200Y-41700D03*
G54D15*
X39200Y-38622D03*
G54D16*
X38200Y-38622D03*
X39200Y-37622D03*
X38200Y-37622D03*
X39200Y-36622D03*
X38200Y-36622D03*
X39200Y-35622D03*
X38200Y-35622D03*
X39200Y-34622D03*
X38200Y-34622D03*
X39200Y-33622D03*
X38200Y-33622D03*
G54D15*
X39200Y-30600D03*
G54D16*
X38200Y-30600D03*
X39200Y-29600D03*
X38200Y-29600D03*
X39200Y-28600D03*
X38200Y-28600D03*
X39200Y-27600D03*
X38200Y-27600D03*
X39200Y-26600D03*
X38200Y-26600D03*
X39200Y-25600D03*
X38200Y-25600D03*
G54D21*
X61300Y-26425D03*
X60300Y-26425D03*
X59300Y-26425D03*
X58300Y-26425D03*
X57300Y-26425D03*
X56300Y-26425D03*
X55300Y-26425D03*
X54300Y-26425D03*
X52300Y-26425D03*
X51300Y-26425D03*
X50300Y-26425D03*
X49300Y-26425D03*
X48300Y-26425D03*
X47300Y-26425D03*
X47300Y-45425D03*
X48300Y-45425D03*
G54D22*
X49300Y-45425D03*
G54D21*
X50300Y-45425D03*
X51300Y-45425D03*
X52300Y-45425D03*
X53300Y-45425D03*
X54300Y-45425D03*
X55800Y-45425D03*
X56800Y-45425D03*
X57800Y-45425D03*
X58800Y-45425D03*
X59800Y-45425D03*
X60800Y-45425D03*
X61800Y-45425D03*
X62800Y-45425D03*
X63800Y-45425D03*
X64800Y-45425D03*
G54D23*
X66401Y-45361D03*
X46370Y-39413D03*
X46370Y-28421D03*
X66755Y-26495D03*
G54D24*
X47327Y-36852D03*
X46327Y-36852D03*
X47327Y-35852D03*
X46327Y-35852D03*
X47327Y-34852D03*
X46327Y-34852D03*
G54D11*
X37236Y-22549D03*
G54D25*
X52689Y-57411D03*
X41638Y-43096D03*
X43100Y-49896D03*
X43089Y-50220D03*
X41286Y-43098D03*
X42990Y-50538D03*
X41028Y-43404D03*
X40692Y-43414D03*
X41523Y-51101D03*
X41517Y-50775D03*
X40383Y-43155D03*
X41556Y-50433D03*
X40092Y-43442D03*
X65323Y-57030D03*
X51738Y-46673D03*
X62572Y-56001D03*
X63750Y-55360D03*
G54D26*
X57675Y-56832D03*
X59199Y-56433D03*
X59771Y-56239D03*
G54D25*
X58457Y-56316D03*
X58452Y-57210D03*
G54D26*
X58110Y-55461D03*
X54080Y-42500D03*
G54D25*
X62000Y-56934D03*
G54D26*
X53200Y-43620D03*
G54D25*
X62638Y-57152D03*
G54D26*
X62957Y-56316D03*
G54D25*
X60654Y-57201D03*
X61086Y-56901D03*
G54D26*
X64875Y-55770D03*
G54D25*
X63816Y-57276D03*
G54D26*
X55460Y-55637D03*
X55460Y-54328D03*
X56874Y-54433D03*
G54D25*
X54690Y-56870D03*
X64901Y-57383D03*
X67511Y-56879D03*
X69104Y-57153D03*
G54D26*
X69156Y-54712D03*
X68392Y-54482D03*
X68358Y-55881D03*
G54D25*
X68140Y-57016D03*
X67916Y-57246D03*
X57273Y-47622D03*
X56307Y-47447D03*
X71876Y-57198D03*
X71853Y-56586D03*
X71028Y-57054D03*
X70274Y-57136D03*
X69680Y-57090D03*
X66919Y-56106D03*
X66915Y-56901D03*
X66471Y-55343D03*
X66423Y-56079D03*
X59760Y-57411D03*
X53469Y-57440D03*
G54D26*
X65500Y-18900D03*
X65500Y-17900D03*
X65500Y-17100D03*
X65500Y-16400D03*
X66300Y-16400D03*
X67500Y-16400D03*
X68600Y-16400D03*
X69500Y-16400D03*
X69500Y-17200D03*
X69500Y-18000D03*
X69500Y-18900D03*
X69200Y-19400D03*
X69200Y-18500D03*
X69200Y-17600D03*
X69200Y-16700D03*
X68100Y-16700D03*
X66600Y-16700D03*
X65800Y-16700D03*
X65800Y-17600D03*
X65800Y-18300D03*
G54D25*
X50835Y-45879D03*
X49800Y-45870D03*
X48806Y-45874D03*
X46935Y-45936D03*
X44256Y-46959D03*
X44763Y-47493D03*
X47778Y-45890D03*
X44824Y-48246D03*
X50820Y-42975D03*
X48645Y-42990D03*
X50910Y-41441D03*
X52779Y-41315D03*
X52842Y-39362D03*
X45390Y-40320D03*
X46650Y-40905D03*
X47580Y-40530D03*
X48900Y-39600D03*
X49185Y-38505D03*
X50745Y-38550D03*
X40230Y-46953D03*
X39815Y-40804D03*
X40158Y-39922D03*
X40158Y-39061D03*
X41490Y-35805D03*
X41475Y-35040D03*
X40830Y-32355D03*
X40170Y-31545D03*
X40612Y-27438D03*
X40722Y-23632D03*
X39283Y-22296D03*
X38506Y-21078D03*
X37897Y-19741D03*
X36720Y-18930D03*
X35220Y-18000D03*
X47592Y-48574D03*
X46269Y-48427D03*
X43395Y-48249D03*
X43371Y-47655D03*
X42378Y-46962D03*
X40359Y-52053D03*
X37658Y-50306D03*
X47596Y-50752D03*
X47598Y-52056D03*
X44202Y-52569D03*
X36794Y-51218D03*
X52426Y-22846D03*
X52806Y-22852D03*
X53406Y-22828D03*
X44405Y-47652D03*
X41932Y-41830D03*
X56256Y-55977D03*
X41908Y-48602D03*
X53598Y-56911D03*
X39912Y-49942D03*
X39829Y-52095D03*
X71301Y-57282D03*
X71585Y-57477D03*
X66566Y-23066D03*
X52875Y-53901D03*
X55830Y-57477D03*
X55434Y-56625D03*
X43272Y-52989D03*
X58305Y-25053D03*
X56335Y-46950D03*
X50915Y-51875D03*
X52720Y-52610D03*
X39516Y-50294D03*
X62676Y-46994D03*
X52884Y-31382D03*
X68303Y-23061D03*
X44253Y-50889D03*
X44001Y-48564D03*
X43085Y-50852D03*
X42801Y-48564D03*
G54D27*
X52670Y-59538D02*
X52670Y-57429D01*
X52670Y-57429D02*
X52689Y-57411D01*
G54D28*
X53079Y-59517D02*
X53079Y-58611D01*
G54D29*
X53079Y-58611D02*
X53079Y-57546D01*
X52944Y-57411D02*
X52689Y-57411D01*
X53079Y-57546D02*
X52944Y-57411D01*
X52686Y-57413D02*
X52689Y-57411D01*
X52686Y-58611D02*
X52686Y-57413D01*
G54D30*
X41635Y-43098D02*
X41635Y-43410D01*
X41638Y-43096D02*
X41635Y-43098D01*
X43100Y-49896D02*
X42837Y-49896D01*
X41635Y-48366D02*
X41635Y-43410D01*
X41635Y-48694D02*
X42074Y-49133D01*
X41635Y-48366D02*
X41635Y-48694D01*
X42837Y-49896D02*
X42074Y-49133D01*
X41465Y-48183D02*
X41465Y-48764D01*
X41465Y-48764D02*
X42920Y-50220D01*
X42920Y-50220D02*
X43089Y-50220D01*
X41465Y-48183D02*
X41465Y-43277D01*
X41465Y-43277D02*
X41286Y-43098D01*
X41295Y-48249D02*
X41295Y-48834D01*
X42990Y-50529D02*
X42990Y-50538D01*
X41295Y-48834D02*
X42990Y-50529D01*
X41295Y-48249D02*
X41295Y-43671D01*
X41295Y-43671D02*
X41028Y-43404D01*
X41978Y-50511D02*
X41978Y-49880D01*
X40692Y-43428D02*
X40692Y-43414D01*
X41124Y-43860D02*
X40692Y-43428D01*
X41124Y-49027D02*
X41124Y-43860D01*
X41978Y-49880D02*
X41124Y-49027D01*
X41523Y-51101D02*
X41595Y-51101D01*
X41978Y-50717D02*
X41978Y-50511D01*
X41595Y-51101D02*
X41978Y-50717D01*
X41808Y-50318D02*
X41808Y-49951D01*
X40383Y-43461D02*
X40383Y-43155D01*
X40954Y-44032D02*
X40383Y-43461D01*
X40954Y-49098D02*
X40954Y-44032D01*
X41808Y-49951D02*
X40954Y-49098D01*
X41808Y-50618D02*
X41651Y-50775D01*
X41808Y-50318D02*
X41808Y-50618D01*
X41517Y-50775D02*
X41651Y-50775D01*
X41556Y-50433D02*
X41556Y-49939D01*
X40123Y-43442D02*
X40092Y-43442D01*
X40784Y-44103D02*
X40123Y-43442D01*
X40784Y-49168D02*
X40784Y-44103D01*
X41556Y-49939D02*
X40784Y-49168D01*
G54D28*
X69992Y-59538D02*
X69992Y-58632D01*
G54D30*
X70008Y-43534D02*
X70008Y-34219D01*
X70008Y-43534D02*
X70008Y-58611D01*
X70008Y-34219D02*
X62214Y-26425D01*
X62214Y-26425D02*
X61300Y-26425D01*
X46638Y-37587D02*
X45857Y-37587D01*
X42113Y-29052D02*
X42113Y-21443D01*
X45296Y-32235D02*
X42113Y-29052D01*
X45296Y-37025D02*
X45296Y-32235D01*
X45857Y-37587D02*
X45296Y-37025D01*
X42600Y-20000D02*
X42600Y-20347D01*
X42113Y-21386D02*
X42113Y-21443D01*
X42600Y-20347D02*
X42113Y-20834D01*
X42113Y-20834D02*
X42113Y-21386D01*
X57800Y-41784D02*
X57800Y-45425D01*
X53602Y-37587D02*
X57800Y-41784D01*
X46638Y-37587D02*
X46661Y-37587D01*
X46661Y-37587D02*
X53602Y-37587D01*
G54D28*
X65268Y-59538D02*
X65268Y-58632D01*
G54D30*
X46327Y-35852D02*
X46343Y-35852D01*
X47116Y-37416D02*
X47116Y-37416D01*
X46815Y-37115D02*
X47116Y-37416D01*
X46815Y-36324D02*
X46815Y-37115D01*
X46343Y-35852D02*
X46815Y-36324D01*
X65323Y-57030D02*
X65323Y-58573D01*
X65323Y-58573D02*
X65284Y-58611D01*
X58800Y-42544D02*
X58800Y-45425D01*
X47116Y-37416D02*
X53671Y-37416D01*
X53671Y-37416D02*
X58800Y-42544D01*
X47327Y-36852D02*
X53348Y-36852D01*
X59800Y-43304D02*
X59800Y-45425D01*
X53348Y-36852D02*
X59800Y-43304D01*
X47327Y-35852D02*
X53822Y-35852D01*
X60800Y-42830D02*
X60800Y-45425D01*
X53822Y-35852D02*
X60800Y-42830D01*
X44600Y-20000D02*
X44600Y-20230D01*
X63800Y-41714D02*
X63800Y-45425D01*
X53160Y-31075D02*
X63800Y-41714D01*
X46840Y-31075D02*
X53160Y-31075D01*
X44155Y-28390D02*
X46840Y-31075D01*
X44155Y-20675D02*
X44155Y-28390D01*
X44600Y-20230D02*
X44155Y-20675D01*
X44600Y-21000D02*
X44600Y-28580D01*
X64800Y-42474D02*
X64800Y-45425D01*
X53231Y-30905D02*
X64800Y-42474D01*
X46925Y-30905D02*
X53231Y-30905D01*
X44600Y-28580D02*
X46925Y-30905D01*
G54D27*
X60150Y-59538D02*
X60150Y-58632D01*
G54D30*
X60166Y-55276D02*
X51738Y-46848D01*
X51738Y-46848D02*
X51738Y-46673D01*
X60166Y-58611D02*
X60166Y-55276D01*
X53300Y-46700D02*
X62572Y-55972D01*
X62572Y-55972D02*
X62572Y-56001D01*
X53300Y-45425D02*
X53300Y-46700D01*
X44950Y-32649D02*
X44950Y-32370D01*
X44950Y-32370D02*
X41772Y-29193D01*
X41772Y-22104D02*
X40963Y-21295D01*
X41772Y-29193D02*
X41772Y-22104D01*
X46842Y-37927D02*
X45717Y-37927D01*
X44950Y-37160D02*
X44950Y-32649D01*
X45717Y-37927D02*
X44950Y-37160D01*
X55800Y-47410D02*
X63750Y-55360D01*
X55800Y-47410D02*
X55800Y-45425D01*
X41600Y-20000D02*
X41201Y-20000D01*
X40963Y-20238D02*
X40963Y-21295D01*
X41201Y-20000D02*
X40963Y-20238D01*
X55800Y-40265D02*
X55800Y-45425D01*
X53461Y-37927D02*
X55800Y-40265D01*
X46842Y-37927D02*
X53461Y-37927D01*
X45120Y-32470D02*
X45120Y-32300D01*
X45120Y-32300D02*
X41942Y-29123D01*
X41942Y-21342D02*
X41600Y-21000D01*
X41942Y-29123D02*
X41942Y-21342D01*
X46710Y-37757D02*
X45787Y-37757D01*
X45120Y-37089D02*
X45120Y-32470D01*
X45787Y-37757D02*
X45120Y-37089D01*
X56800Y-41025D02*
X56800Y-45425D01*
X53531Y-37757D02*
X56800Y-41025D01*
X46710Y-37757D02*
X53531Y-37757D01*
X57394Y-58632D02*
X57394Y-57112D01*
X57394Y-57112D02*
X57675Y-56832D01*
X59771Y-56239D02*
X59393Y-56239D01*
X59393Y-56239D02*
X59199Y-56433D01*
X59771Y-56239D02*
X59772Y-56239D01*
X58457Y-56316D02*
X58457Y-55808D01*
G54D31*
X58591Y-57654D02*
X58591Y-57349D01*
X58591Y-57349D02*
X58452Y-57210D01*
G54D30*
X58457Y-55808D02*
X58110Y-55461D01*
G54D28*
X54080Y-42500D02*
X53440Y-42500D01*
X53200Y-42740D02*
X53200Y-43620D01*
X53440Y-42500D02*
X53200Y-42740D01*
G54D27*
X57394Y-59538D02*
X57394Y-58632D01*
X58575Y-59538D02*
X58575Y-58632D01*
X71961Y-58632D02*
X71961Y-59538D01*
X58591Y-57654D02*
X58591Y-58616D01*
X58591Y-58616D02*
X58575Y-58632D01*
X62957Y-56316D02*
X63816Y-57175D01*
X63816Y-57175D02*
X63816Y-57276D01*
X62118Y-58632D02*
X62118Y-59538D01*
X62134Y-57536D02*
X62134Y-58616D01*
X62134Y-58616D02*
X62118Y-58632D01*
X61724Y-58632D02*
X61724Y-59538D01*
X61740Y-57500D02*
X61740Y-58616D01*
X61740Y-58616D02*
X61724Y-58632D01*
G54D31*
X60559Y-57295D02*
X60654Y-57201D01*
X60559Y-57295D02*
X60559Y-58611D01*
G54D27*
X53457Y-59538D02*
X53457Y-58632D01*
X63299Y-58632D02*
X63299Y-57525D01*
X63549Y-57276D02*
X63816Y-57276D01*
X63299Y-57525D02*
X63549Y-57276D01*
X63693Y-58632D02*
X63693Y-57398D01*
X63693Y-57398D02*
X63816Y-57276D01*
X63693Y-59538D02*
X63693Y-58632D01*
X66423Y-56079D02*
X66199Y-56079D01*
X65890Y-55770D02*
X64875Y-55770D01*
X66199Y-56079D02*
X65890Y-55770D01*
X54690Y-56870D02*
X54690Y-56407D01*
X54690Y-56407D02*
X55460Y-55637D01*
X55460Y-54328D02*
X55565Y-54433D01*
X55565Y-54433D02*
X56874Y-54433D01*
X66055Y-59538D02*
X66055Y-58632D01*
X67236Y-58632D02*
X67236Y-57153D01*
X67511Y-56879D02*
X66937Y-56879D01*
X66937Y-56879D02*
X66915Y-56901D01*
G54D31*
X67646Y-58611D02*
X67646Y-57014D01*
X67646Y-57014D02*
X67511Y-56879D01*
G54D27*
X67236Y-57153D02*
X67511Y-56879D01*
X66055Y-58632D02*
X66055Y-57012D01*
X66055Y-57012D02*
X65692Y-56649D01*
X65692Y-56649D02*
X65180Y-56649D01*
X65180Y-56649D02*
X64901Y-56928D01*
X64901Y-56928D02*
X64901Y-57383D01*
G54D31*
X64890Y-57393D02*
X64901Y-57383D01*
X64890Y-57393D02*
X64890Y-58611D01*
G54D27*
X68811Y-58632D02*
X68811Y-57445D01*
G54D31*
X69221Y-57270D02*
X69104Y-57153D01*
X69221Y-58611D02*
X69221Y-57270D01*
G54D27*
X69104Y-54764D02*
X69156Y-54712D01*
X68392Y-54482D02*
X68358Y-54516D01*
X68358Y-54516D02*
X68358Y-55881D01*
X69104Y-57153D02*
X69104Y-54764D01*
X68811Y-57445D02*
X69104Y-57153D01*
X67916Y-57246D02*
X67916Y-57240D01*
X67916Y-57240D02*
X68140Y-57016D01*
X68811Y-59538D02*
X68811Y-58632D01*
X69205Y-59538D02*
X69205Y-58632D01*
G54D28*
X59756Y-59538D02*
X59756Y-58632D01*
X59756Y-58632D02*
X59756Y-58632D01*
X60543Y-59538D02*
X60543Y-58632D01*
X63299Y-59538D02*
X63299Y-58632D01*
X64874Y-59538D02*
X64874Y-58632D01*
X67236Y-59538D02*
X67236Y-58632D01*
X67630Y-59538D02*
X67630Y-58632D01*
X70386Y-59538D02*
X70386Y-58632D01*
X70780Y-59538D02*
X70780Y-58632D01*
X61740Y-58611D02*
X61740Y-57500D01*
X61740Y-57500D02*
X61740Y-57193D01*
G54D31*
X62134Y-57068D02*
X62000Y-56934D01*
X62134Y-57068D02*
X62134Y-57536D01*
X62134Y-57536D02*
X62134Y-58611D01*
G54D28*
X61740Y-57193D02*
X62000Y-56934D01*
G54D30*
X57273Y-47622D02*
X57098Y-47447D01*
X57098Y-47447D02*
X56307Y-47447D01*
X71977Y-58611D02*
X71977Y-57299D01*
X71977Y-57299D02*
X71876Y-57198D01*
X71028Y-57054D02*
X70356Y-57054D01*
X70356Y-57054D02*
X70274Y-57136D01*
X70796Y-58611D02*
X70796Y-57285D01*
X70796Y-57285D02*
X71028Y-57054D01*
X70796Y-58611D02*
X70796Y-57658D01*
X70796Y-57658D02*
X70274Y-57136D01*
X70402Y-58611D02*
X70402Y-57264D01*
X70402Y-57264D02*
X70274Y-57136D01*
G54D31*
X66915Y-56901D02*
X66915Y-56110D01*
X66915Y-56110D02*
X66919Y-56106D01*
X66423Y-56079D02*
X66471Y-56031D01*
X66471Y-56031D02*
X66471Y-55343D01*
X58591Y-58611D02*
X58591Y-57654D01*
X59772Y-57423D02*
X59760Y-57411D01*
X59772Y-58611D02*
X59772Y-57423D01*
X53469Y-57440D02*
X53469Y-58607D01*
X53469Y-58607D02*
X53473Y-58611D01*
G54D30*
X65500Y-17900D02*
X65500Y-18900D01*
X65500Y-16400D02*
X65500Y-17100D01*
X67500Y-16400D02*
X66300Y-16400D01*
X69500Y-16400D02*
X68600Y-16400D01*
X69500Y-18000D02*
X69500Y-17200D01*
X69500Y-19100D02*
X69500Y-18900D01*
X69200Y-19400D02*
X69500Y-19100D01*
X69200Y-17600D02*
X69200Y-18500D01*
X68100Y-16700D02*
X69200Y-16700D01*
X65800Y-16700D02*
X66600Y-16700D01*
X65800Y-18300D02*
X65800Y-17600D01*
X49874Y-45870D02*
X50034Y-46029D01*
X50034Y-46029D02*
X50684Y-46029D01*
X50684Y-46029D02*
X50835Y-45879D01*
X49800Y-45870D02*
X49874Y-45870D01*
X48806Y-45874D02*
X48888Y-45874D01*
X49640Y-46029D02*
X49800Y-45870D01*
X49044Y-46029D02*
X49640Y-46029D01*
X48888Y-45874D02*
X49044Y-46029D01*
X47778Y-45890D02*
X47936Y-45890D01*
X48650Y-46029D02*
X48806Y-45874D01*
X48075Y-46029D02*
X48650Y-46029D01*
X47936Y-45890D02*
X48075Y-46029D01*
X46935Y-45936D02*
X47034Y-45936D01*
X44256Y-46959D02*
X44256Y-46986D01*
X44256Y-46986D02*
X44763Y-47493D01*
X47638Y-46029D02*
X47778Y-45890D01*
X47128Y-46029D02*
X47638Y-46029D01*
X47034Y-45936D02*
X47128Y-46029D01*
X43395Y-48249D02*
X44821Y-48249D01*
X44821Y-48249D02*
X44824Y-48246D01*
X50910Y-41441D02*
X50910Y-42885D01*
X50910Y-42885D02*
X50820Y-42975D01*
X48900Y-39600D02*
X49069Y-39600D01*
X49069Y-39600D02*
X50910Y-41441D01*
X52779Y-41315D02*
X52842Y-41252D01*
X52842Y-41252D02*
X52842Y-39362D01*
X45390Y-40320D02*
X45975Y-40905D01*
X45975Y-40905D02*
X46650Y-40905D01*
X47580Y-40530D02*
X48510Y-39600D01*
X48510Y-39600D02*
X48900Y-39600D01*
X49185Y-38505D02*
X49230Y-38550D01*
X49230Y-38550D02*
X50745Y-38550D01*
X40230Y-46953D02*
X39740Y-46463D01*
X39740Y-46463D02*
X39740Y-40879D01*
X39740Y-40879D02*
X39815Y-40804D01*
X40158Y-39922D02*
X40158Y-39061D01*
X41490Y-35805D02*
X41475Y-35790D01*
X41475Y-35790D02*
X41475Y-35040D01*
X40830Y-32355D02*
X40170Y-31695D01*
X40170Y-31695D02*
X40170Y-31545D01*
X40612Y-27438D02*
X40722Y-27328D01*
X40722Y-27328D02*
X40722Y-23632D01*
X39283Y-22296D02*
X38506Y-21519D01*
X38506Y-21519D02*
X38506Y-21078D01*
X37897Y-19741D02*
X37086Y-18930D01*
X37086Y-18930D02*
X36720Y-18930D01*
X47596Y-50752D02*
X47596Y-48578D01*
X47596Y-48578D02*
X47592Y-48574D01*
X46269Y-48427D02*
X46088Y-48246D01*
X46088Y-48246D02*
X43398Y-48246D01*
X43398Y-48246D02*
X43395Y-48249D01*
X43371Y-47655D02*
X42678Y-46962D01*
X42678Y-46962D02*
X42378Y-46962D01*
G54D27*
X54260Y-57540D02*
X54260Y-58616D01*
X54260Y-58616D02*
X54244Y-58632D01*
X54244Y-59538D02*
X54244Y-58632D01*
G54D30*
X54037Y-51954D02*
X54037Y-50859D01*
X50751Y-47573D02*
X49772Y-47573D01*
X54037Y-50859D02*
X50751Y-47573D01*
X54260Y-58611D02*
X54260Y-57540D01*
X54260Y-57540D02*
X54260Y-57425D01*
X54037Y-57203D02*
X54037Y-51954D01*
X54260Y-57425D02*
X54037Y-57203D01*
X38200Y-38622D02*
X38200Y-38320D01*
X43234Y-45274D02*
X45534Y-47573D01*
X45534Y-47573D02*
X49772Y-47573D01*
X38435Y-38085D02*
X40105Y-38085D01*
X40105Y-38085D02*
X42380Y-40359D01*
X42380Y-40359D02*
X42380Y-44420D01*
X42380Y-44420D02*
X43234Y-45274D01*
X38200Y-38320D02*
X38435Y-38085D01*
G54D28*
X53851Y-59538D02*
X53851Y-58632D01*
G54D30*
X53867Y-51986D02*
X53867Y-50930D01*
X50681Y-47744D02*
X49634Y-47744D01*
X53867Y-50930D02*
X50681Y-47744D01*
X39200Y-38622D02*
X40402Y-38622D01*
X45430Y-47744D02*
X49634Y-47744D01*
X40402Y-38622D02*
X42210Y-40430D01*
X42210Y-40430D02*
X42210Y-44524D01*
X42210Y-44524D02*
X45430Y-47744D01*
X53867Y-51986D02*
X53867Y-58611D01*
G54D27*
X55032Y-59538D02*
X55032Y-58632D01*
G54D30*
X49769Y-47233D02*
X50892Y-47233D01*
X55048Y-57633D02*
X55048Y-58611D01*
X54377Y-56962D02*
X55048Y-57633D01*
X54377Y-50718D02*
X54377Y-56962D01*
X50892Y-47233D02*
X54377Y-50718D01*
X38200Y-37622D02*
X38200Y-37400D01*
X38200Y-37400D02*
X38500Y-37100D01*
X42720Y-44279D02*
X43670Y-45229D01*
X42720Y-40218D02*
X42720Y-44279D01*
X39601Y-37100D02*
X42720Y-40218D01*
X38500Y-37100D02*
X39601Y-37100D01*
X45674Y-47233D02*
X49769Y-47233D01*
X43670Y-45229D02*
X45674Y-47233D01*
G54D28*
X54638Y-59538D02*
X54638Y-58632D01*
G54D30*
X49780Y-47403D02*
X50821Y-47403D01*
X54207Y-50789D02*
X54207Y-51845D01*
X50821Y-47403D02*
X54207Y-50789D01*
X54654Y-58611D02*
X54654Y-57545D01*
X54654Y-57545D02*
X54207Y-57099D01*
X54207Y-57099D02*
X54207Y-51845D01*
X39200Y-37622D02*
X39882Y-37622D01*
X43514Y-45313D02*
X45604Y-47403D01*
X45604Y-47403D02*
X49780Y-47403D01*
X39882Y-37622D02*
X42550Y-40289D01*
X42550Y-40289D02*
X42550Y-44349D01*
X42550Y-44349D02*
X43514Y-45313D01*
X58181Y-58632D02*
X58181Y-56396D01*
X57846Y-56061D02*
X57846Y-53706D01*
X58181Y-56396D02*
X57846Y-56061D01*
G54D27*
X58181Y-59538D02*
X58181Y-58632D01*
G54D30*
X49839Y-46879D02*
X51019Y-46879D01*
X43913Y-44992D02*
X45801Y-46879D01*
X45801Y-46879D02*
X49839Y-46879D01*
X43060Y-44138D02*
X43913Y-44992D01*
X43060Y-39595D02*
X43060Y-44138D01*
X39524Y-36060D02*
X43060Y-39595D01*
X51019Y-46879D02*
X57846Y-53706D01*
X38200Y-36622D02*
X38200Y-36290D01*
X38200Y-36290D02*
X38430Y-36060D01*
X38430Y-36060D02*
X39524Y-36060D01*
X38430Y-36060D02*
X39524Y-36060D01*
X38200Y-36290D02*
X38430Y-36060D01*
G54D28*
X57788Y-58632D02*
X57788Y-57575D01*
X57972Y-56435D02*
X57647Y-56110D01*
X57972Y-57392D02*
X57972Y-56435D01*
X57788Y-57575D02*
X57972Y-57392D01*
G54D27*
X57788Y-59538D02*
X57788Y-58632D01*
G54D30*
X49870Y-47050D02*
X50948Y-47050D01*
X57647Y-53748D02*
X57647Y-56110D01*
X50948Y-47050D02*
X57647Y-53748D01*
X39200Y-36622D02*
X39845Y-36622D01*
X39845Y-36622D02*
X42890Y-39666D01*
X42890Y-44208D02*
X44041Y-45359D01*
X42890Y-39666D02*
X42890Y-44208D01*
X45731Y-47050D02*
X49870Y-47050D01*
X44041Y-45359D02*
X45731Y-47050D01*
X59362Y-58632D02*
X59362Y-57410D01*
X58919Y-54299D02*
X58803Y-54183D01*
X58919Y-56967D02*
X58919Y-54299D01*
X59362Y-57410D02*
X58919Y-56967D01*
G54D27*
X59362Y-59538D02*
X59362Y-58632D01*
X59378Y-57561D02*
X59378Y-58616D01*
X59378Y-58616D02*
X59362Y-58632D01*
G54D30*
X49668Y-46539D02*
X51159Y-46539D01*
X51159Y-46539D02*
X58803Y-54183D01*
X38200Y-35622D02*
X38200Y-35250D01*
X43400Y-43997D02*
X44597Y-45195D01*
X43400Y-39072D02*
X43400Y-43997D01*
X39440Y-35112D02*
X43400Y-39072D01*
X38338Y-35112D02*
X39440Y-35112D01*
X38200Y-35250D02*
X38338Y-35112D01*
X45942Y-46539D02*
X49668Y-46539D01*
X44597Y-45195D02*
X45942Y-46539D01*
X59378Y-57561D02*
X59378Y-58611D01*
X58969Y-58632D02*
X58969Y-57261D01*
X58749Y-54369D02*
X58631Y-54251D01*
X58749Y-57041D02*
X58749Y-54369D01*
X58969Y-57261D02*
X58749Y-57041D01*
G54D27*
X58969Y-59538D02*
X58969Y-58632D01*
G54D30*
X50118Y-46709D02*
X51089Y-46709D01*
X51089Y-46709D02*
X58631Y-54251D01*
X39200Y-35622D02*
X39449Y-35622D01*
X43230Y-44067D02*
X44165Y-45002D01*
X43230Y-39403D02*
X43230Y-44067D01*
X39449Y-35622D02*
X43230Y-39403D01*
X45872Y-46709D02*
X50118Y-46709D01*
X44165Y-45002D02*
X45872Y-46709D01*
G54D27*
X61347Y-57540D02*
X61347Y-58616D01*
X61347Y-58616D02*
X61331Y-58632D01*
X61331Y-59538D02*
X61331Y-58632D01*
X61347Y-57653D02*
X61347Y-58616D01*
X61347Y-58616D02*
X61331Y-58632D01*
G54D30*
X61347Y-58611D02*
X61347Y-57653D01*
X61347Y-57653D02*
X61347Y-57540D01*
X61347Y-57540D02*
X61347Y-55637D01*
X51909Y-46199D02*
X50316Y-46199D01*
X61347Y-55637D02*
X51909Y-46199D01*
X38200Y-30600D02*
X38200Y-30305D01*
X38200Y-30305D02*
X38415Y-30090D01*
X38415Y-30090D02*
X39722Y-30090D01*
X39722Y-30090D02*
X43740Y-34108D01*
X44618Y-44735D02*
X46083Y-46199D01*
X46083Y-46199D02*
X50316Y-46199D01*
X43740Y-43856D02*
X44618Y-44735D01*
X43740Y-34108D02*
X43740Y-43856D01*
X38415Y-30090D02*
X39722Y-30090D01*
X38200Y-30305D02*
X38415Y-30090D01*
G54D28*
X60937Y-59538D02*
X60937Y-58632D01*
G54D30*
X43570Y-36576D02*
X43570Y-34178D01*
X39991Y-30600D02*
X39200Y-30600D01*
X43570Y-34178D02*
X39991Y-30600D01*
X60953Y-58611D02*
X60953Y-57140D01*
X60719Y-56271D02*
X60720Y-56271D01*
X60719Y-56906D02*
X60719Y-56271D01*
X60953Y-57140D02*
X60719Y-56906D01*
X60720Y-55250D02*
X60463Y-54994D01*
X60720Y-56271D02*
X60720Y-55250D01*
X51839Y-46369D02*
X49659Y-46369D01*
X60463Y-54994D02*
X51839Y-46369D01*
X46012Y-46369D02*
X49659Y-46369D01*
X44626Y-44983D02*
X46012Y-46369D01*
X43570Y-36576D02*
X43570Y-43927D01*
X43570Y-43927D02*
X44626Y-44983D01*
G54D28*
X62906Y-59538D02*
X62906Y-58632D01*
G54D30*
X52793Y-44930D02*
X52793Y-46602D01*
X62922Y-56731D02*
X62922Y-58611D01*
X52793Y-46602D02*
X62922Y-56731D01*
X51316Y-44589D02*
X52637Y-44589D01*
X52793Y-44745D02*
X52793Y-44930D01*
X52637Y-44589D02*
X52793Y-44745D01*
X38200Y-29600D02*
X38200Y-29240D01*
X45085Y-44589D02*
X51316Y-44589D01*
X44080Y-43584D02*
X45085Y-44589D01*
X44080Y-33777D02*
X44080Y-43584D01*
X39423Y-29120D02*
X44080Y-33777D01*
X38320Y-29120D02*
X39423Y-29120D01*
X38200Y-29240D02*
X38320Y-29120D01*
G54D28*
X62512Y-59538D02*
X62512Y-58632D01*
G54D30*
X62528Y-58611D02*
X62528Y-57503D01*
X62358Y-56408D02*
X61918Y-55968D01*
X62358Y-57333D02*
X62358Y-56408D01*
X62528Y-57503D02*
X62358Y-57333D01*
X51798Y-45170D02*
X51798Y-45848D01*
X51798Y-45170D02*
X51798Y-45063D01*
X51798Y-45063D02*
X51495Y-44760D01*
X51798Y-45848D02*
X61918Y-55968D01*
X51495Y-44760D02*
X45015Y-44760D01*
X45015Y-44760D02*
X43910Y-43655D01*
X43910Y-43655D02*
X43910Y-34030D01*
X43910Y-34030D02*
X39480Y-29600D01*
X39480Y-29600D02*
X39200Y-29600D01*
X39200Y-29600D02*
X39472Y-29600D01*
X45015Y-44760D02*
X51495Y-44760D01*
X43910Y-43655D02*
X45015Y-44760D01*
X43910Y-34037D02*
X43910Y-43655D01*
X39472Y-29600D02*
X43910Y-34037D01*
G54D27*
X64480Y-58632D02*
X64480Y-57753D01*
X64496Y-57737D02*
X64480Y-58632D01*
X64480Y-57753D02*
X64496Y-57737D01*
X64480Y-59538D02*
X64480Y-58632D01*
X64496Y-57432D02*
X64496Y-58616D01*
X64496Y-58616D02*
X64480Y-58632D01*
G54D30*
X38200Y-28600D02*
X38200Y-28270D01*
X64496Y-57110D02*
X64496Y-57432D01*
X64496Y-57432D02*
X64496Y-58611D01*
X54788Y-47401D02*
X64496Y-57110D01*
X54788Y-45074D02*
X54788Y-47401D01*
X53963Y-44249D02*
X54788Y-45074D01*
X45272Y-44249D02*
X53963Y-44249D01*
X44428Y-43405D02*
X45272Y-44249D01*
X44428Y-33098D02*
X44428Y-43405D01*
X39420Y-28090D02*
X44428Y-33098D01*
X38380Y-28090D02*
X39420Y-28090D01*
X38200Y-28270D02*
X38380Y-28090D01*
G54D27*
X64087Y-58632D02*
X64087Y-59538D01*
X64103Y-57509D02*
X64103Y-58616D01*
X64103Y-58616D02*
X64087Y-58632D01*
G54D30*
X39200Y-28600D02*
X39390Y-28600D01*
X64103Y-56957D02*
X64103Y-57509D01*
X64103Y-57509D02*
X64103Y-58611D01*
X53800Y-46654D02*
X64103Y-56957D01*
X53800Y-45140D02*
X53800Y-46654D01*
X53079Y-44419D02*
X53800Y-45140D01*
X45179Y-44419D02*
X53079Y-44419D01*
X44250Y-43490D02*
X45179Y-44419D01*
X44250Y-33460D02*
X44250Y-43490D01*
X39390Y-28600D02*
X44250Y-33460D01*
G54D28*
X66843Y-59538D02*
X66843Y-58632D01*
G54D30*
X38200Y-27600D02*
X38200Y-27201D01*
X66859Y-57199D02*
X66859Y-58611D01*
X65812Y-56152D02*
X66859Y-57199D01*
X64163Y-56152D02*
X65812Y-56152D01*
X55128Y-47117D02*
X64163Y-56152D01*
X55128Y-44933D02*
X55128Y-47117D01*
X54104Y-43909D02*
X55128Y-44933D01*
X45420Y-43909D02*
X54104Y-43909D01*
X44780Y-43269D02*
X45420Y-43909D01*
X44780Y-32441D02*
X44780Y-43269D01*
X39444Y-27105D02*
X44780Y-32441D01*
X38296Y-27105D02*
X39444Y-27105D01*
X38200Y-27201D02*
X38296Y-27105D01*
G54D28*
X66449Y-59538D02*
X66449Y-58632D01*
G54D30*
X66465Y-58611D02*
X66465Y-57045D01*
X65742Y-56323D02*
X65217Y-56323D01*
X66465Y-57045D02*
X65742Y-56323D01*
X54958Y-45100D02*
X54958Y-47188D01*
X39358Y-27600D02*
X44610Y-32852D01*
X44610Y-32852D02*
X44610Y-43347D01*
X44610Y-43347D02*
X45342Y-44079D01*
X45342Y-44079D02*
X54034Y-44079D01*
X54034Y-44079D02*
X54958Y-45003D01*
X54958Y-45003D02*
X54958Y-45100D01*
X39200Y-27600D02*
X39358Y-27600D01*
X54958Y-47188D02*
X64093Y-56323D01*
X64093Y-56323D02*
X65217Y-56323D01*
G54D29*
X68024Y-59538D02*
X68024Y-58632D01*
G54D30*
X53224Y-25040D02*
X53224Y-23644D01*
X53224Y-23644D02*
X52426Y-22846D01*
X53224Y-26358D02*
X53224Y-25040D01*
X68040Y-57688D02*
X68040Y-57483D01*
X68739Y-42920D02*
X67254Y-41434D01*
X68739Y-56784D02*
X68739Y-42920D01*
X68040Y-57483D02*
X68739Y-56784D01*
X53224Y-27405D02*
X67254Y-41434D01*
X53224Y-26358D02*
X53224Y-27405D01*
X68040Y-57688D02*
X68040Y-58611D01*
G54D27*
X68417Y-59538D02*
X68417Y-58632D01*
G54D30*
X53394Y-25023D02*
X53394Y-23440D01*
X53394Y-23440D02*
X52806Y-22852D01*
X53394Y-26436D02*
X53394Y-25023D01*
X68433Y-57695D02*
X68433Y-57398D01*
X68910Y-42850D02*
X68090Y-42030D01*
X68910Y-56922D02*
X68910Y-42850D01*
X68433Y-57398D02*
X68910Y-56922D01*
X53394Y-27335D02*
X68090Y-42030D01*
X53394Y-26436D02*
X53394Y-27335D01*
X68433Y-57695D02*
X68433Y-58611D01*
G54D28*
X69598Y-59538D02*
X69598Y-58632D01*
G54D30*
X53565Y-24992D02*
X53565Y-22987D01*
X53565Y-22987D02*
X53406Y-22828D01*
X53565Y-26260D02*
X53565Y-24992D01*
X69614Y-58611D02*
X69614Y-57402D01*
X69383Y-43083D02*
X68648Y-42348D01*
X69383Y-57170D02*
X69383Y-43083D01*
X69614Y-57402D02*
X69383Y-57170D01*
X53565Y-27265D02*
X68648Y-42348D01*
X53565Y-26260D02*
X53565Y-27265D01*
G54D27*
X56229Y-57414D02*
X56229Y-58616D01*
X56229Y-58616D02*
X56213Y-58632D01*
X56213Y-59538D02*
X56213Y-58632D01*
G54D30*
X44405Y-47652D02*
X44405Y-47557D01*
X44405Y-47557D02*
X44184Y-47336D01*
X41956Y-43624D02*
X41956Y-41854D01*
X41956Y-41854D02*
X41932Y-41830D01*
X56229Y-56240D02*
X56229Y-56003D01*
X56229Y-56003D02*
X56256Y-55977D01*
X56229Y-58611D02*
X56229Y-57414D01*
X56229Y-57414D02*
X56229Y-56240D01*
X41956Y-45108D02*
X41956Y-43624D01*
X44184Y-47336D02*
X41956Y-45108D01*
X49076Y-47914D02*
X50610Y-47914D01*
X53697Y-56811D02*
X53598Y-56911D01*
X53697Y-51000D02*
X53697Y-56811D01*
X50610Y-47914D02*
X53697Y-51000D01*
X42595Y-47914D02*
X41908Y-48602D01*
X49076Y-47914D02*
X42595Y-47914D01*
X39912Y-52012D02*
X39912Y-49942D01*
X39829Y-52095D02*
X39912Y-52012D01*
G54D28*
X71173Y-59538D02*
X71173Y-58632D01*
G54D30*
X71189Y-58611D02*
X71189Y-57393D01*
X71189Y-57393D02*
X71301Y-57282D01*
G54D27*
X71567Y-59538D02*
X71567Y-58632D01*
G54D30*
X71583Y-57478D02*
X71583Y-58611D01*
X71585Y-57477D02*
X71583Y-57478D01*
G54D29*
X58630Y-17820D02*
X62475Y-17820D01*
X62475Y-17820D02*
X66566Y-21911D01*
X43651Y-54336D02*
X39767Y-54336D01*
X38115Y-52684D02*
X38115Y-51926D01*
X39767Y-54336D02*
X38115Y-52684D01*
X35520Y-46395D02*
X35520Y-47190D01*
X35520Y-45255D02*
X35520Y-19400D01*
X35520Y-19400D02*
X37100Y-17820D01*
X37100Y-17820D02*
X54060Y-17820D01*
X35520Y-46395D02*
X35520Y-45255D01*
X35520Y-47190D02*
X38115Y-49785D01*
X38115Y-49785D02*
X38115Y-51926D01*
X44320Y-54336D02*
X43651Y-54336D01*
X44320Y-54336D02*
X52440Y-54336D01*
X52440Y-54336D02*
X52875Y-53901D01*
X54060Y-17820D02*
X54095Y-17820D01*
X54095Y-17820D02*
X54300Y-18025D01*
X54300Y-26425D02*
X54300Y-18025D01*
X54300Y-18025D02*
X54505Y-17820D01*
X66566Y-21911D02*
X66566Y-23066D01*
X54060Y-17820D02*
X54505Y-17820D01*
X54505Y-17820D02*
X58630Y-17820D01*
X52875Y-53901D02*
X52875Y-53904D01*
X37253Y-25779D02*
X37253Y-25047D01*
X40050Y-22250D02*
X40050Y-19650D01*
X37253Y-25047D02*
X40050Y-22250D01*
X40050Y-19650D02*
X40550Y-19150D01*
X46352Y-19150D02*
X46378Y-19150D01*
X46378Y-19150D02*
X46610Y-19382D01*
X46610Y-19382D02*
X46610Y-19990D01*
X46610Y-19990D02*
X46600Y-20000D01*
X45804Y-19150D02*
X46352Y-19150D01*
X45804Y-19150D02*
X41470Y-19150D01*
X41470Y-19150D02*
X40550Y-19150D01*
G54D27*
X55819Y-59538D02*
X55819Y-58632D01*
X55425Y-59538D02*
X55425Y-58632D01*
G54D32*
X55425Y-58632D02*
X55425Y-56633D01*
X55425Y-56633D02*
X55434Y-56625D01*
X55819Y-58632D02*
X55819Y-57498D01*
X55819Y-57498D02*
X55835Y-57482D01*
X55835Y-57482D02*
X55835Y-57605D01*
G54D28*
X55441Y-59517D02*
X55441Y-58611D01*
X55441Y-58611D02*
X55441Y-56632D01*
X55441Y-56632D02*
X55434Y-56625D01*
X55835Y-58611D02*
X55835Y-57605D01*
X55835Y-57605D02*
X55835Y-57482D01*
X55835Y-57482D02*
X55830Y-57477D01*
G54D29*
X55441Y-57249D02*
X55441Y-57323D01*
X55441Y-57323D02*
X55595Y-57477D01*
X55830Y-57477D02*
X55595Y-57477D01*
X55595Y-57477D02*
X55441Y-57630D01*
X55441Y-58611D02*
X55441Y-57630D01*
X55441Y-57630D02*
X55441Y-57249D01*
X55441Y-57249D02*
X55441Y-56632D01*
X55441Y-56632D02*
X55434Y-56625D01*
G54D32*
X43595Y-53922D02*
X43408Y-53922D01*
X43408Y-53922D02*
X43272Y-53786D01*
X43272Y-52989D02*
X43272Y-53786D01*
X43272Y-53786D02*
X43136Y-53922D01*
G54D29*
X58300Y-26425D02*
X58300Y-25058D01*
X58300Y-25058D02*
X58305Y-25053D01*
X56379Y-46994D02*
X62676Y-46994D01*
X56335Y-46950D02*
X56379Y-46994D01*
G54D32*
X51116Y-52600D02*
X51080Y-52600D01*
X51080Y-52600D02*
X50915Y-52435D01*
X50915Y-51875D02*
X50915Y-52435D01*
X50915Y-52435D02*
X50750Y-52600D01*
G54D29*
X44610Y-53922D02*
X43595Y-53922D01*
X43595Y-53922D02*
X43136Y-53922D01*
X46080Y-53922D02*
X46241Y-53922D01*
X46080Y-53922D02*
X44610Y-53922D01*
X47641Y-53922D02*
X48963Y-52600D01*
X48963Y-52600D02*
X49600Y-52600D01*
X46241Y-53922D02*
X47641Y-53922D01*
X43136Y-53922D02*
X39805Y-53922D01*
X38435Y-50510D02*
X38435Y-51977D01*
X39805Y-53922D02*
X38435Y-52551D01*
X38435Y-52551D02*
X38435Y-51977D01*
X49600Y-52600D02*
X50750Y-52600D01*
X50750Y-52600D02*
X51116Y-52600D01*
X51116Y-52600D02*
X52710Y-52600D01*
X52710Y-52600D02*
X52720Y-52610D01*
X38435Y-50044D02*
X38435Y-50077D01*
X38435Y-50077D02*
X38652Y-50294D01*
X39516Y-50294D02*
X38652Y-50294D01*
X38652Y-50294D02*
X38435Y-50510D01*
X37253Y-47238D02*
X37253Y-48470D01*
X37253Y-41879D02*
X37253Y-46096D01*
X37253Y-46096D02*
X37253Y-47238D01*
X37253Y-48470D02*
X38435Y-49652D01*
X38435Y-49652D02*
X38435Y-50044D01*
X38435Y-50044D02*
X38435Y-50510D01*
X37253Y-25329D02*
X37253Y-25421D01*
X37253Y-25421D02*
X37432Y-25600D01*
X38200Y-25600D02*
X37432Y-25600D01*
X37432Y-25600D02*
X37253Y-25779D01*
X37253Y-25779D02*
X37253Y-25779D01*
X37253Y-33355D02*
X37253Y-33410D01*
X37253Y-33410D02*
X37465Y-33622D01*
X38200Y-33622D02*
X37465Y-33622D01*
X37465Y-33622D02*
X37449Y-33622D01*
X37449Y-33622D02*
X37253Y-33819D01*
X37253Y-41390D02*
X37253Y-41521D01*
X37253Y-41521D02*
X37432Y-41700D01*
X38200Y-41700D02*
X37432Y-41700D01*
X37432Y-41700D02*
X37253Y-41879D01*
X37253Y-25329D02*
X37253Y-25779D01*
X37253Y-25779D02*
X37253Y-33355D01*
X37253Y-33355D02*
X37253Y-33819D01*
X37253Y-33819D02*
X37253Y-41390D01*
X37253Y-41390D02*
X37253Y-41879D01*
X38200Y-33622D02*
X39200Y-33622D01*
X38200Y-25600D02*
X39200Y-25600D01*
X38200Y-41700D02*
X39200Y-41700D01*
X46600Y-21000D02*
X46600Y-20000D01*
X46327Y-36852D02*
X46212Y-36852D01*
X46678Y-31382D02*
X52884Y-31382D01*
X45570Y-32490D02*
X46678Y-31382D01*
X45570Y-36210D02*
X45570Y-32490D01*
X46212Y-36852D02*
X45570Y-36210D01*
X68186Y-23456D02*
X58343Y-23456D01*
X58343Y-23456D02*
X57300Y-24500D01*
X68303Y-23061D02*
X68303Y-23340D01*
X68303Y-23340D02*
X68186Y-23456D01*
X57300Y-24500D02*
X57300Y-26425D01*
G54D30*
X44244Y-48807D02*
X44001Y-48564D01*
X44244Y-50898D02*
X44244Y-48807D01*
X44253Y-50889D02*
X44244Y-50898D01*
X43085Y-50852D02*
X43415Y-50852D01*
X43503Y-49137D02*
X42930Y-48564D01*
X43503Y-50764D02*
X43503Y-49137D01*
X43415Y-50852D02*
X43503Y-50764D01*
X42930Y-48564D02*
X42801Y-48564D01*
G54D10*
G36*
X44207Y-47764D02*
X42595Y-47764D01*
X42538Y-47775D01*
X42489Y-47807D01*
X42489Y-47807D01*
X41920Y-48377D01*
X41863Y-48376D01*
X41785Y-48409D01*
X41785Y-48366D01*
X41785Y-43410D01*
X41785Y-43267D01*
X41806Y-43246D01*
X41806Y-43624D01*
X41806Y-45108D01*
X41817Y-45165D01*
X41849Y-45214D01*
X44077Y-47442D01*
X44198Y-47562D01*
X44180Y-47607D01*
X44179Y-47696D01*
X44207Y-47764D01*
X44207Y-47764D01*
G37*
G54D33*
X44207Y-47764D02*
X42595Y-47764D01*
X42538Y-47775D01*
X42489Y-47807D01*
X42489Y-47807D01*
X41920Y-48377D01*
X41863Y-48376D01*
X41785Y-48409D01*
X41785Y-48366D01*
X41785Y-43410D01*
X41785Y-43267D01*
X41806Y-43246D01*
X41806Y-43624D01*
X41806Y-45108D01*
X41817Y-45165D01*
X41849Y-45214D01*
X44077Y-47442D01*
X44198Y-47562D01*
X44180Y-47607D01*
X44179Y-47696D01*
X44207Y-47764D01*
G54D10*
G36*
X45237Y-47764D02*
X44602Y-47764D01*
X44629Y-47696D01*
X44630Y-47607D01*
X44595Y-47524D01*
X44532Y-47461D01*
X44512Y-47452D01*
X44511Y-47450D01*
X44511Y-47450D01*
X44290Y-47229D01*
X42106Y-45045D01*
X42106Y-44632D01*
X45237Y-47764D01*
X45237Y-47764D01*
G37*
G54D33*
X45237Y-47764D02*
X44602Y-47764D01*
X44629Y-47696D01*
X44630Y-47607D01*
X44595Y-47524D01*
X44532Y-47461D01*
X44512Y-47452D01*
X44511Y-47450D01*
X44511Y-47450D01*
X44290Y-47229D01*
X42106Y-45045D01*
X42106Y-44632D01*
X45237Y-47764D01*
G54D10*
G36*
X51787Y-46049D02*
X50316Y-46049D01*
X46145Y-46049D01*
X45003Y-44907D01*
X45003Y-44907D01*
X45014Y-44910D01*
X45014Y-44909D01*
X45015Y-44910D01*
X47108Y-44910D01*
X46995Y-44985D01*
X46902Y-45124D01*
X46870Y-45289D01*
X46870Y-45560D01*
X46902Y-45725D01*
X46995Y-45864D01*
X47135Y-45958D01*
X47300Y-45990D01*
X47464Y-45958D01*
X47604Y-45864D01*
X47697Y-45725D01*
X47730Y-45560D01*
X47730Y-45289D01*
X47697Y-45124D01*
X47604Y-44985D01*
X47491Y-44910D01*
X48108Y-44910D01*
X47995Y-44985D01*
X47902Y-45124D01*
X47870Y-45289D01*
X47870Y-45560D01*
X47902Y-45725D01*
X47995Y-45864D01*
X48135Y-45958D01*
X48300Y-45990D01*
X48464Y-45958D01*
X48604Y-45864D01*
X48697Y-45725D01*
X48730Y-45560D01*
X48730Y-45289D01*
X48697Y-45124D01*
X48604Y-44985D01*
X48491Y-44910D01*
X49115Y-44910D01*
X49013Y-44977D01*
X48925Y-45109D01*
X48895Y-45264D01*
X48895Y-45585D01*
X48925Y-45740D01*
X49013Y-45872D01*
X49145Y-45960D01*
X49300Y-45990D01*
X49454Y-45960D01*
X49586Y-45872D01*
X49674Y-45740D01*
X49705Y-45585D01*
X49705Y-45264D01*
X49674Y-45109D01*
X49586Y-44977D01*
X49484Y-44910D01*
X50108Y-44910D01*
X49995Y-44985D01*
X49902Y-45124D01*
X49870Y-45289D01*
X49870Y-45560D01*
X49902Y-45725D01*
X49995Y-45864D01*
X50135Y-45958D01*
X50300Y-45990D01*
X50464Y-45958D01*
X50604Y-45864D01*
X50697Y-45725D01*
X50730Y-45560D01*
X50730Y-45289D01*
X50697Y-45124D01*
X50604Y-44985D01*
X50491Y-44910D01*
X51108Y-44910D01*
X50995Y-44985D01*
X50902Y-45124D01*
X50870Y-45289D01*
X50870Y-45560D01*
X50902Y-45725D01*
X50995Y-45864D01*
X51135Y-45958D01*
X51300Y-45990D01*
X51464Y-45958D01*
X51604Y-45864D01*
X51648Y-45799D01*
X51648Y-45848D01*
X51659Y-45905D01*
X51691Y-45954D01*
X51787Y-46049D01*
X51787Y-46049D01*
G37*
G54D33*
X51787Y-46049D02*
X50316Y-46049D01*
X46145Y-46049D01*
X45003Y-44907D01*
X45003Y-44907D01*
X45014Y-44910D01*
X45014Y-44909D01*
X45015Y-44910D01*
X47108Y-44910D01*
X46995Y-44985D01*
X46902Y-45124D01*
X46870Y-45289D01*
X46870Y-45560D01*
X46902Y-45725D01*
X46995Y-45864D01*
X47135Y-45958D01*
X47300Y-45990D01*
X47464Y-45958D01*
X47604Y-45864D01*
X47697Y-45725D01*
X47730Y-45560D01*
X47730Y-45289D01*
X47697Y-45124D01*
X47604Y-44985D01*
X47491Y-44910D01*
X48108Y-44910D01*
X47995Y-44985D01*
X47902Y-45124D01*
X47870Y-45289D01*
X47870Y-45560D01*
X47902Y-45725D01*
X47995Y-45864D01*
X48135Y-45958D01*
X48300Y-45990D01*
X48464Y-45958D01*
X48604Y-45864D01*
X48697Y-45725D01*
X48730Y-45560D01*
X48730Y-45289D01*
X48697Y-45124D01*
X48604Y-44985D01*
X48491Y-44910D01*
X49115Y-44910D01*
X49013Y-44977D01*
X48925Y-45109D01*
X48895Y-45264D01*
X48895Y-45585D01*
X48925Y-45740D01*
X49013Y-45872D01*
X49145Y-45960D01*
X49300Y-45990D01*
X49454Y-45960D01*
X49586Y-45872D01*
X49674Y-45740D01*
X49705Y-45585D01*
X49705Y-45264D01*
X49674Y-45109D01*
X49586Y-44977D01*
X49484Y-44910D01*
X50108Y-44910D01*
X49995Y-44985D01*
X49902Y-45124D01*
X49870Y-45289D01*
X49870Y-45560D01*
X49902Y-45725D01*
X49995Y-45864D01*
X50135Y-45958D01*
X50300Y-45990D01*
X50464Y-45958D01*
X50604Y-45864D01*
X50697Y-45725D01*
X50730Y-45560D01*
X50730Y-45289D01*
X50697Y-45124D01*
X50604Y-44985D01*
X50491Y-44910D01*
X51108Y-44910D01*
X50995Y-44985D01*
X50902Y-45124D01*
X50870Y-45289D01*
X50870Y-45560D01*
X50902Y-45725D01*
X50995Y-45864D01*
X51135Y-45958D01*
X51300Y-45990D01*
X51464Y-45958D01*
X51604Y-45864D01*
X51648Y-45799D01*
X51648Y-45848D01*
X51659Y-45905D01*
X51691Y-45954D01*
X51787Y-46049D01*
G54D10*
G36*
X55654Y-47431D02*
X55278Y-47055D01*
X55278Y-44933D01*
X55266Y-44875D01*
X55266Y-44875D01*
X55234Y-44827D01*
X55234Y-44827D01*
X54210Y-43803D01*
X54162Y-43771D01*
X54104Y-43759D01*
X47246Y-43759D01*
X47246Y-39340D01*
X47207Y-39144D01*
X47141Y-39030D01*
X46758Y-39413D01*
X47141Y-39795D01*
X47207Y-39681D01*
X47246Y-39340D01*
X47246Y-43759D01*
X46752Y-43759D01*
X46752Y-40184D01*
X46752Y-38641D01*
X46638Y-38575D01*
X46297Y-38536D01*
X46101Y-38575D01*
X45987Y-38641D01*
X46370Y-39024D01*
X46752Y-38641D01*
X46752Y-40184D01*
X46370Y-39801D01*
X45987Y-40184D01*
X46101Y-40250D01*
X46442Y-40289D01*
X46638Y-40250D01*
X46752Y-40184D01*
X46752Y-43759D01*
X45981Y-43759D01*
X45981Y-39413D01*
X45598Y-39030D01*
X45532Y-39144D01*
X45493Y-39485D01*
X45532Y-39681D01*
X45598Y-39795D01*
X45981Y-39413D01*
X45981Y-43759D01*
X45482Y-43759D01*
X44930Y-43207D01*
X44930Y-37352D01*
X45610Y-38033D01*
X45659Y-38065D01*
X45659Y-38065D01*
X45717Y-38077D01*
X46842Y-38077D01*
X53399Y-38077D01*
X55650Y-40327D01*
X55650Y-44888D01*
X55635Y-44891D01*
X55495Y-44985D01*
X55402Y-45124D01*
X55370Y-45289D01*
X55370Y-45560D01*
X55402Y-45725D01*
X55495Y-45864D01*
X55635Y-45958D01*
X55650Y-45961D01*
X55650Y-47410D01*
X55654Y-47431D01*
X55654Y-47431D01*
G37*
G54D33*
X55654Y-47431D02*
X55278Y-47055D01*
X55278Y-44933D01*
X55266Y-44875D01*
X55266Y-44875D01*
X55234Y-44827D01*
X55234Y-44827D01*
X54210Y-43803D01*
X54162Y-43771D01*
X54104Y-43759D01*
X47246Y-43759D01*
X47246Y-39340D01*
X47207Y-39144D01*
X47141Y-39030D01*
X46758Y-39413D01*
X47141Y-39795D01*
X47207Y-39681D01*
X47246Y-39340D01*
X47246Y-43759D01*
X46752Y-43759D01*
X46752Y-40184D01*
X46752Y-38641D01*
X46638Y-38575D01*
X46297Y-38536D01*
X46101Y-38575D01*
X45987Y-38641D01*
X46370Y-39024D01*
X46752Y-38641D01*
X46752Y-40184D01*
X46370Y-39801D01*
X45987Y-40184D01*
X46101Y-40250D01*
X46442Y-40289D01*
X46638Y-40250D01*
X46752Y-40184D01*
X46752Y-43759D01*
X45981Y-43759D01*
X45981Y-39413D01*
X45598Y-39030D01*
X45532Y-39144D01*
X45493Y-39485D01*
X45532Y-39681D01*
X45598Y-39795D01*
X45981Y-39413D01*
X45981Y-43759D01*
X45482Y-43759D01*
X44930Y-43207D01*
X44930Y-37352D01*
X45610Y-38033D01*
X45659Y-38065D01*
X45659Y-38065D01*
X45717Y-38077D01*
X46842Y-38077D01*
X53399Y-38077D01*
X55650Y-40327D01*
X55650Y-44888D01*
X55635Y-44891D01*
X55495Y-44985D01*
X55402Y-45124D01*
X55370Y-45289D01*
X55370Y-45560D01*
X55402Y-45725D01*
X55495Y-45864D01*
X55635Y-45958D01*
X55650Y-45961D01*
X55650Y-47410D01*
X55654Y-47431D01*
G54D10*
G36*
X57817Y-57327D02*
X57678Y-57466D01*
X57645Y-57516D01*
X57633Y-57575D01*
X57633Y-57624D01*
X57600Y-57637D01*
X57571Y-57667D01*
X57570Y-57668D01*
X57564Y-57663D01*
X57537Y-57651D01*
X57477Y-57651D01*
X57458Y-57670D01*
X57458Y-57675D01*
X57330Y-57675D01*
X57330Y-57670D01*
X57311Y-57651D01*
X57272Y-57651D01*
X57272Y-56358D01*
X57260Y-56300D01*
X57228Y-56252D01*
X57179Y-56219D01*
X57122Y-56208D01*
X56433Y-56208D01*
X56379Y-56218D01*
X56379Y-56169D01*
X56383Y-56167D01*
X56446Y-56104D01*
X56480Y-56021D01*
X56481Y-55932D01*
X56446Y-55849D01*
X56383Y-55786D01*
X56300Y-55752D01*
X56211Y-55751D01*
X56128Y-55786D01*
X56065Y-55849D01*
X56031Y-55932D01*
X56030Y-56021D01*
X56065Y-56104D01*
X56079Y-56118D01*
X56079Y-56240D01*
X56079Y-57414D01*
X56079Y-57621D01*
X56064Y-57621D01*
X56025Y-57637D01*
X56016Y-57647D01*
X56012Y-57643D01*
X56020Y-57605D01*
X56020Y-57604D01*
X56020Y-57604D01*
X56037Y-57563D01*
X56037Y-57563D01*
X56037Y-57563D01*
X56054Y-57521D01*
X56054Y-57477D01*
X56055Y-57477D01*
X56054Y-57476D01*
X56055Y-57432D01*
X56037Y-57390D01*
X56020Y-57349D01*
X55989Y-57317D01*
X55989Y-57317D01*
X55989Y-57317D01*
X55957Y-57286D01*
X55916Y-57269D01*
X55916Y-57269D01*
X55916Y-57269D01*
X55874Y-57252D01*
X55830Y-57252D01*
X55829Y-57252D01*
X55785Y-57251D01*
X55785Y-57252D01*
X55688Y-57252D01*
X55666Y-57230D01*
X55666Y-56632D01*
X55666Y-56632D01*
X55666Y-56632D01*
X55659Y-56595D01*
X55659Y-56595D01*
X55659Y-56580D01*
X55653Y-56566D01*
X55649Y-56546D01*
X55637Y-56529D01*
X55637Y-56529D01*
X55624Y-56497D01*
X55600Y-56473D01*
X55600Y-56473D01*
X55600Y-56473D01*
X55593Y-56465D01*
X55593Y-56465D01*
X55561Y-56434D01*
X55520Y-56417D01*
X55520Y-56417D01*
X55478Y-56400D01*
X55434Y-56400D01*
X55434Y-56399D01*
X55433Y-56400D01*
X55389Y-56399D01*
X55306Y-56434D01*
X55274Y-56465D01*
X55274Y-56465D01*
X55274Y-56465D01*
X55243Y-56497D01*
X55226Y-56538D01*
X55226Y-56538D01*
X55226Y-56538D01*
X55209Y-56580D01*
X55209Y-56624D01*
X55208Y-56625D01*
X55209Y-56625D01*
X55208Y-56669D01*
X55216Y-56687D01*
X55216Y-57249D01*
X55216Y-57323D01*
X55216Y-57323D01*
X55216Y-57323D01*
X55216Y-57630D01*
X55216Y-57630D01*
X55216Y-57630D01*
X55216Y-57636D01*
X55197Y-57628D01*
X55186Y-57575D01*
X55186Y-57575D01*
X55154Y-57527D01*
X54527Y-56900D01*
X54527Y-50840D01*
X57497Y-53810D01*
X57497Y-56084D01*
X57492Y-56110D01*
X57503Y-56169D01*
X57537Y-56219D01*
X57817Y-56499D01*
X57817Y-57327D01*
X57817Y-57327D01*
G37*
G54D33*
X57817Y-57327D02*
X57678Y-57466D01*
X57645Y-57516D01*
X57633Y-57575D01*
X57633Y-57624D01*
X57600Y-57637D01*
X57571Y-57667D01*
X57570Y-57668D01*
X57564Y-57663D01*
X57537Y-57651D01*
X57477Y-57651D01*
X57458Y-57670D01*
X57458Y-57675D01*
X57330Y-57675D01*
X57330Y-57670D01*
X57311Y-57651D01*
X57272Y-57651D01*
X57272Y-56358D01*
X57260Y-56300D01*
X57228Y-56252D01*
X57179Y-56219D01*
X57122Y-56208D01*
X56433Y-56208D01*
X56379Y-56218D01*
X56379Y-56169D01*
X56383Y-56167D01*
X56446Y-56104D01*
X56480Y-56021D01*
X56481Y-55932D01*
X56446Y-55849D01*
X56383Y-55786D01*
X56300Y-55752D01*
X56211Y-55751D01*
X56128Y-55786D01*
X56065Y-55849D01*
X56031Y-55932D01*
X56030Y-56021D01*
X56065Y-56104D01*
X56079Y-56118D01*
X56079Y-56240D01*
X56079Y-57414D01*
X56079Y-57621D01*
X56064Y-57621D01*
X56025Y-57637D01*
X56016Y-57647D01*
X56012Y-57643D01*
X56020Y-57605D01*
X56020Y-57604D01*
X56020Y-57604D01*
X56037Y-57563D01*
X56037Y-57563D01*
X56037Y-57563D01*
X56054Y-57521D01*
X56054Y-57477D01*
X56055Y-57477D01*
X56054Y-57476D01*
X56055Y-57432D01*
X56037Y-57390D01*
X56020Y-57349D01*
X55989Y-57317D01*
X55989Y-57317D01*
X55989Y-57317D01*
X55957Y-57286D01*
X55916Y-57269D01*
X55916Y-57269D01*
X55916Y-57269D01*
X55874Y-57252D01*
X55830Y-57252D01*
X55829Y-57252D01*
X55785Y-57251D01*
X55785Y-57252D01*
X55688Y-57252D01*
X55666Y-57230D01*
X55666Y-56632D01*
X55666Y-56632D01*
X55666Y-56632D01*
X55659Y-56595D01*
X55659Y-56595D01*
X55659Y-56580D01*
X55653Y-56566D01*
X55649Y-56546D01*
X55637Y-56529D01*
X55637Y-56529D01*
X55624Y-56497D01*
X55600Y-56473D01*
X55600Y-56473D01*
X55600Y-56473D01*
X55593Y-56465D01*
X55593Y-56465D01*
X55561Y-56434D01*
X55520Y-56417D01*
X55520Y-56417D01*
X55478Y-56400D01*
X55434Y-56400D01*
X55434Y-56399D01*
X55433Y-56400D01*
X55389Y-56399D01*
X55306Y-56434D01*
X55274Y-56465D01*
X55274Y-56465D01*
X55274Y-56465D01*
X55243Y-56497D01*
X55226Y-56538D01*
X55226Y-56538D01*
X55226Y-56538D01*
X55209Y-56580D01*
X55209Y-56624D01*
X55208Y-56625D01*
X55209Y-56625D01*
X55208Y-56669D01*
X55216Y-56687D01*
X55216Y-57249D01*
X55216Y-57323D01*
X55216Y-57323D01*
X55216Y-57323D01*
X55216Y-57630D01*
X55216Y-57630D01*
X55216Y-57630D01*
X55216Y-57636D01*
X55197Y-57628D01*
X55186Y-57575D01*
X55186Y-57575D01*
X55154Y-57527D01*
X54527Y-56900D01*
X54527Y-50840D01*
X57497Y-53810D01*
X57497Y-56084D01*
X57492Y-56110D01*
X57503Y-56169D01*
X57537Y-56219D01*
X57817Y-56499D01*
X57817Y-57327D01*
G54D10*
G36*
X58819Y-57622D02*
X58781Y-57637D01*
X58752Y-57667D01*
X58751Y-57668D01*
X58745Y-57663D01*
X58718Y-57651D01*
X58658Y-57651D01*
X58639Y-57670D01*
X58639Y-57675D01*
X58511Y-57675D01*
X58511Y-57670D01*
X58492Y-57651D01*
X58432Y-57651D01*
X58404Y-57663D01*
X58399Y-57668D01*
X58398Y-57667D01*
X58368Y-57637D01*
X58331Y-57622D01*
X58331Y-56396D01*
X58319Y-56339D01*
X58319Y-56339D01*
X58287Y-56290D01*
X58287Y-56290D01*
X57996Y-55999D01*
X57996Y-53828D01*
X58525Y-54357D01*
X58525Y-54357D01*
X58599Y-54431D01*
X58599Y-57041D01*
X58610Y-57098D01*
X58642Y-57147D01*
X58819Y-57323D01*
X58819Y-57622D01*
X58819Y-57622D01*
G37*
G54D33*
X58819Y-57622D02*
X58781Y-57637D01*
X58752Y-57667D01*
X58751Y-57668D01*
X58745Y-57663D01*
X58718Y-57651D01*
X58658Y-57651D01*
X58639Y-57670D01*
X58639Y-57675D01*
X58511Y-57675D01*
X58511Y-57670D01*
X58492Y-57651D01*
X58432Y-57651D01*
X58404Y-57663D01*
X58399Y-57668D01*
X58398Y-57667D01*
X58368Y-57637D01*
X58331Y-57622D01*
X58331Y-56396D01*
X58319Y-56339D01*
X58319Y-56339D01*
X58287Y-56290D01*
X58287Y-56290D01*
X57996Y-55999D01*
X57996Y-53828D01*
X58525Y-54357D01*
X58525Y-54357D01*
X58599Y-54431D01*
X58599Y-57041D01*
X58610Y-57098D01*
X58642Y-57147D01*
X58819Y-57323D01*
X58819Y-57622D01*
G54D10*
G36*
X60016Y-57621D02*
X60001Y-57621D01*
X59962Y-57637D01*
X59933Y-57667D01*
X59932Y-57668D01*
X59926Y-57663D01*
X59899Y-57651D01*
X59839Y-57651D01*
X59820Y-57670D01*
X59820Y-57675D01*
X59692Y-57675D01*
X59692Y-57670D01*
X59673Y-57651D01*
X59613Y-57651D01*
X59586Y-57663D01*
X59580Y-57668D01*
X59579Y-57667D01*
X59549Y-57637D01*
X59528Y-57628D01*
X59528Y-57561D01*
X59516Y-57503D01*
X59512Y-57496D01*
X59512Y-57410D01*
X59512Y-57410D01*
X59512Y-57410D01*
X59510Y-57398D01*
X59500Y-57352D01*
X59500Y-57352D01*
X59468Y-57304D01*
X59468Y-57304D01*
X59069Y-56904D01*
X59069Y-54391D01*
X60016Y-55338D01*
X60016Y-57621D01*
X60016Y-57621D01*
G37*
G54D33*
X60016Y-57621D02*
X60001Y-57621D01*
X59962Y-57637D01*
X59933Y-57667D01*
X59932Y-57668D01*
X59926Y-57663D01*
X59899Y-57651D01*
X59839Y-57651D01*
X59820Y-57670D01*
X59820Y-57675D01*
X59692Y-57675D01*
X59692Y-57670D01*
X59673Y-57651D01*
X59613Y-57651D01*
X59586Y-57663D01*
X59580Y-57668D01*
X59579Y-57667D01*
X59549Y-57637D01*
X59528Y-57628D01*
X59528Y-57561D01*
X59516Y-57503D01*
X59512Y-57496D01*
X59512Y-57410D01*
X59512Y-57410D01*
X59512Y-57410D01*
X59510Y-57398D01*
X59500Y-57352D01*
X59500Y-57352D01*
X59468Y-57304D01*
X59468Y-57304D01*
X59069Y-56904D01*
X59069Y-54391D01*
X60016Y-55338D01*
X60016Y-57621D01*
G54D10*
G36*
X60803Y-57621D02*
X60788Y-57621D01*
X60750Y-57637D01*
X60720Y-57667D01*
X60719Y-57668D01*
X60714Y-57663D01*
X60686Y-57651D01*
X60626Y-57651D01*
X60607Y-57670D01*
X60607Y-57675D01*
X60479Y-57675D01*
X60479Y-57670D01*
X60461Y-57651D01*
X60400Y-57651D01*
X60373Y-57663D01*
X60367Y-57668D01*
X60367Y-57667D01*
X60337Y-57637D01*
X60316Y-57628D01*
X60316Y-55276D01*
X60304Y-55218D01*
X60304Y-55218D01*
X60272Y-55170D01*
X60272Y-55170D01*
X51915Y-46813D01*
X51928Y-46800D01*
X51962Y-46717D01*
X51962Y-46705D01*
X60357Y-55100D01*
X60357Y-55100D01*
X60570Y-55312D01*
X60570Y-56265D01*
X60569Y-56271D01*
X60569Y-56906D01*
X60580Y-56963D01*
X60612Y-57012D01*
X60803Y-57202D01*
X60803Y-57621D01*
X60803Y-57621D01*
G37*
G54D33*
X60803Y-57621D02*
X60788Y-57621D01*
X60750Y-57637D01*
X60720Y-57667D01*
X60719Y-57668D01*
X60714Y-57663D01*
X60686Y-57651D01*
X60626Y-57651D01*
X60607Y-57670D01*
X60607Y-57675D01*
X60479Y-57675D01*
X60479Y-57670D01*
X60461Y-57651D01*
X60400Y-57651D01*
X60373Y-57663D01*
X60367Y-57668D01*
X60367Y-57667D01*
X60337Y-57637D01*
X60316Y-57628D01*
X60316Y-55276D01*
X60304Y-55218D01*
X60304Y-55218D01*
X60272Y-55170D01*
X60272Y-55170D01*
X51915Y-46813D01*
X51928Y-46800D01*
X51962Y-46717D01*
X51962Y-46705D01*
X60357Y-55100D01*
X60357Y-55100D01*
X60570Y-55312D01*
X60570Y-56265D01*
X60569Y-56271D01*
X60569Y-56906D01*
X60580Y-56963D01*
X60612Y-57012D01*
X60803Y-57202D01*
X60803Y-57621D01*
G54D10*
G36*
X61197Y-57621D02*
X61182Y-57621D01*
X61143Y-57637D01*
X61134Y-57647D01*
X61125Y-57637D01*
X61103Y-57628D01*
X61103Y-57140D01*
X61092Y-57083D01*
X61092Y-57083D01*
X61059Y-57034D01*
X61059Y-57034D01*
X60869Y-56843D01*
X60869Y-56276D01*
X60870Y-56271D01*
X60870Y-55372D01*
X61197Y-55699D01*
X61197Y-57540D01*
X61197Y-57621D01*
X61197Y-57621D01*
G37*
G54D33*
X61197Y-57621D02*
X61182Y-57621D01*
X61143Y-57637D01*
X61134Y-57647D01*
X61125Y-57637D01*
X61103Y-57628D01*
X61103Y-57140D01*
X61092Y-57083D01*
X61092Y-57083D01*
X61059Y-57034D01*
X61059Y-57034D01*
X60869Y-56843D01*
X60869Y-56276D01*
X60870Y-56271D01*
X60870Y-55372D01*
X61197Y-55699D01*
X61197Y-57540D01*
X61197Y-57621D01*
G54D10*
G36*
X62378Y-57621D02*
X62363Y-57621D01*
X62324Y-57637D01*
X62295Y-57667D01*
X62294Y-57668D01*
X62289Y-57663D01*
X62261Y-57651D01*
X62201Y-57651D01*
X62182Y-57670D01*
X62182Y-57675D01*
X62054Y-57675D01*
X62054Y-57670D01*
X62035Y-57651D01*
X61975Y-57651D01*
X61948Y-57663D01*
X61936Y-57675D01*
X61907Y-57675D01*
X61895Y-57663D01*
X61867Y-57651D01*
X61807Y-57651D01*
X61788Y-57670D01*
X61788Y-57675D01*
X61660Y-57675D01*
X61660Y-57670D01*
X61642Y-57651D01*
X61582Y-57651D01*
X61554Y-57663D01*
X61548Y-57668D01*
X61548Y-57667D01*
X61518Y-57637D01*
X61497Y-57628D01*
X61497Y-57540D01*
X61497Y-55759D01*
X61812Y-56074D01*
X61812Y-56074D01*
X62208Y-56470D01*
X62208Y-57333D01*
X62219Y-57390D01*
X62251Y-57439D01*
X62378Y-57565D01*
X62378Y-57621D01*
X62378Y-57621D01*
G37*
G54D33*
X62378Y-57621D02*
X62363Y-57621D01*
X62324Y-57637D01*
X62295Y-57667D01*
X62294Y-57668D01*
X62289Y-57663D01*
X62261Y-57651D01*
X62201Y-57651D01*
X62182Y-57670D01*
X62182Y-57675D01*
X62054Y-57675D01*
X62054Y-57670D01*
X62035Y-57651D01*
X61975Y-57651D01*
X61948Y-57663D01*
X61936Y-57675D01*
X61907Y-57675D01*
X61895Y-57663D01*
X61867Y-57651D01*
X61807Y-57651D01*
X61788Y-57670D01*
X61788Y-57675D01*
X61660Y-57675D01*
X61660Y-57670D01*
X61642Y-57651D01*
X61582Y-57651D01*
X61554Y-57663D01*
X61548Y-57668D01*
X61548Y-57667D01*
X61518Y-57637D01*
X61497Y-57628D01*
X61497Y-57540D01*
X61497Y-55759D01*
X61812Y-56074D01*
X61812Y-56074D01*
X62208Y-56470D01*
X62208Y-57333D01*
X62219Y-57390D01*
X62251Y-57439D01*
X62378Y-57565D01*
X62378Y-57621D01*
G54D10*
G36*
X62772Y-57621D02*
X62757Y-57621D01*
X62718Y-57637D01*
X62709Y-57647D01*
X62699Y-57637D01*
X62678Y-57628D01*
X62678Y-57503D01*
X62678Y-57503D01*
X62678Y-57503D01*
X62676Y-57491D01*
X62666Y-57445D01*
X62666Y-57445D01*
X62634Y-57397D01*
X62634Y-57397D01*
X62508Y-57270D01*
X62508Y-56529D01*
X62772Y-56793D01*
X62772Y-57621D01*
X62772Y-57621D01*
G37*
G54D33*
X62772Y-57621D02*
X62757Y-57621D01*
X62718Y-57637D01*
X62709Y-57647D01*
X62699Y-57637D01*
X62678Y-57628D01*
X62678Y-57503D01*
X62678Y-57503D01*
X62678Y-57503D01*
X62676Y-57491D01*
X62666Y-57445D01*
X62666Y-57445D01*
X62634Y-57397D01*
X62634Y-57397D01*
X62508Y-57270D01*
X62508Y-56529D01*
X62772Y-56793D01*
X62772Y-57621D01*
G54D10*
G36*
X63953Y-57621D02*
X63938Y-57621D01*
X63899Y-57637D01*
X63870Y-57667D01*
X63869Y-57668D01*
X63863Y-57663D01*
X63836Y-57651D01*
X63776Y-57651D01*
X63757Y-57670D01*
X63757Y-57675D01*
X63629Y-57675D01*
X63629Y-57670D01*
X63610Y-57651D01*
X63550Y-57651D01*
X63523Y-57663D01*
X63511Y-57675D01*
X63482Y-57675D01*
X63470Y-57663D01*
X63442Y-57651D01*
X63382Y-57651D01*
X63363Y-57670D01*
X63363Y-57675D01*
X63235Y-57675D01*
X63235Y-57670D01*
X63216Y-57651D01*
X63156Y-57651D01*
X63129Y-57663D01*
X63123Y-57668D01*
X63123Y-57667D01*
X63093Y-57637D01*
X63072Y-57628D01*
X63072Y-56731D01*
X63060Y-56674D01*
X63060Y-56674D01*
X63028Y-56625D01*
X63028Y-56625D01*
X62625Y-56222D01*
X62699Y-56191D01*
X62762Y-56128D01*
X62796Y-56045D01*
X62797Y-55956D01*
X62762Y-55873D01*
X62699Y-55810D01*
X62616Y-55776D01*
X62588Y-55776D01*
X53450Y-46637D01*
X53450Y-45961D01*
X53464Y-45958D01*
X53604Y-45864D01*
X53650Y-45796D01*
X53650Y-46654D01*
X53661Y-46711D01*
X53693Y-46760D01*
X63953Y-57019D01*
X63953Y-57509D01*
X63953Y-57621D01*
X63953Y-57621D01*
G37*
G54D33*
X63953Y-57621D02*
X63938Y-57621D01*
X63899Y-57637D01*
X63870Y-57667D01*
X63869Y-57668D01*
X63863Y-57663D01*
X63836Y-57651D01*
X63776Y-57651D01*
X63757Y-57670D01*
X63757Y-57675D01*
X63629Y-57675D01*
X63629Y-57670D01*
X63610Y-57651D01*
X63550Y-57651D01*
X63523Y-57663D01*
X63511Y-57675D01*
X63482Y-57675D01*
X63470Y-57663D01*
X63442Y-57651D01*
X63382Y-57651D01*
X63363Y-57670D01*
X63363Y-57675D01*
X63235Y-57675D01*
X63235Y-57670D01*
X63216Y-57651D01*
X63156Y-57651D01*
X63129Y-57663D01*
X63123Y-57668D01*
X63123Y-57667D01*
X63093Y-57637D01*
X63072Y-57628D01*
X63072Y-56731D01*
X63060Y-56674D01*
X63060Y-56674D01*
X63028Y-56625D01*
X63028Y-56625D01*
X62625Y-56222D01*
X62699Y-56191D01*
X62762Y-56128D01*
X62796Y-56045D01*
X62797Y-55956D01*
X62762Y-55873D01*
X62699Y-55810D01*
X62616Y-55776D01*
X62588Y-55776D01*
X53450Y-46637D01*
X53450Y-45961D01*
X53464Y-45958D01*
X53604Y-45864D01*
X53650Y-45796D01*
X53650Y-46654D01*
X53661Y-46711D01*
X53693Y-46760D01*
X63953Y-57019D01*
X63953Y-57509D01*
X63953Y-57621D01*
G54D10*
G36*
X66315Y-57621D02*
X66300Y-57621D01*
X66261Y-57637D01*
X66232Y-57667D01*
X66231Y-57668D01*
X66226Y-57663D01*
X66198Y-57651D01*
X66138Y-57651D01*
X66119Y-57670D01*
X66119Y-57675D01*
X65991Y-57675D01*
X65991Y-57670D01*
X65972Y-57651D01*
X65912Y-57651D01*
X65885Y-57663D01*
X65879Y-57668D01*
X65879Y-57667D01*
X65849Y-57637D01*
X65810Y-57621D01*
X65769Y-57621D01*
X65513Y-57621D01*
X65474Y-57637D01*
X65473Y-57639D01*
X65473Y-57198D01*
X65513Y-57157D01*
X65547Y-57074D01*
X65548Y-56985D01*
X65513Y-56902D01*
X65450Y-56839D01*
X65367Y-56805D01*
X65278Y-56804D01*
X65195Y-56839D01*
X65132Y-56902D01*
X65098Y-56985D01*
X65097Y-57074D01*
X65132Y-57157D01*
X65173Y-57198D01*
X65173Y-57621D01*
X65119Y-57621D01*
X65080Y-57637D01*
X65051Y-57667D01*
X65050Y-57668D01*
X65044Y-57663D01*
X65017Y-57651D01*
X64957Y-57651D01*
X64938Y-57670D01*
X64938Y-57675D01*
X64810Y-57675D01*
X64810Y-57670D01*
X64791Y-57651D01*
X64731Y-57651D01*
X64704Y-57663D01*
X64698Y-57668D01*
X64697Y-57667D01*
X64668Y-57637D01*
X64646Y-57628D01*
X64646Y-57432D01*
X64646Y-57110D01*
X64635Y-57053D01*
X64635Y-57053D01*
X64622Y-57033D01*
X64602Y-57004D01*
X64602Y-57004D01*
X64066Y-56467D01*
X64093Y-56473D01*
X65217Y-56473D01*
X65680Y-56473D01*
X66315Y-57107D01*
X66315Y-57621D01*
X66315Y-57621D01*
G37*
G54D33*
X66315Y-57621D02*
X66300Y-57621D01*
X66261Y-57637D01*
X66232Y-57667D01*
X66231Y-57668D01*
X66226Y-57663D01*
X66198Y-57651D01*
X66138Y-57651D01*
X66119Y-57670D01*
X66119Y-57675D01*
X65991Y-57675D01*
X65991Y-57670D01*
X65972Y-57651D01*
X65912Y-57651D01*
X65885Y-57663D01*
X65879Y-57668D01*
X65879Y-57667D01*
X65849Y-57637D01*
X65810Y-57621D01*
X65769Y-57621D01*
X65513Y-57621D01*
X65474Y-57637D01*
X65473Y-57639D01*
X65473Y-57198D01*
X65513Y-57157D01*
X65547Y-57074D01*
X65548Y-56985D01*
X65513Y-56902D01*
X65450Y-56839D01*
X65367Y-56805D01*
X65278Y-56804D01*
X65195Y-56839D01*
X65132Y-56902D01*
X65098Y-56985D01*
X65097Y-57074D01*
X65132Y-57157D01*
X65173Y-57198D01*
X65173Y-57621D01*
X65119Y-57621D01*
X65080Y-57637D01*
X65051Y-57667D01*
X65050Y-57668D01*
X65044Y-57663D01*
X65017Y-57651D01*
X64957Y-57651D01*
X64938Y-57670D01*
X64938Y-57675D01*
X64810Y-57675D01*
X64810Y-57670D01*
X64791Y-57651D01*
X64731Y-57651D01*
X64704Y-57663D01*
X64698Y-57668D01*
X64697Y-57667D01*
X64668Y-57637D01*
X64646Y-57628D01*
X64646Y-57432D01*
X64646Y-57110D01*
X64635Y-57053D01*
X64635Y-57053D01*
X64622Y-57033D01*
X64602Y-57004D01*
X64602Y-57004D01*
X64066Y-56467D01*
X64093Y-56473D01*
X65217Y-56473D01*
X65680Y-56473D01*
X66315Y-57107D01*
X66315Y-57621D01*
G54D10*
G36*
X69464Y-57621D02*
X69450Y-57621D01*
X69411Y-57637D01*
X69381Y-57667D01*
X69381Y-57668D01*
X69375Y-57663D01*
X69348Y-57651D01*
X69288Y-57651D01*
X69269Y-57670D01*
X69269Y-57675D01*
X69141Y-57675D01*
X69141Y-57670D01*
X69122Y-57651D01*
X69062Y-57651D01*
X69034Y-57663D01*
X69022Y-57675D01*
X68993Y-57675D01*
X68981Y-57663D01*
X68954Y-57651D01*
X68894Y-57651D01*
X68875Y-57670D01*
X68875Y-57675D01*
X68747Y-57675D01*
X68747Y-57670D01*
X68728Y-57651D01*
X68668Y-57651D01*
X68641Y-57663D01*
X68635Y-57668D01*
X68634Y-57667D01*
X68605Y-57637D01*
X68583Y-57628D01*
X68583Y-57460D01*
X69016Y-57028D01*
X69016Y-57028D01*
X69016Y-57028D01*
X69048Y-56979D01*
X69048Y-56979D01*
X69057Y-56933D01*
X69060Y-56922D01*
X69059Y-56922D01*
X69060Y-56922D01*
X69060Y-42972D01*
X69233Y-43145D01*
X69233Y-57170D01*
X69244Y-57227D01*
X69276Y-57276D01*
X69464Y-57464D01*
X69464Y-57621D01*
X69464Y-57621D01*
G37*
G54D33*
X69464Y-57621D02*
X69450Y-57621D01*
X69411Y-57637D01*
X69381Y-57667D01*
X69381Y-57668D01*
X69375Y-57663D01*
X69348Y-57651D01*
X69288Y-57651D01*
X69269Y-57670D01*
X69269Y-57675D01*
X69141Y-57675D01*
X69141Y-57670D01*
X69122Y-57651D01*
X69062Y-57651D01*
X69034Y-57663D01*
X69022Y-57675D01*
X68993Y-57675D01*
X68981Y-57663D01*
X68954Y-57651D01*
X68894Y-57651D01*
X68875Y-57670D01*
X68875Y-57675D01*
X68747Y-57675D01*
X68747Y-57670D01*
X68728Y-57651D01*
X68668Y-57651D01*
X68641Y-57663D01*
X68635Y-57668D01*
X68634Y-57667D01*
X68605Y-57637D01*
X68583Y-57628D01*
X68583Y-57460D01*
X69016Y-57028D01*
X69016Y-57028D01*
X69016Y-57028D01*
X69048Y-56979D01*
X69048Y-56979D01*
X69057Y-56933D01*
X69060Y-56922D01*
X69059Y-56922D01*
X69060Y-56922D01*
X69060Y-42972D01*
X69233Y-43145D01*
X69233Y-57170D01*
X69244Y-57227D01*
X69276Y-57276D01*
X69464Y-57464D01*
X69464Y-57621D01*
G54D10*
G36*
X76657Y-54633D02*
X75934Y-54633D01*
X75934Y-52696D01*
X75858Y-52315D01*
X75769Y-52174D01*
X75380Y-52563D01*
X75380Y-51785D01*
X75239Y-51696D01*
X74818Y-51620D01*
X74437Y-51696D01*
X74296Y-51785D01*
X74838Y-52327D01*
X75380Y-51785D01*
X75380Y-52563D01*
X75227Y-52716D01*
X75769Y-53258D01*
X75858Y-53117D01*
X75934Y-52696D01*
X75934Y-54633D01*
X75380Y-54633D01*
X75380Y-53647D01*
X74838Y-53105D01*
X74449Y-53494D01*
X74449Y-52716D01*
X73907Y-52174D01*
X73818Y-52315D01*
X73742Y-52736D01*
X73818Y-53117D01*
X73907Y-53258D01*
X74449Y-52716D01*
X74449Y-53494D01*
X74296Y-53647D01*
X74437Y-53736D01*
X74858Y-53812D01*
X75239Y-53736D01*
X75380Y-53647D01*
X75380Y-54633D01*
X72400Y-54633D01*
X72400Y-21053D01*
X72324Y-20671D01*
X72235Y-20531D01*
X71846Y-20919D01*
X71846Y-20142D01*
X71706Y-20053D01*
X71285Y-19977D01*
X70903Y-20053D01*
X70762Y-20142D01*
X71304Y-20684D01*
X71846Y-20142D01*
X71846Y-20919D01*
X71693Y-21073D01*
X72235Y-21615D01*
X72324Y-21474D01*
X72400Y-21053D01*
X72400Y-54633D01*
X72181Y-54633D01*
X72123Y-54644D01*
X72075Y-54677D01*
X72042Y-54726D01*
X72031Y-54783D01*
X72031Y-54881D01*
X72031Y-57664D01*
X72025Y-57670D01*
X72025Y-57675D01*
X71897Y-57675D01*
X71897Y-57670D01*
X71878Y-57651D01*
X71846Y-57651D01*
X71846Y-22004D01*
X71304Y-21462D01*
X70915Y-21850D01*
X70915Y-21073D01*
X70373Y-20531D01*
X70284Y-20671D01*
X70208Y-21092D01*
X70284Y-21474D01*
X70373Y-21615D01*
X70915Y-21073D01*
X70915Y-21850D01*
X70762Y-22004D01*
X70903Y-22093D01*
X71324Y-22168D01*
X71706Y-22093D01*
X71846Y-22004D01*
X71846Y-57651D01*
X71818Y-57651D01*
X71790Y-57663D01*
X71785Y-57668D01*
X71784Y-57667D01*
X71755Y-57637D01*
X71746Y-57634D01*
X71775Y-57604D01*
X71809Y-57521D01*
X71810Y-57432D01*
X71775Y-57349D01*
X71712Y-57286D01*
X71629Y-57252D01*
X71540Y-57251D01*
X71526Y-57257D01*
X71526Y-57237D01*
X71491Y-57154D01*
X71428Y-57091D01*
X71345Y-57057D01*
X71256Y-57056D01*
X71173Y-57091D01*
X71110Y-57154D01*
X71076Y-57237D01*
X71075Y-57298D01*
X71051Y-57335D01*
X71039Y-57393D01*
X71039Y-57621D01*
X71024Y-57621D01*
X70986Y-57637D01*
X70956Y-57667D01*
X70956Y-57668D01*
X70950Y-57663D01*
X70922Y-57651D01*
X70862Y-57651D01*
X70844Y-57670D01*
X70844Y-57675D01*
X70716Y-57675D01*
X70716Y-57670D01*
X70697Y-57651D01*
X70637Y-57651D01*
X70609Y-57663D01*
X70597Y-57675D01*
X70568Y-57675D01*
X70556Y-57663D01*
X70529Y-57651D01*
X70469Y-57651D01*
X70450Y-57670D01*
X70450Y-57675D01*
X70322Y-57675D01*
X70322Y-57670D01*
X70303Y-57651D01*
X70243Y-57651D01*
X70215Y-57663D01*
X70210Y-57668D01*
X70209Y-57667D01*
X70180Y-57637D01*
X70158Y-57628D01*
X70158Y-43534D01*
X70158Y-34219D01*
X70147Y-34162D01*
X70147Y-34162D01*
X70114Y-34113D01*
X70114Y-34113D01*
X67631Y-31630D01*
X67631Y-26422D01*
X67592Y-26226D01*
X67526Y-26112D01*
X67143Y-26495D01*
X67526Y-26877D01*
X67592Y-26763D01*
X67631Y-26422D01*
X67631Y-31630D01*
X67137Y-31136D01*
X67137Y-27266D01*
X67137Y-25723D01*
X67023Y-25657D01*
X66682Y-25618D01*
X66486Y-25657D01*
X66372Y-25723D01*
X66755Y-26106D01*
X67137Y-25723D01*
X67137Y-27266D01*
X66755Y-26883D01*
X66372Y-27266D01*
X66486Y-27332D01*
X66827Y-27371D01*
X67023Y-27332D01*
X67137Y-27266D01*
X67137Y-31136D01*
X66366Y-30364D01*
X66366Y-26495D01*
X65983Y-26112D01*
X65917Y-26226D01*
X65878Y-26567D01*
X65917Y-26763D01*
X65983Y-26877D01*
X66366Y-26495D01*
X66366Y-30364D01*
X62320Y-26318D01*
X62271Y-26286D01*
X62214Y-26275D01*
X61727Y-26275D01*
X61697Y-26124D01*
X61604Y-25985D01*
X61464Y-25891D01*
X61300Y-25859D01*
X61135Y-25891D01*
X60995Y-25985D01*
X60902Y-26124D01*
X60870Y-26289D01*
X60870Y-26560D01*
X60902Y-26725D01*
X60995Y-26864D01*
X61135Y-26958D01*
X61300Y-26990D01*
X61464Y-26958D01*
X61604Y-26864D01*
X61697Y-26725D01*
X61727Y-26575D01*
X62151Y-26575D01*
X69858Y-34281D01*
X69858Y-43534D01*
X69858Y-57621D01*
X69843Y-57621D01*
X69805Y-57637D01*
X69795Y-57647D01*
X69786Y-57637D01*
X69764Y-57628D01*
X69764Y-57402D01*
X69753Y-57344D01*
X69753Y-57344D01*
X69740Y-57325D01*
X69721Y-57296D01*
X69721Y-57296D01*
X69533Y-57108D01*
X69533Y-43083D01*
X69521Y-43025D01*
X69521Y-43025D01*
X69508Y-43006D01*
X69489Y-42976D01*
X69489Y-42976D01*
X68754Y-42241D01*
X60730Y-34217D01*
X60730Y-26560D01*
X60730Y-26289D01*
X60697Y-26124D01*
X60604Y-25985D01*
X60464Y-25891D01*
X60300Y-25859D01*
X60135Y-25891D01*
X59995Y-25985D01*
X59902Y-26124D01*
X59870Y-26289D01*
X59870Y-26560D01*
X59902Y-26725D01*
X59995Y-26864D01*
X60135Y-26958D01*
X60300Y-26990D01*
X60464Y-26958D01*
X60604Y-26864D01*
X60697Y-26725D01*
X60730Y-26560D01*
X60730Y-34217D01*
X59730Y-33217D01*
X59730Y-26560D01*
X59730Y-26289D01*
X59697Y-26124D01*
X59604Y-25985D01*
X59464Y-25891D01*
X59300Y-25859D01*
X59135Y-25891D01*
X58995Y-25985D01*
X58902Y-26124D01*
X58870Y-26289D01*
X58870Y-26560D01*
X58902Y-26725D01*
X58995Y-26864D01*
X59135Y-26958D01*
X59300Y-26990D01*
X59464Y-26958D01*
X59604Y-26864D01*
X59697Y-26725D01*
X59730Y-26560D01*
X59730Y-33217D01*
X58730Y-32217D01*
X58730Y-26560D01*
X58730Y-26289D01*
X58697Y-26124D01*
X58604Y-25985D01*
X58525Y-25932D01*
X58525Y-25109D01*
X58529Y-25097D01*
X58529Y-25053D01*
X58530Y-25053D01*
X58529Y-25052D01*
X58530Y-25008D01*
X58512Y-24966D01*
X58495Y-24925D01*
X58464Y-24893D01*
X58432Y-24862D01*
X58391Y-24845D01*
X58391Y-24845D01*
X58349Y-24828D01*
X58305Y-24828D01*
X58304Y-24828D01*
X58260Y-24827D01*
X58177Y-24862D01*
X58145Y-24893D01*
X58145Y-24893D01*
X58145Y-24893D01*
X58114Y-24925D01*
X58099Y-24960D01*
X58099Y-24960D01*
X58092Y-24971D01*
X58089Y-24985D01*
X58080Y-25008D01*
X58080Y-25032D01*
X58074Y-25058D01*
X58075Y-25058D01*
X58075Y-25932D01*
X57995Y-25985D01*
X57902Y-26124D01*
X57870Y-26289D01*
X57870Y-26560D01*
X57902Y-26725D01*
X57995Y-26864D01*
X58135Y-26958D01*
X58300Y-26990D01*
X58464Y-26958D01*
X58604Y-26864D01*
X58697Y-26725D01*
X58730Y-26560D01*
X58730Y-32217D01*
X56652Y-30139D01*
X56652Y-26650D01*
X56652Y-26200D01*
X56650Y-26143D01*
X56563Y-26020D01*
X56517Y-25964D01*
X56462Y-25955D01*
X56462Y-26200D01*
X56652Y-26200D01*
X56652Y-26650D01*
X56462Y-26650D01*
X56462Y-26894D01*
X56517Y-26885D01*
X56563Y-26829D01*
X56650Y-26706D01*
X56652Y-26650D01*
X56652Y-30139D01*
X56137Y-29625D01*
X56137Y-26894D01*
X56137Y-26650D01*
X56137Y-26200D01*
X56137Y-25955D01*
X56082Y-25964D01*
X56036Y-26020D01*
X55949Y-26143D01*
X55947Y-26200D01*
X56137Y-26200D01*
X56137Y-26650D01*
X55947Y-26650D01*
X55949Y-26706D01*
X56036Y-26829D01*
X56082Y-26885D01*
X56137Y-26894D01*
X56137Y-29625D01*
X55652Y-29139D01*
X55652Y-26650D01*
X55652Y-26200D01*
X55650Y-26143D01*
X55563Y-26020D01*
X55517Y-25964D01*
X55462Y-25955D01*
X55462Y-26200D01*
X55652Y-26200D01*
X55652Y-26650D01*
X55462Y-26650D01*
X55462Y-26894D01*
X55517Y-26885D01*
X55563Y-26829D01*
X55650Y-26706D01*
X55652Y-26650D01*
X55652Y-29139D01*
X55137Y-28625D01*
X55137Y-26894D01*
X55137Y-26650D01*
X55137Y-26200D01*
X55137Y-25955D01*
X55082Y-25964D01*
X55036Y-26020D01*
X54949Y-26143D01*
X54947Y-26200D01*
X55137Y-26200D01*
X55137Y-26650D01*
X54947Y-26650D01*
X54949Y-26706D01*
X55036Y-26829D01*
X55082Y-26885D01*
X55137Y-26894D01*
X55137Y-28625D01*
X53715Y-27202D01*
X53715Y-26260D01*
X53715Y-24992D01*
X53715Y-22987D01*
X53703Y-22929D01*
X53703Y-22929D01*
X53690Y-22910D01*
X53671Y-22880D01*
X53671Y-22880D01*
X53630Y-22840D01*
X53631Y-22783D01*
X53596Y-22700D01*
X53533Y-22637D01*
X53450Y-22603D01*
X53361Y-22602D01*
X53278Y-22637D01*
X53215Y-22700D01*
X53181Y-22783D01*
X53180Y-22872D01*
X53215Y-22955D01*
X53278Y-23018D01*
X53361Y-23052D01*
X53415Y-23053D01*
X53415Y-23248D01*
X53030Y-22864D01*
X53031Y-22807D01*
X52996Y-22724D01*
X52933Y-22661D01*
X52850Y-22627D01*
X52761Y-22626D01*
X52678Y-22661D01*
X52618Y-22721D01*
X52616Y-22718D01*
X52553Y-22655D01*
X52470Y-22621D01*
X52381Y-22620D01*
X52298Y-22655D01*
X52235Y-22718D01*
X52201Y-22801D01*
X52200Y-22890D01*
X52235Y-22973D01*
X52298Y-23036D01*
X52381Y-23070D01*
X52438Y-23071D01*
X53074Y-23707D01*
X53074Y-25040D01*
X53074Y-26358D01*
X53074Y-27405D01*
X53086Y-27463D01*
X53118Y-27511D01*
X67148Y-41540D01*
X67148Y-41540D01*
X68589Y-42982D01*
X68589Y-56721D01*
X67934Y-57377D01*
X67901Y-57426D01*
X67890Y-57483D01*
X67890Y-57621D01*
X67875Y-57621D01*
X67836Y-57637D01*
X67807Y-57667D01*
X67806Y-57668D01*
X67800Y-57663D01*
X67773Y-57651D01*
X67713Y-57651D01*
X67694Y-57670D01*
X67694Y-57675D01*
X67566Y-57675D01*
X67566Y-57670D01*
X67547Y-57651D01*
X67487Y-57651D01*
X67460Y-57663D01*
X67448Y-57675D01*
X67419Y-57675D01*
X67407Y-57663D01*
X67379Y-57651D01*
X67319Y-57651D01*
X67300Y-57670D01*
X67300Y-57675D01*
X67277Y-57675D01*
X67277Y-45288D01*
X67238Y-45092D01*
X67172Y-44978D01*
X66789Y-45361D01*
X67172Y-45743D01*
X67238Y-45629D01*
X67277Y-45288D01*
X67277Y-57675D01*
X67172Y-57675D01*
X67172Y-57670D01*
X67154Y-57651D01*
X67093Y-57651D01*
X67066Y-57663D01*
X67060Y-57668D01*
X67060Y-57667D01*
X67030Y-57637D01*
X67009Y-57628D01*
X67009Y-57199D01*
X67009Y-57199D01*
X67009Y-57199D01*
X67006Y-57187D01*
X66997Y-57141D01*
X66997Y-57141D01*
X66965Y-57092D01*
X66965Y-57092D01*
X66783Y-56911D01*
X66783Y-46132D01*
X66783Y-44589D01*
X66669Y-44523D01*
X66328Y-44484D01*
X66132Y-44523D01*
X66018Y-44589D01*
X66401Y-44972D01*
X66783Y-44589D01*
X66783Y-46132D01*
X66401Y-45749D01*
X66018Y-46132D01*
X66132Y-46198D01*
X66473Y-46237D01*
X66669Y-46198D01*
X66783Y-46132D01*
X66783Y-56911D01*
X66012Y-56139D01*
X66012Y-45361D01*
X65629Y-44978D01*
X65563Y-45092D01*
X65524Y-45433D01*
X65563Y-45629D01*
X65629Y-45743D01*
X66012Y-45361D01*
X66012Y-56139D01*
X65919Y-56046D01*
X65870Y-56014D01*
X65812Y-56002D01*
X64225Y-56002D01*
X63803Y-55581D01*
X63877Y-55550D01*
X63940Y-55487D01*
X63974Y-55404D01*
X63975Y-55315D01*
X63940Y-55232D01*
X63877Y-55169D01*
X63794Y-55135D01*
X63737Y-55134D01*
X63230Y-54627D01*
X63230Y-45560D01*
X63230Y-45289D01*
X63197Y-45124D01*
X63104Y-44985D01*
X62964Y-44891D01*
X62800Y-44859D01*
X62635Y-44891D01*
X62495Y-44985D01*
X62402Y-45124D01*
X62370Y-45289D01*
X62370Y-45560D01*
X62402Y-45725D01*
X62495Y-45864D01*
X62635Y-45958D01*
X62800Y-45990D01*
X62964Y-45958D01*
X63104Y-45864D01*
X63197Y-45725D01*
X63230Y-45560D01*
X63230Y-54627D01*
X62901Y-54298D01*
X62901Y-46949D01*
X62883Y-46907D01*
X62866Y-46866D01*
X62835Y-46834D01*
X62835Y-46834D01*
X62835Y-46834D01*
X62803Y-46803D01*
X62762Y-46786D01*
X62762Y-46786D01*
X62762Y-46786D01*
X62720Y-46769D01*
X62676Y-46769D01*
X62675Y-46769D01*
X62631Y-46768D01*
X62631Y-46769D01*
X62152Y-46769D01*
X62152Y-45650D01*
X62152Y-45200D01*
X62150Y-45143D01*
X62063Y-45020D01*
X62017Y-44964D01*
X61962Y-44955D01*
X61962Y-45200D01*
X62152Y-45200D01*
X62152Y-45650D01*
X61962Y-45650D01*
X61962Y-45894D01*
X62017Y-45885D01*
X62063Y-45829D01*
X62150Y-45706D01*
X62152Y-45650D01*
X62152Y-46769D01*
X61637Y-46769D01*
X61637Y-45894D01*
X61637Y-45650D01*
X61637Y-45200D01*
X61637Y-44955D01*
X61582Y-44964D01*
X61536Y-45020D01*
X61449Y-45143D01*
X61447Y-45200D01*
X61637Y-45200D01*
X61637Y-45650D01*
X61447Y-45650D01*
X61449Y-45706D01*
X61536Y-45829D01*
X61582Y-45885D01*
X61637Y-45894D01*
X61637Y-46769D01*
X61230Y-46769D01*
X61230Y-45560D01*
X61230Y-45289D01*
X61197Y-45124D01*
X61104Y-44985D01*
X60964Y-44891D01*
X60950Y-44888D01*
X60950Y-42830D01*
X60949Y-42829D01*
X60950Y-42829D01*
X60947Y-42818D01*
X60938Y-42772D01*
X60938Y-42772D01*
X60906Y-42723D01*
X60906Y-42723D01*
X53928Y-35746D01*
X53879Y-35713D01*
X53822Y-35702D01*
X47783Y-35702D01*
X47783Y-34762D01*
X47713Y-34595D01*
X47586Y-34466D01*
X47418Y-34397D01*
X47237Y-34397D01*
X47070Y-34466D01*
X46942Y-34594D01*
X46873Y-34761D01*
X46872Y-34942D01*
X46941Y-35109D01*
X47069Y-35237D01*
X47237Y-35307D01*
X47418Y-35307D01*
X47585Y-35238D01*
X47713Y-35110D01*
X47782Y-34943D01*
X47783Y-34762D01*
X47783Y-35702D01*
X47758Y-35702D01*
X47713Y-35595D01*
X47586Y-35466D01*
X47418Y-35397D01*
X47237Y-35397D01*
X47070Y-35466D01*
X46942Y-35594D01*
X46873Y-35761D01*
X46872Y-35942D01*
X46941Y-36109D01*
X47069Y-36237D01*
X47237Y-36307D01*
X47418Y-36307D01*
X47585Y-36238D01*
X47713Y-36110D01*
X47758Y-36002D01*
X53760Y-36002D01*
X60650Y-42892D01*
X60650Y-44888D01*
X60635Y-44891D01*
X60495Y-44985D01*
X60402Y-45124D01*
X60370Y-45289D01*
X60370Y-45560D01*
X60402Y-45725D01*
X60495Y-45864D01*
X60635Y-45958D01*
X60800Y-45990D01*
X60964Y-45958D01*
X61104Y-45864D01*
X61197Y-45725D01*
X61230Y-45560D01*
X61230Y-46769D01*
X56472Y-46769D01*
X56462Y-46759D01*
X56421Y-46742D01*
X56421Y-46742D01*
X56379Y-46725D01*
X56335Y-46725D01*
X56335Y-46724D01*
X56334Y-46725D01*
X56290Y-46724D01*
X56207Y-46759D01*
X56175Y-46790D01*
X56175Y-46790D01*
X56175Y-46790D01*
X56144Y-46822D01*
X56127Y-46863D01*
X56127Y-46863D01*
X56127Y-46863D01*
X56110Y-46905D01*
X56110Y-46949D01*
X56109Y-46950D01*
X56110Y-46950D01*
X56109Y-46994D01*
X56144Y-47077D01*
X56175Y-47109D01*
X56175Y-47109D01*
X56176Y-47109D01*
X56207Y-47140D01*
X56207Y-47140D01*
X56219Y-47153D01*
X56219Y-47153D01*
X56292Y-47201D01*
X56379Y-47219D01*
X62676Y-47219D01*
X62676Y-47218D01*
X62720Y-47219D01*
X62762Y-47201D01*
X62803Y-47184D01*
X62835Y-47153D01*
X62835Y-47153D01*
X62835Y-47153D01*
X62866Y-47121D01*
X62883Y-47080D01*
X62883Y-47080D01*
X62883Y-47080D01*
X62900Y-47038D01*
X62900Y-46994D01*
X62901Y-46994D01*
X62900Y-46993D01*
X62901Y-46949D01*
X62901Y-54298D01*
X55950Y-47347D01*
X55950Y-45961D01*
X55964Y-45958D01*
X56104Y-45864D01*
X56197Y-45725D01*
X56230Y-45560D01*
X56230Y-45289D01*
X56197Y-45124D01*
X56104Y-44985D01*
X55964Y-44891D01*
X55950Y-44888D01*
X55950Y-40387D01*
X56650Y-41087D01*
X56650Y-44888D01*
X56635Y-44891D01*
X56495Y-44985D01*
X56402Y-45124D01*
X56370Y-45289D01*
X56370Y-45560D01*
X56402Y-45725D01*
X56495Y-45864D01*
X56635Y-45958D01*
X56800Y-45990D01*
X56964Y-45958D01*
X57104Y-45864D01*
X57197Y-45725D01*
X57230Y-45560D01*
X57230Y-45289D01*
X57197Y-45124D01*
X57104Y-44985D01*
X56964Y-44891D01*
X56950Y-44888D01*
X56950Y-41146D01*
X57650Y-41846D01*
X57650Y-44888D01*
X57635Y-44891D01*
X57495Y-44985D01*
X57402Y-45124D01*
X57370Y-45289D01*
X57370Y-45560D01*
X57402Y-45725D01*
X57495Y-45864D01*
X57635Y-45958D01*
X57800Y-45990D01*
X57964Y-45958D01*
X58104Y-45864D01*
X58197Y-45725D01*
X58230Y-45560D01*
X58230Y-45289D01*
X58197Y-45124D01*
X58104Y-44985D01*
X57964Y-44891D01*
X57950Y-44888D01*
X57950Y-41906D01*
X58650Y-42606D01*
X58650Y-44888D01*
X58635Y-44891D01*
X58495Y-44985D01*
X58402Y-45124D01*
X58370Y-45289D01*
X58370Y-45560D01*
X58402Y-45725D01*
X58495Y-45864D01*
X58635Y-45958D01*
X58800Y-45990D01*
X58964Y-45958D01*
X59104Y-45864D01*
X59197Y-45725D01*
X59230Y-45560D01*
X59230Y-45289D01*
X59197Y-45124D01*
X59104Y-44985D01*
X58964Y-44891D01*
X58950Y-44888D01*
X58950Y-42666D01*
X59650Y-43366D01*
X59650Y-44888D01*
X59635Y-44891D01*
X59495Y-44985D01*
X59402Y-45124D01*
X59370Y-45289D01*
X59370Y-45560D01*
X59402Y-45725D01*
X59495Y-45864D01*
X59635Y-45958D01*
X59800Y-45990D01*
X59964Y-45958D01*
X60104Y-45864D01*
X60197Y-45725D01*
X60230Y-45560D01*
X60230Y-45289D01*
X60197Y-45124D01*
X60104Y-44985D01*
X59964Y-44891D01*
X59950Y-44888D01*
X59950Y-43304D01*
X59938Y-43246D01*
X59938Y-43246D01*
X59906Y-43197D01*
X53454Y-36746D01*
X53405Y-36713D01*
X53348Y-36702D01*
X47758Y-36702D01*
X47713Y-36595D01*
X47586Y-36466D01*
X47418Y-36397D01*
X47237Y-36397D01*
X47070Y-36466D01*
X46965Y-36571D01*
X46965Y-36324D01*
X46953Y-36266D01*
X46953Y-36266D01*
X46921Y-36217D01*
X46921Y-36217D01*
X46742Y-36039D01*
X46782Y-35943D01*
X46783Y-35762D01*
X46754Y-35692D01*
X46754Y-34774D01*
X46751Y-34761D01*
X46717Y-34710D01*
X46575Y-34852D01*
X46717Y-34994D01*
X46751Y-34943D01*
X46754Y-34774D01*
X46754Y-35692D01*
X46713Y-35595D01*
X46586Y-35466D01*
X46469Y-35418D01*
X46469Y-35241D01*
X46469Y-34462D01*
X46419Y-34428D01*
X46250Y-34426D01*
X46236Y-34428D01*
X46185Y-34462D01*
X46327Y-34604D01*
X46469Y-34462D01*
X46469Y-35241D01*
X46327Y-35099D01*
X46185Y-35241D01*
X46236Y-35276D01*
X46405Y-35278D01*
X46419Y-35276D01*
X46469Y-35241D01*
X46469Y-35418D01*
X46418Y-35397D01*
X46237Y-35397D01*
X46080Y-35462D01*
X46080Y-34852D01*
X45938Y-34710D01*
X45904Y-34761D01*
X45901Y-34930D01*
X45904Y-34943D01*
X45938Y-34994D01*
X46080Y-34852D01*
X46080Y-35462D01*
X46070Y-35466D01*
X45942Y-35594D01*
X45873Y-35761D01*
X45872Y-35942D01*
X45941Y-36109D01*
X46069Y-36237D01*
X46237Y-36307D01*
X46418Y-36307D01*
X46537Y-36258D01*
X46665Y-36386D01*
X46665Y-36546D01*
X46586Y-36466D01*
X46418Y-36397D01*
X46237Y-36397D01*
X46123Y-36444D01*
X45795Y-36116D01*
X45795Y-32583D01*
X46771Y-31607D01*
X52884Y-31607D01*
X52884Y-31606D01*
X52928Y-31607D01*
X52970Y-31589D01*
X53011Y-31572D01*
X53043Y-31541D01*
X53043Y-31541D01*
X53043Y-31541D01*
X53074Y-31509D01*
X53091Y-31468D01*
X53091Y-31468D01*
X53091Y-31468D01*
X53108Y-31426D01*
X53108Y-31382D01*
X53109Y-31382D01*
X53108Y-31381D01*
X53109Y-31337D01*
X53091Y-31295D01*
X53074Y-31254D01*
X53045Y-31225D01*
X53098Y-31225D01*
X63650Y-41776D01*
X63650Y-44888D01*
X63635Y-44891D01*
X63495Y-44985D01*
X63402Y-45124D01*
X63370Y-45289D01*
X63370Y-45560D01*
X63402Y-45725D01*
X63495Y-45864D01*
X63635Y-45958D01*
X63800Y-45990D01*
X63964Y-45958D01*
X64104Y-45864D01*
X64197Y-45725D01*
X64230Y-45560D01*
X64230Y-45289D01*
X64197Y-45124D01*
X64104Y-44985D01*
X63964Y-44891D01*
X63950Y-44888D01*
X63950Y-41836D01*
X64650Y-42536D01*
X64650Y-44888D01*
X64635Y-44891D01*
X64495Y-44985D01*
X64402Y-45124D01*
X64370Y-45289D01*
X64370Y-45560D01*
X64402Y-45725D01*
X64495Y-45864D01*
X64635Y-45958D01*
X64800Y-45990D01*
X64964Y-45958D01*
X65104Y-45864D01*
X65197Y-45725D01*
X65230Y-45560D01*
X65230Y-45289D01*
X65197Y-45124D01*
X65104Y-44985D01*
X64964Y-44891D01*
X64950Y-44888D01*
X64950Y-42474D01*
X64938Y-42416D01*
X64938Y-42416D01*
X64906Y-42367D01*
X53337Y-30798D01*
X53288Y-30766D01*
X53231Y-30755D01*
X52730Y-30755D01*
X52730Y-26560D01*
X52730Y-26289D01*
X52697Y-26124D01*
X52604Y-25985D01*
X52464Y-25891D01*
X52300Y-25859D01*
X52135Y-25891D01*
X51995Y-25985D01*
X51902Y-26124D01*
X51870Y-26289D01*
X51870Y-26560D01*
X51902Y-26725D01*
X51995Y-26864D01*
X52135Y-26958D01*
X52300Y-26990D01*
X52464Y-26958D01*
X52604Y-26864D01*
X52697Y-26725D01*
X52730Y-26560D01*
X52730Y-30755D01*
X51730Y-30755D01*
X51730Y-26560D01*
X51730Y-26289D01*
X51697Y-26124D01*
X51604Y-25985D01*
X51464Y-25891D01*
X51300Y-25859D01*
X51135Y-25891D01*
X50995Y-25985D01*
X50902Y-26124D01*
X50870Y-26289D01*
X50870Y-26560D01*
X50902Y-26725D01*
X50995Y-26864D01*
X51135Y-26958D01*
X51300Y-26990D01*
X51464Y-26958D01*
X51604Y-26864D01*
X51697Y-26725D01*
X51730Y-26560D01*
X51730Y-30755D01*
X50730Y-30755D01*
X50730Y-26560D01*
X50730Y-26289D01*
X50697Y-26124D01*
X50604Y-25985D01*
X50464Y-25891D01*
X50391Y-25877D01*
X50391Y-24582D01*
X50315Y-24201D01*
X50226Y-24060D01*
X49837Y-24449D01*
X49837Y-23671D01*
X49696Y-23582D01*
X49275Y-23506D01*
X48894Y-23582D01*
X48753Y-23671D01*
X49295Y-24213D01*
X49837Y-23671D01*
X49837Y-24449D01*
X49684Y-24602D01*
X50226Y-25144D01*
X50315Y-25003D01*
X50391Y-24582D01*
X50391Y-25877D01*
X50300Y-25859D01*
X50135Y-25891D01*
X49995Y-25985D01*
X49902Y-26124D01*
X49870Y-26289D01*
X49870Y-26560D01*
X49902Y-26725D01*
X49995Y-26864D01*
X50135Y-26958D01*
X50300Y-26990D01*
X50464Y-26958D01*
X50604Y-26864D01*
X50697Y-26725D01*
X50730Y-26560D01*
X50730Y-30755D01*
X49837Y-30755D01*
X49837Y-25533D01*
X49295Y-24991D01*
X48906Y-25380D01*
X48906Y-24602D01*
X48364Y-24060D01*
X48275Y-24201D01*
X48199Y-24622D01*
X48275Y-25003D01*
X48364Y-25144D01*
X48906Y-24602D01*
X48906Y-25380D01*
X48753Y-25533D01*
X48894Y-25622D01*
X49315Y-25698D01*
X49696Y-25622D01*
X49837Y-25533D01*
X49837Y-30755D01*
X49730Y-30755D01*
X49730Y-26560D01*
X49730Y-26289D01*
X49697Y-26124D01*
X49604Y-25985D01*
X49464Y-25891D01*
X49300Y-25859D01*
X49135Y-25891D01*
X48995Y-25985D01*
X48902Y-26124D01*
X48870Y-26289D01*
X48870Y-26560D01*
X48902Y-26725D01*
X48995Y-26864D01*
X49135Y-26958D01*
X49300Y-26990D01*
X49464Y-26958D01*
X49604Y-26864D01*
X49697Y-26725D01*
X49730Y-26560D01*
X49730Y-30755D01*
X48730Y-30755D01*
X48730Y-26560D01*
X48730Y-26289D01*
X48697Y-26124D01*
X48604Y-25985D01*
X48464Y-25891D01*
X48300Y-25859D01*
X48135Y-25891D01*
X47995Y-25985D01*
X47902Y-26124D01*
X47870Y-26289D01*
X47870Y-26560D01*
X47902Y-26725D01*
X47995Y-26864D01*
X48135Y-26958D01*
X48300Y-26990D01*
X48464Y-26958D01*
X48604Y-26864D01*
X48697Y-26725D01*
X48730Y-26560D01*
X48730Y-30755D01*
X47730Y-30755D01*
X47730Y-26560D01*
X47730Y-26289D01*
X47697Y-26124D01*
X47604Y-25985D01*
X47464Y-25891D01*
X47300Y-25859D01*
X47135Y-25891D01*
X46995Y-25985D01*
X46902Y-26124D01*
X46870Y-26289D01*
X46870Y-26560D01*
X46902Y-26725D01*
X46995Y-26864D01*
X47135Y-26958D01*
X47300Y-26990D01*
X47464Y-26958D01*
X47604Y-26864D01*
X47697Y-26725D01*
X47730Y-26560D01*
X47730Y-30755D01*
X47246Y-30755D01*
X47246Y-28348D01*
X47207Y-28152D01*
X47141Y-28038D01*
X46758Y-28421D01*
X47141Y-28803D01*
X47207Y-28689D01*
X47246Y-28348D01*
X47246Y-30755D01*
X46987Y-30755D01*
X46752Y-30520D01*
X46752Y-29192D01*
X46752Y-27649D01*
X46638Y-27583D01*
X46297Y-27544D01*
X46101Y-27583D01*
X45987Y-27649D01*
X46370Y-28032D01*
X46752Y-27649D01*
X46752Y-29192D01*
X46370Y-28809D01*
X45987Y-29192D01*
X46101Y-29258D01*
X46442Y-29297D01*
X46638Y-29258D01*
X46752Y-29192D01*
X46752Y-30520D01*
X45981Y-29748D01*
X45981Y-28421D01*
X45976Y-28416D01*
X45976Y-20936D01*
X45976Y-19936D01*
X45972Y-19914D01*
X45940Y-19871D01*
X45812Y-20000D01*
X45940Y-20128D01*
X45972Y-20085D01*
X45976Y-19936D01*
X45976Y-20936D01*
X45972Y-20914D01*
X45940Y-20871D01*
X45812Y-21000D01*
X45940Y-21128D01*
X45972Y-21085D01*
X45976Y-20936D01*
X45976Y-28416D01*
X45728Y-28168D01*
X45728Y-21340D01*
X45728Y-20659D01*
X45728Y-20340D01*
X45728Y-19659D01*
X45685Y-19627D01*
X45536Y-19623D01*
X45514Y-19627D01*
X45471Y-19659D01*
X45600Y-19787D01*
X45728Y-19659D01*
X45728Y-20340D01*
X45600Y-20212D01*
X45471Y-20340D01*
X45514Y-20372D01*
X45663Y-20376D01*
X45685Y-20372D01*
X45728Y-20340D01*
X45728Y-20659D01*
X45685Y-20627D01*
X45536Y-20623D01*
X45514Y-20627D01*
X45471Y-20659D01*
X45600Y-20787D01*
X45728Y-20659D01*
X45728Y-21340D01*
X45600Y-21212D01*
X45471Y-21340D01*
X45514Y-21372D01*
X45663Y-21376D01*
X45685Y-21372D01*
X45728Y-21340D01*
X45728Y-28168D01*
X45598Y-28038D01*
X45532Y-28152D01*
X45493Y-28493D01*
X45532Y-28689D01*
X45598Y-28803D01*
X45981Y-28421D01*
X45981Y-29748D01*
X45387Y-29155D01*
X45387Y-21000D01*
X45387Y-20000D01*
X45259Y-19871D01*
X45227Y-19914D01*
X45223Y-20063D01*
X45227Y-20085D01*
X45259Y-20128D01*
X45387Y-20000D01*
X45387Y-21000D01*
X45259Y-20871D01*
X45227Y-20914D01*
X45223Y-21063D01*
X45227Y-21085D01*
X45259Y-21128D01*
X45387Y-21000D01*
X45387Y-29155D01*
X44750Y-28517D01*
X44750Y-21376D01*
X44829Y-21343D01*
X44943Y-21229D01*
X45004Y-21080D01*
X45005Y-20919D01*
X44943Y-20770D01*
X44829Y-20656D01*
X44680Y-20595D01*
X44519Y-20594D01*
X44396Y-20646D01*
X44637Y-20405D01*
X44680Y-20405D01*
X44829Y-20343D01*
X44943Y-20229D01*
X45004Y-20080D01*
X45005Y-19919D01*
X44943Y-19770D01*
X44829Y-19656D01*
X44680Y-19595D01*
X44519Y-19594D01*
X44370Y-19656D01*
X44256Y-19770D01*
X44195Y-19919D01*
X44194Y-20080D01*
X44256Y-20229D01*
X44322Y-20295D01*
X44048Y-20568D01*
X44016Y-20617D01*
X44005Y-20674D01*
X44005Y-19919D01*
X43943Y-19770D01*
X43829Y-19656D01*
X43680Y-19595D01*
X43519Y-19594D01*
X43370Y-19656D01*
X43256Y-19770D01*
X43195Y-19919D01*
X43194Y-20080D01*
X43256Y-20229D01*
X43370Y-20343D01*
X43519Y-20404D01*
X43680Y-20405D01*
X43829Y-20343D01*
X43943Y-20229D01*
X44004Y-20080D01*
X44005Y-19919D01*
X44005Y-20674D01*
X44005Y-20675D01*
X44005Y-20919D01*
X43943Y-20770D01*
X43829Y-20656D01*
X43680Y-20595D01*
X43519Y-20594D01*
X43370Y-20656D01*
X43256Y-20770D01*
X43195Y-20919D01*
X43194Y-21080D01*
X43256Y-21229D01*
X43370Y-21343D01*
X43519Y-21404D01*
X43680Y-21405D01*
X43829Y-21343D01*
X43943Y-21229D01*
X44004Y-21080D01*
X44005Y-21000D01*
X44005Y-28390D01*
X44016Y-28447D01*
X44048Y-28496D01*
X46709Y-31157D01*
X46678Y-31157D01*
X46591Y-31174D01*
X46518Y-31222D01*
X46518Y-31222D01*
X45446Y-32295D01*
X45446Y-32235D01*
X45434Y-32178D01*
X45434Y-32178D01*
X45402Y-32129D01*
X42263Y-28990D01*
X42263Y-21443D01*
X42263Y-21386D01*
X42263Y-21235D01*
X42370Y-21343D01*
X42519Y-21404D01*
X42680Y-21405D01*
X42829Y-21343D01*
X42943Y-21229D01*
X43004Y-21080D01*
X43005Y-20919D01*
X42943Y-20770D01*
X42829Y-20656D01*
X42680Y-20595D01*
X42564Y-20594D01*
X42706Y-20453D01*
X42706Y-20453D01*
X42706Y-20453D01*
X42738Y-20404D01*
X42738Y-20404D01*
X42743Y-20378D01*
X42829Y-20343D01*
X42943Y-20229D01*
X43004Y-20080D01*
X43005Y-19919D01*
X42943Y-19770D01*
X42829Y-19656D01*
X42680Y-19595D01*
X42519Y-19594D01*
X42370Y-19656D01*
X42256Y-19770D01*
X42195Y-19919D01*
X42194Y-20080D01*
X42256Y-20229D01*
X42370Y-20343D01*
X42385Y-20349D01*
X42006Y-20727D01*
X42005Y-20730D01*
X42005Y-20679D01*
X41989Y-20640D01*
X41959Y-20611D01*
X41920Y-20595D01*
X41879Y-20594D01*
X41279Y-20594D01*
X41240Y-20610D01*
X41211Y-20640D01*
X41195Y-20679D01*
X41194Y-20720D01*
X41194Y-21314D01*
X41113Y-21232D01*
X41113Y-20300D01*
X41235Y-20177D01*
X41256Y-20229D01*
X41370Y-20343D01*
X41519Y-20404D01*
X41680Y-20405D01*
X41829Y-20343D01*
X41943Y-20229D01*
X42004Y-20080D01*
X42005Y-19919D01*
X41943Y-19770D01*
X41829Y-19656D01*
X41680Y-19595D01*
X41519Y-19594D01*
X41370Y-19656D01*
X41256Y-19770D01*
X41223Y-19850D01*
X41201Y-19850D01*
X41143Y-19861D01*
X41094Y-19893D01*
X41094Y-19893D01*
X40856Y-20131D01*
X40824Y-20180D01*
X40813Y-20238D01*
X40813Y-21295D01*
X40824Y-21352D01*
X40856Y-21401D01*
X41622Y-22167D01*
X41622Y-29071D01*
X39576Y-27025D01*
X39576Y-26536D01*
X39572Y-26514D01*
X39540Y-26471D01*
X39412Y-26600D01*
X39540Y-26728D01*
X39572Y-26685D01*
X39576Y-26536D01*
X39576Y-27025D01*
X39550Y-26998D01*
X39501Y-26966D01*
X39444Y-26955D01*
X39308Y-26955D01*
X39328Y-26940D01*
X39328Y-26259D01*
X39285Y-26227D01*
X39136Y-26223D01*
X39114Y-26227D01*
X39071Y-26259D01*
X39200Y-26387D01*
X39328Y-26259D01*
X39328Y-26940D01*
X39200Y-26812D01*
X39071Y-26940D01*
X39091Y-26955D01*
X38987Y-26955D01*
X38987Y-26600D01*
X38859Y-26471D01*
X38827Y-26514D01*
X38823Y-26663D01*
X38827Y-26685D01*
X38859Y-26728D01*
X38987Y-26600D01*
X38987Y-26955D01*
X38576Y-26955D01*
X38576Y-26536D01*
X38572Y-26514D01*
X38540Y-26471D01*
X38412Y-26600D01*
X38540Y-26728D01*
X38572Y-26685D01*
X38576Y-26536D01*
X38576Y-26955D01*
X38308Y-26955D01*
X38328Y-26940D01*
X38328Y-26259D01*
X38285Y-26227D01*
X38136Y-26223D01*
X38114Y-26227D01*
X38071Y-26259D01*
X38200Y-26387D01*
X38328Y-26259D01*
X38328Y-26940D01*
X38200Y-26812D01*
X38071Y-26940D01*
X38114Y-26972D01*
X38224Y-26975D01*
X38189Y-26998D01*
X38189Y-26998D01*
X38093Y-27094D01*
X38061Y-27143D01*
X38050Y-27201D01*
X38050Y-27223D01*
X37987Y-27249D01*
X37987Y-26600D01*
X37859Y-26471D01*
X37827Y-26514D01*
X37823Y-26663D01*
X37827Y-26685D01*
X37859Y-26728D01*
X37987Y-26600D01*
X37987Y-27249D01*
X37970Y-27256D01*
X37856Y-27370D01*
X37795Y-27519D01*
X37794Y-27680D01*
X37856Y-27829D01*
X37970Y-27943D01*
X38119Y-28004D01*
X38252Y-28005D01*
X38093Y-28163D01*
X38061Y-28212D01*
X38060Y-28219D01*
X37970Y-28256D01*
X37856Y-28370D01*
X37795Y-28519D01*
X37794Y-28680D01*
X37856Y-28829D01*
X37970Y-28943D01*
X38119Y-29004D01*
X38227Y-29005D01*
X38213Y-29013D01*
X38213Y-29013D01*
X38093Y-29133D01*
X38061Y-29182D01*
X38053Y-29222D01*
X37970Y-29256D01*
X37856Y-29370D01*
X37795Y-29519D01*
X37794Y-29680D01*
X37856Y-29829D01*
X37970Y-29943D01*
X38119Y-30004D01*
X38280Y-30005D01*
X38293Y-29999D01*
X38093Y-30198D01*
X38087Y-30208D01*
X37970Y-30256D01*
X37856Y-30370D01*
X37795Y-30519D01*
X37794Y-30680D01*
X37856Y-30829D01*
X37970Y-30943D01*
X38119Y-31004D01*
X38280Y-31005D01*
X38429Y-30943D01*
X38543Y-30829D01*
X38604Y-30680D01*
X38605Y-30519D01*
X38543Y-30370D01*
X38444Y-30272D01*
X38477Y-30240D01*
X38811Y-30240D01*
X38811Y-30240D01*
X38795Y-30279D01*
X38794Y-30320D01*
X38794Y-30920D01*
X38810Y-30959D01*
X38840Y-30988D01*
X38879Y-31004D01*
X38920Y-31005D01*
X39520Y-31005D01*
X39559Y-30989D01*
X39588Y-30959D01*
X39604Y-30920D01*
X39605Y-30879D01*
X39605Y-30750D01*
X39929Y-30750D01*
X43420Y-34240D01*
X43420Y-36576D01*
X43420Y-38879D01*
X39576Y-35036D01*
X39576Y-34558D01*
X39572Y-34536D01*
X39540Y-34493D01*
X39412Y-34622D01*
X39540Y-34750D01*
X39572Y-34707D01*
X39576Y-34558D01*
X39576Y-35036D01*
X39546Y-35005D01*
X39497Y-34973D01*
X39440Y-34962D01*
X39328Y-34962D01*
X39328Y-34281D01*
X39285Y-34249D01*
X39136Y-34245D01*
X39114Y-34249D01*
X39071Y-34281D01*
X39200Y-34409D01*
X39328Y-34281D01*
X39328Y-34962D01*
X39327Y-34962D01*
X39200Y-34834D01*
X39072Y-34962D01*
X38987Y-34962D01*
X38987Y-34622D01*
X38859Y-34493D01*
X38827Y-34536D01*
X38823Y-34685D01*
X38827Y-34707D01*
X38859Y-34750D01*
X38987Y-34622D01*
X38987Y-34962D01*
X38576Y-34962D01*
X38576Y-34558D01*
X38572Y-34536D01*
X38540Y-34493D01*
X38412Y-34622D01*
X38540Y-34750D01*
X38572Y-34707D01*
X38576Y-34558D01*
X38576Y-34962D01*
X38338Y-34962D01*
X38325Y-34964D01*
X38328Y-34962D01*
X38328Y-34281D01*
X38285Y-34249D01*
X38136Y-34245D01*
X38114Y-34249D01*
X38071Y-34281D01*
X38200Y-34409D01*
X38328Y-34281D01*
X38328Y-34962D01*
X38200Y-34834D01*
X38071Y-34962D01*
X38114Y-34994D01*
X38243Y-34998D01*
X38231Y-35005D01*
X38093Y-35143D01*
X38061Y-35192D01*
X38050Y-35245D01*
X37987Y-35271D01*
X37987Y-34622D01*
X37859Y-34493D01*
X37827Y-34536D01*
X37823Y-34685D01*
X37827Y-34707D01*
X37859Y-34750D01*
X37987Y-34622D01*
X37987Y-35271D01*
X37970Y-35278D01*
X37856Y-35392D01*
X37795Y-35541D01*
X37794Y-35702D01*
X37856Y-35851D01*
X37970Y-35965D01*
X38119Y-36026D01*
X38250Y-36027D01*
X38093Y-36183D01*
X38061Y-36232D01*
X38059Y-36241D01*
X37970Y-36278D01*
X37856Y-36392D01*
X37795Y-36541D01*
X37794Y-36702D01*
X37856Y-36851D01*
X37970Y-36965D01*
X38119Y-37026D01*
X38280Y-37027D01*
X38429Y-36965D01*
X38543Y-36851D01*
X38604Y-36702D01*
X38605Y-36541D01*
X38543Y-36392D01*
X38429Y-36278D01*
X38425Y-36277D01*
X38492Y-36210D01*
X39461Y-36210D01*
X39724Y-36472D01*
X39576Y-36472D01*
X39543Y-36392D01*
X39429Y-36278D01*
X39280Y-36217D01*
X39119Y-36216D01*
X38970Y-36278D01*
X38856Y-36392D01*
X38795Y-36541D01*
X38794Y-36702D01*
X38856Y-36851D01*
X38955Y-36950D01*
X38500Y-36950D01*
X38499Y-36950D01*
X38488Y-36952D01*
X38442Y-36961D01*
X38393Y-36993D01*
X38393Y-36993D01*
X38170Y-37217D01*
X38119Y-37216D01*
X37970Y-37278D01*
X37856Y-37392D01*
X37795Y-37541D01*
X37794Y-37702D01*
X37856Y-37851D01*
X37970Y-37965D01*
X38119Y-38026D01*
X38280Y-38027D01*
X38281Y-38026D01*
X38093Y-38213D01*
X38081Y-38232D01*
X37970Y-38278D01*
X37856Y-38392D01*
X37795Y-38541D01*
X37794Y-38702D01*
X37856Y-38851D01*
X37970Y-38965D01*
X38119Y-39026D01*
X38280Y-39027D01*
X38429Y-38965D01*
X38543Y-38851D01*
X38604Y-38702D01*
X38605Y-38541D01*
X38543Y-38392D01*
X38441Y-38290D01*
X38497Y-38235D01*
X38838Y-38235D01*
X38811Y-38262D01*
X38795Y-38301D01*
X38794Y-38342D01*
X38794Y-38942D01*
X38810Y-38981D01*
X38840Y-39011D01*
X38879Y-39027D01*
X38920Y-39027D01*
X39520Y-39027D01*
X39559Y-39011D01*
X39588Y-38981D01*
X39604Y-38943D01*
X39605Y-38901D01*
X39605Y-38772D01*
X40339Y-38772D01*
X42060Y-40492D01*
X42060Y-41639D01*
X42059Y-41639D01*
X41976Y-41605D01*
X41887Y-41604D01*
X41804Y-41639D01*
X41741Y-41702D01*
X41707Y-41785D01*
X41706Y-41874D01*
X41741Y-41957D01*
X41804Y-42020D01*
X41806Y-42021D01*
X41806Y-42945D01*
X41765Y-42905D01*
X41682Y-42871D01*
X41593Y-42870D01*
X41510Y-42905D01*
X41460Y-42954D01*
X41413Y-42907D01*
X41330Y-42873D01*
X41241Y-42872D01*
X41158Y-42907D01*
X41095Y-42970D01*
X41061Y-43053D01*
X41060Y-43142D01*
X41076Y-43180D01*
X41072Y-43179D01*
X40983Y-43178D01*
X40900Y-43213D01*
X40854Y-43258D01*
X40819Y-43223D01*
X40736Y-43189D01*
X40647Y-43188D01*
X40605Y-43206D01*
X40607Y-43199D01*
X40608Y-43110D01*
X40573Y-43027D01*
X40510Y-42964D01*
X40427Y-42930D01*
X40338Y-42929D01*
X40255Y-42964D01*
X40192Y-43027D01*
X40158Y-43110D01*
X40157Y-43199D01*
X40171Y-43231D01*
X40136Y-43217D01*
X40047Y-43216D01*
X39964Y-43251D01*
X39901Y-43314D01*
X39867Y-43397D01*
X39866Y-43486D01*
X39901Y-43569D01*
X39964Y-43632D01*
X40047Y-43666D01*
X40136Y-43667D01*
X40634Y-44165D01*
X40634Y-49168D01*
X40646Y-49226D01*
X40678Y-49274D01*
X41406Y-50001D01*
X41406Y-50264D01*
X41365Y-50305D01*
X41331Y-50388D01*
X41330Y-50477D01*
X41365Y-50560D01*
X41389Y-50584D01*
X41326Y-50647D01*
X41292Y-50730D01*
X41291Y-50819D01*
X41326Y-50902D01*
X41364Y-50941D01*
X41332Y-50973D01*
X41298Y-51056D01*
X41297Y-51145D01*
X41332Y-51228D01*
X41395Y-51291D01*
X41478Y-51325D01*
X41567Y-51326D01*
X41650Y-51291D01*
X41713Y-51228D01*
X41737Y-51170D01*
X42084Y-50824D01*
X42116Y-50775D01*
X42116Y-50775D01*
X42128Y-50717D01*
X42128Y-50511D01*
X42128Y-49880D01*
X42127Y-49879D01*
X42765Y-50516D01*
X42764Y-50582D01*
X42799Y-50665D01*
X42862Y-50728D01*
X42888Y-50739D01*
X42860Y-50807D01*
X42859Y-50896D01*
X42894Y-50979D01*
X42957Y-51042D01*
X43040Y-51076D01*
X43129Y-51077D01*
X43212Y-51042D01*
X43253Y-51002D01*
X43415Y-51002D01*
X43472Y-50990D01*
X43472Y-50990D01*
X43521Y-50958D01*
X43609Y-50870D01*
X43641Y-50821D01*
X43641Y-50821D01*
X43653Y-50764D01*
X43653Y-49137D01*
X43641Y-49079D01*
X43641Y-49079D01*
X43609Y-49030D01*
X43609Y-49030D01*
X43036Y-48457D01*
X42987Y-48425D01*
X42978Y-48423D01*
X42928Y-48373D01*
X42845Y-48339D01*
X42756Y-48338D01*
X42673Y-48373D01*
X42610Y-48436D01*
X42576Y-48519D01*
X42575Y-48608D01*
X42610Y-48691D01*
X42673Y-48754D01*
X42756Y-48788D01*
X42845Y-48789D01*
X42914Y-48760D01*
X43353Y-49199D01*
X43353Y-50701D01*
X43352Y-50702D01*
X43253Y-50702D01*
X43212Y-50661D01*
X43186Y-50650D01*
X43214Y-50582D01*
X43215Y-50493D01*
X43186Y-50423D01*
X43216Y-50410D01*
X43279Y-50347D01*
X43313Y-50264D01*
X43314Y-50175D01*
X43279Y-50092D01*
X43250Y-50063D01*
X43290Y-50023D01*
X43324Y-49940D01*
X43325Y-49851D01*
X43290Y-49768D01*
X43227Y-49705D01*
X43144Y-49671D01*
X43055Y-49670D01*
X42972Y-49705D01*
X42931Y-49746D01*
X42899Y-49746D01*
X42180Y-49027D01*
X42180Y-49027D01*
X41972Y-48818D01*
X42035Y-48792D01*
X42098Y-48729D01*
X42132Y-48646D01*
X42133Y-48589D01*
X42658Y-48064D01*
X49076Y-48064D01*
X50548Y-48064D01*
X53547Y-51062D01*
X53547Y-56688D01*
X53470Y-56720D01*
X53407Y-56783D01*
X53373Y-56866D01*
X53372Y-56955D01*
X53407Y-57038D01*
X53470Y-57101D01*
X53553Y-57135D01*
X53642Y-57136D01*
X53717Y-57105D01*
X53717Y-57621D01*
X53702Y-57621D01*
X53663Y-57637D01*
X53634Y-57667D01*
X53633Y-57668D01*
X53627Y-57663D01*
X53600Y-57651D01*
X53540Y-57651D01*
X53521Y-57670D01*
X53521Y-57675D01*
X53393Y-57675D01*
X53393Y-57670D01*
X53374Y-57651D01*
X53314Y-57651D01*
X53304Y-57655D01*
X53304Y-57546D01*
X53304Y-57546D01*
X53304Y-57546D01*
X53289Y-57474D01*
X53287Y-57460D01*
X53287Y-57460D01*
X53238Y-57387D01*
X53238Y-57387D01*
X53103Y-57251D01*
X53030Y-57203D01*
X53015Y-57200D01*
X52944Y-57185D01*
X52943Y-57186D01*
X52689Y-57186D01*
X52689Y-57185D01*
X52688Y-57186D01*
X52644Y-57185D01*
X52561Y-57220D01*
X52529Y-57251D01*
X52529Y-57251D01*
X52529Y-57251D01*
X52529Y-57251D01*
X52498Y-57283D01*
X52482Y-57321D01*
X52478Y-57327D01*
X52476Y-57334D01*
X52476Y-57334D01*
X52464Y-57366D01*
X52464Y-57400D01*
X52461Y-57413D01*
X52461Y-57413D01*
X52461Y-57636D01*
X52425Y-57621D01*
X52383Y-57621D01*
X52153Y-57621D01*
X52153Y-55078D01*
X52153Y-54980D01*
X52142Y-54922D01*
X52142Y-54922D01*
X52110Y-54874D01*
X52110Y-54874D01*
X52011Y-54775D01*
X52000Y-54768D01*
X51988Y-54756D01*
X51695Y-54561D01*
X52439Y-54561D01*
X52440Y-54561D01*
X52440Y-54561D01*
X52511Y-54546D01*
X52526Y-54543D01*
X52526Y-54543D01*
X52599Y-54495D01*
X53025Y-54069D01*
X53034Y-54063D01*
X53040Y-54054D01*
X53065Y-54028D01*
X53079Y-53995D01*
X53082Y-53990D01*
X53084Y-53984D01*
X53099Y-53945D01*
X53099Y-53904D01*
X53100Y-53904D01*
X53100Y-53901D01*
X53099Y-53900D01*
X53100Y-53856D01*
X53082Y-53814D01*
X53082Y-53814D01*
X53065Y-53773D01*
X53034Y-53741D01*
X53034Y-53741D01*
X53034Y-53741D01*
X53002Y-53710D01*
X52961Y-53693D01*
X52961Y-53693D01*
X52961Y-53693D01*
X52961Y-53693D01*
X52919Y-53676D01*
X52875Y-53676D01*
X52874Y-53676D01*
X52830Y-53675D01*
X52747Y-53710D01*
X52715Y-53741D01*
X52715Y-53741D01*
X52715Y-53741D01*
X52715Y-53741D01*
X52684Y-53773D01*
X52684Y-53773D01*
X52346Y-54111D01*
X50005Y-54111D01*
X50005Y-53879D01*
X50005Y-53279D01*
X49989Y-53240D01*
X49959Y-53211D01*
X49920Y-53195D01*
X49879Y-53194D01*
X49279Y-53194D01*
X49240Y-53210D01*
X49211Y-53240D01*
X49195Y-53279D01*
X49194Y-53320D01*
X49194Y-53920D01*
X49210Y-53959D01*
X49240Y-53988D01*
X49279Y-54004D01*
X49320Y-54005D01*
X49920Y-54005D01*
X49959Y-53989D01*
X49988Y-53959D01*
X50004Y-53920D01*
X50005Y-53879D01*
X50005Y-54111D01*
X47755Y-54111D01*
X47800Y-54081D01*
X49056Y-52825D01*
X49254Y-52825D01*
X49256Y-52829D01*
X49370Y-52943D01*
X49519Y-53004D01*
X49680Y-53005D01*
X49829Y-52943D01*
X49943Y-52829D01*
X49945Y-52825D01*
X50750Y-52825D01*
X51116Y-52825D01*
X52651Y-52825D01*
X52675Y-52834D01*
X52719Y-52834D01*
X52720Y-52835D01*
X52720Y-52834D01*
X52764Y-52835D01*
X52806Y-52817D01*
X52847Y-52800D01*
X52879Y-52769D01*
X52879Y-52769D01*
X52879Y-52769D01*
X52910Y-52737D01*
X52927Y-52696D01*
X52927Y-52696D01*
X52927Y-52696D01*
X52944Y-52654D01*
X52944Y-52610D01*
X52945Y-52610D01*
X52944Y-52609D01*
X52945Y-52565D01*
X52927Y-52523D01*
X52910Y-52482D01*
X52879Y-52450D01*
X52879Y-52450D01*
X52878Y-52450D01*
X52847Y-52419D01*
X52819Y-52407D01*
X52796Y-52392D01*
X52781Y-52389D01*
X52769Y-52386D01*
X52769Y-52386D01*
X52764Y-52385D01*
X52760Y-52385D01*
X52760Y-52385D01*
X52710Y-52374D01*
X52709Y-52375D01*
X52405Y-52375D01*
X52405Y-51879D01*
X52405Y-51279D01*
X52389Y-51240D01*
X52376Y-51228D01*
X52376Y-50536D01*
X52372Y-50514D01*
X52340Y-50471D01*
X52212Y-50600D01*
X52340Y-50728D01*
X52372Y-50685D01*
X52376Y-50536D01*
X52376Y-51228D01*
X52359Y-51211D01*
X52320Y-51195D01*
X52279Y-51194D01*
X52128Y-51194D01*
X52128Y-50940D01*
X52128Y-50259D01*
X52085Y-50227D01*
X51936Y-50223D01*
X51914Y-50227D01*
X51871Y-50259D01*
X52000Y-50387D01*
X52128Y-50259D01*
X52128Y-50940D01*
X52000Y-50812D01*
X51871Y-50940D01*
X51914Y-50972D01*
X52063Y-50976D01*
X52085Y-50972D01*
X52128Y-50940D01*
X52128Y-51194D01*
X51787Y-51194D01*
X51787Y-50600D01*
X51659Y-50471D01*
X51627Y-50514D01*
X51623Y-50663D01*
X51627Y-50685D01*
X51659Y-50728D01*
X51787Y-50600D01*
X51787Y-51194D01*
X51679Y-51194D01*
X51640Y-51210D01*
X51611Y-51240D01*
X51595Y-51279D01*
X51594Y-51320D01*
X51594Y-51920D01*
X51610Y-51959D01*
X51640Y-51988D01*
X51679Y-52004D01*
X51720Y-52005D01*
X52320Y-52005D01*
X52359Y-51989D01*
X52388Y-51959D01*
X52404Y-51920D01*
X52405Y-51879D01*
X52405Y-52375D01*
X51116Y-52375D01*
X51100Y-52358D01*
X51100Y-52008D01*
X51105Y-52002D01*
X51139Y-51919D01*
X51140Y-51830D01*
X51105Y-51747D01*
X51042Y-51684D01*
X50959Y-51650D01*
X50870Y-51649D01*
X50787Y-51684D01*
X50724Y-51747D01*
X50690Y-51830D01*
X50689Y-51919D01*
X50724Y-52002D01*
X50730Y-52008D01*
X50730Y-52358D01*
X50713Y-52375D01*
X50005Y-52375D01*
X50005Y-50519D01*
X50005Y-49519D01*
X50005Y-48519D01*
X49943Y-48370D01*
X49829Y-48256D01*
X49680Y-48195D01*
X49519Y-48194D01*
X49370Y-48256D01*
X49256Y-48370D01*
X49195Y-48519D01*
X49194Y-48680D01*
X49256Y-48829D01*
X49370Y-48943D01*
X49519Y-49004D01*
X49680Y-49005D01*
X49829Y-48943D01*
X49943Y-48829D01*
X50004Y-48680D01*
X50005Y-48519D01*
X50005Y-49519D01*
X49943Y-49370D01*
X49829Y-49256D01*
X49680Y-49195D01*
X49519Y-49194D01*
X49370Y-49256D01*
X49256Y-49370D01*
X49195Y-49519D01*
X49194Y-49680D01*
X49256Y-49829D01*
X49370Y-49943D01*
X49519Y-50004D01*
X49680Y-50005D01*
X49829Y-49943D01*
X49943Y-49829D01*
X50004Y-49680D01*
X50005Y-49519D01*
X50005Y-50519D01*
X49943Y-50370D01*
X49829Y-50256D01*
X49680Y-50195D01*
X49519Y-50194D01*
X49370Y-50256D01*
X49256Y-50370D01*
X49195Y-50519D01*
X49194Y-50680D01*
X49256Y-50829D01*
X49370Y-50943D01*
X49519Y-51004D01*
X49680Y-51005D01*
X49829Y-50943D01*
X49943Y-50829D01*
X50004Y-50680D01*
X50005Y-50519D01*
X50005Y-52375D01*
X49976Y-52375D01*
X49976Y-51536D01*
X49972Y-51514D01*
X49940Y-51471D01*
X49812Y-51600D01*
X49940Y-51728D01*
X49972Y-51685D01*
X49976Y-51536D01*
X49976Y-52375D01*
X49945Y-52375D01*
X49943Y-52370D01*
X49829Y-52256D01*
X49728Y-52214D01*
X49728Y-51940D01*
X49728Y-51259D01*
X49685Y-51227D01*
X49536Y-51223D01*
X49514Y-51227D01*
X49471Y-51259D01*
X49600Y-51387D01*
X49728Y-51259D01*
X49728Y-51940D01*
X49600Y-51812D01*
X49471Y-51940D01*
X49514Y-51972D01*
X49663Y-51976D01*
X49685Y-51972D01*
X49728Y-51940D01*
X49728Y-52214D01*
X49680Y-52195D01*
X49519Y-52194D01*
X49387Y-52249D01*
X49387Y-51600D01*
X49259Y-51471D01*
X49227Y-51514D01*
X49223Y-51663D01*
X49227Y-51685D01*
X49259Y-51728D01*
X49387Y-51600D01*
X49387Y-52249D01*
X49370Y-52256D01*
X49256Y-52370D01*
X49254Y-52375D01*
X48963Y-52375D01*
X48876Y-52392D01*
X48803Y-52440D01*
X48803Y-52440D01*
X47547Y-53697D01*
X46285Y-53697D01*
X46285Y-52373D01*
X46285Y-50373D01*
X46226Y-50232D01*
X46118Y-50123D01*
X45976Y-50065D01*
X45823Y-50064D01*
X45682Y-50123D01*
X45573Y-50231D01*
X45515Y-50373D01*
X45514Y-50526D01*
X45573Y-50667D01*
X45681Y-50776D01*
X45823Y-50834D01*
X45976Y-50835D01*
X46117Y-50776D01*
X46226Y-50668D01*
X46284Y-50526D01*
X46285Y-50373D01*
X46285Y-52373D01*
X46226Y-52232D01*
X46118Y-52123D01*
X45976Y-52065D01*
X45823Y-52064D01*
X45682Y-52123D01*
X45573Y-52231D01*
X45515Y-52373D01*
X45514Y-52526D01*
X45573Y-52667D01*
X45681Y-52776D01*
X45823Y-52834D01*
X45976Y-52835D01*
X46117Y-52776D01*
X46226Y-52668D01*
X46284Y-52526D01*
X46285Y-52373D01*
X46285Y-53697D01*
X46241Y-53697D01*
X46080Y-53697D01*
X44610Y-53697D01*
X44478Y-53697D01*
X44478Y-50844D01*
X44443Y-50761D01*
X44394Y-50711D01*
X44394Y-48807D01*
X44393Y-48806D01*
X44394Y-48806D01*
X44391Y-48795D01*
X44382Y-48749D01*
X44382Y-48749D01*
X44350Y-48700D01*
X44350Y-48700D01*
X44225Y-48576D01*
X44226Y-48519D01*
X44191Y-48436D01*
X44128Y-48373D01*
X44045Y-48339D01*
X43956Y-48338D01*
X43873Y-48373D01*
X43810Y-48436D01*
X43776Y-48519D01*
X43775Y-48608D01*
X43810Y-48691D01*
X43873Y-48754D01*
X43956Y-48788D01*
X44013Y-48789D01*
X44094Y-48869D01*
X44094Y-50729D01*
X44062Y-50761D01*
X44028Y-50844D01*
X44027Y-50933D01*
X44062Y-51016D01*
X44125Y-51079D01*
X44208Y-51113D01*
X44297Y-51114D01*
X44380Y-51079D01*
X44443Y-51016D01*
X44477Y-50933D01*
X44478Y-50844D01*
X44478Y-53697D01*
X43595Y-53697D01*
X43457Y-53697D01*
X43457Y-53122D01*
X43462Y-53116D01*
X43496Y-53033D01*
X43497Y-52944D01*
X43462Y-52861D01*
X43399Y-52798D01*
X43316Y-52764D01*
X43227Y-52763D01*
X43144Y-52798D01*
X43081Y-52861D01*
X43047Y-52944D01*
X43046Y-53033D01*
X43081Y-53116D01*
X43087Y-53122D01*
X43087Y-53697D01*
X40137Y-53697D01*
X40137Y-49897D01*
X40102Y-49814D01*
X40039Y-49751D01*
X39956Y-49717D01*
X39867Y-49716D01*
X39784Y-49751D01*
X39721Y-49814D01*
X39687Y-49897D01*
X39686Y-49986D01*
X39721Y-50069D01*
X39762Y-50110D01*
X39762Y-51879D01*
X39701Y-51904D01*
X39638Y-51967D01*
X39604Y-52050D01*
X39603Y-52139D01*
X39638Y-52222D01*
X39701Y-52285D01*
X39784Y-52319D01*
X39873Y-52320D01*
X39956Y-52285D01*
X40019Y-52222D01*
X40053Y-52139D01*
X40054Y-52052D01*
X40054Y-52052D01*
X40062Y-52012D01*
X40062Y-50110D01*
X40102Y-50069D01*
X40136Y-49986D01*
X40137Y-49897D01*
X40137Y-53697D01*
X39898Y-53697D01*
X38660Y-52458D01*
X38660Y-51977D01*
X38660Y-50604D01*
X38745Y-50519D01*
X39516Y-50519D01*
X39516Y-50518D01*
X39560Y-50519D01*
X39602Y-50501D01*
X39643Y-50484D01*
X39675Y-50453D01*
X39675Y-50453D01*
X39675Y-50453D01*
X39706Y-50421D01*
X39723Y-50380D01*
X39723Y-50380D01*
X39723Y-50380D01*
X39740Y-50338D01*
X39740Y-50294D01*
X39741Y-50294D01*
X39740Y-50293D01*
X39741Y-50249D01*
X39723Y-50207D01*
X39706Y-50166D01*
X39675Y-50134D01*
X39675Y-50134D01*
X39675Y-50134D01*
X39643Y-50103D01*
X39605Y-50087D01*
X39605Y-45619D01*
X39605Y-44619D01*
X39605Y-43619D01*
X39576Y-43551D01*
X39576Y-42636D01*
X39572Y-42614D01*
X39540Y-42571D01*
X39412Y-42700D01*
X39540Y-42828D01*
X39572Y-42785D01*
X39576Y-42636D01*
X39576Y-43551D01*
X39543Y-43470D01*
X39429Y-43356D01*
X39328Y-43314D01*
X39328Y-43040D01*
X39328Y-42359D01*
X39285Y-42327D01*
X39136Y-42323D01*
X39114Y-42327D01*
X39071Y-42359D01*
X39200Y-42487D01*
X39328Y-42359D01*
X39328Y-43040D01*
X39200Y-42912D01*
X39071Y-43040D01*
X39114Y-43072D01*
X39263Y-43076D01*
X39285Y-43072D01*
X39328Y-43040D01*
X39328Y-43314D01*
X39280Y-43295D01*
X39119Y-43294D01*
X38987Y-43349D01*
X38987Y-42700D01*
X38859Y-42571D01*
X38827Y-42614D01*
X38823Y-42763D01*
X38827Y-42785D01*
X38859Y-42828D01*
X38987Y-42700D01*
X38987Y-43349D01*
X38970Y-43356D01*
X38856Y-43470D01*
X38795Y-43619D01*
X38794Y-43780D01*
X38856Y-43929D01*
X38970Y-44043D01*
X39119Y-44104D01*
X39280Y-44105D01*
X39429Y-44043D01*
X39543Y-43929D01*
X39604Y-43780D01*
X39605Y-43619D01*
X39605Y-44619D01*
X39543Y-44470D01*
X39429Y-44356D01*
X39280Y-44295D01*
X39119Y-44294D01*
X38970Y-44356D01*
X38856Y-44470D01*
X38795Y-44619D01*
X38794Y-44780D01*
X38856Y-44929D01*
X38970Y-45043D01*
X39119Y-45104D01*
X39280Y-45105D01*
X39429Y-45043D01*
X39543Y-44929D01*
X39604Y-44780D01*
X39605Y-44619D01*
X39605Y-45619D01*
X39543Y-45470D01*
X39429Y-45356D01*
X39280Y-45295D01*
X39119Y-45294D01*
X38970Y-45356D01*
X38856Y-45470D01*
X38795Y-45619D01*
X38794Y-45780D01*
X38856Y-45929D01*
X38970Y-46043D01*
X39119Y-46104D01*
X39280Y-46105D01*
X39429Y-46043D01*
X39543Y-45929D01*
X39604Y-45780D01*
X39605Y-45619D01*
X39605Y-50087D01*
X39605Y-50087D01*
X39605Y-46979D01*
X39605Y-46379D01*
X39589Y-46340D01*
X39559Y-46311D01*
X39520Y-46295D01*
X39479Y-46294D01*
X38879Y-46294D01*
X38840Y-46310D01*
X38811Y-46340D01*
X38795Y-46379D01*
X38794Y-46420D01*
X38794Y-47020D01*
X38810Y-47059D01*
X38840Y-47088D01*
X38879Y-47104D01*
X38920Y-47105D01*
X39520Y-47105D01*
X39559Y-47089D01*
X39588Y-47059D01*
X39604Y-47020D01*
X39605Y-46979D01*
X39605Y-50087D01*
X39602Y-50086D01*
X39602Y-50086D01*
X39602Y-50086D01*
X39560Y-50069D01*
X39516Y-50069D01*
X39515Y-50069D01*
X39471Y-50068D01*
X39471Y-50069D01*
X38745Y-50069D01*
X38660Y-49983D01*
X38660Y-49652D01*
X38660Y-49652D01*
X38660Y-49652D01*
X38642Y-49566D01*
X38605Y-49509D01*
X38605Y-46619D01*
X38605Y-45619D01*
X38605Y-44619D01*
X38605Y-43619D01*
X38576Y-43551D01*
X38576Y-42636D01*
X38572Y-42614D01*
X38540Y-42571D01*
X38412Y-42700D01*
X38540Y-42828D01*
X38572Y-42785D01*
X38576Y-42636D01*
X38576Y-43551D01*
X38543Y-43470D01*
X38429Y-43356D01*
X38328Y-43314D01*
X38328Y-43040D01*
X38328Y-42359D01*
X38285Y-42327D01*
X38136Y-42323D01*
X38114Y-42327D01*
X38071Y-42359D01*
X38200Y-42487D01*
X38328Y-42359D01*
X38328Y-43040D01*
X38200Y-42912D01*
X38071Y-43040D01*
X38114Y-43072D01*
X38263Y-43076D01*
X38285Y-43072D01*
X38328Y-43040D01*
X38328Y-43314D01*
X38280Y-43295D01*
X38119Y-43294D01*
X37987Y-43349D01*
X37987Y-42700D01*
X37859Y-42571D01*
X37827Y-42614D01*
X37823Y-42763D01*
X37827Y-42785D01*
X37859Y-42828D01*
X37987Y-42700D01*
X37987Y-43349D01*
X37970Y-43356D01*
X37856Y-43470D01*
X37795Y-43619D01*
X37794Y-43780D01*
X37856Y-43929D01*
X37970Y-44043D01*
X38119Y-44104D01*
X38280Y-44105D01*
X38429Y-44043D01*
X38543Y-43929D01*
X38604Y-43780D01*
X38605Y-43619D01*
X38605Y-44619D01*
X38543Y-44470D01*
X38429Y-44356D01*
X38280Y-44295D01*
X38119Y-44294D01*
X37970Y-44356D01*
X37856Y-44470D01*
X37795Y-44619D01*
X37794Y-44780D01*
X37856Y-44929D01*
X37970Y-45043D01*
X38119Y-45104D01*
X38280Y-45105D01*
X38429Y-45043D01*
X38543Y-44929D01*
X38604Y-44780D01*
X38605Y-44619D01*
X38605Y-45619D01*
X38543Y-45470D01*
X38429Y-45356D01*
X38280Y-45295D01*
X38119Y-45294D01*
X37970Y-45356D01*
X37856Y-45470D01*
X37795Y-45619D01*
X37794Y-45780D01*
X37856Y-45929D01*
X37970Y-46043D01*
X38119Y-46104D01*
X38280Y-46105D01*
X38429Y-46043D01*
X38543Y-45929D01*
X38604Y-45780D01*
X38605Y-45619D01*
X38605Y-46619D01*
X38543Y-46470D01*
X38429Y-46356D01*
X38280Y-46295D01*
X38119Y-46294D01*
X37970Y-46356D01*
X37856Y-46470D01*
X37795Y-46619D01*
X37794Y-46780D01*
X37856Y-46929D01*
X37970Y-47043D01*
X38119Y-47104D01*
X38280Y-47105D01*
X38429Y-47043D01*
X38543Y-46929D01*
X38604Y-46780D01*
X38605Y-46619D01*
X38605Y-49509D01*
X38594Y-49493D01*
X38594Y-49493D01*
X37478Y-48377D01*
X37478Y-47238D01*
X37478Y-46096D01*
X37478Y-41972D01*
X37525Y-41925D01*
X37854Y-41925D01*
X37856Y-41929D01*
X37970Y-42043D01*
X38119Y-42104D01*
X38280Y-42105D01*
X38429Y-42043D01*
X38543Y-41929D01*
X38545Y-41925D01*
X38854Y-41925D01*
X38856Y-41929D01*
X38970Y-42043D01*
X39119Y-42104D01*
X39280Y-42105D01*
X39429Y-42043D01*
X39543Y-41929D01*
X39604Y-41780D01*
X39605Y-41619D01*
X39543Y-41470D01*
X39429Y-41356D01*
X39280Y-41295D01*
X39119Y-41294D01*
X38970Y-41356D01*
X38856Y-41470D01*
X38854Y-41475D01*
X38545Y-41475D01*
X38543Y-41470D01*
X38429Y-41356D01*
X38280Y-41295D01*
X38119Y-41294D01*
X37970Y-41356D01*
X37856Y-41470D01*
X37854Y-41475D01*
X37525Y-41475D01*
X37478Y-41427D01*
X37478Y-41390D01*
X37478Y-33912D01*
X37543Y-33847D01*
X37854Y-33847D01*
X37856Y-33851D01*
X37970Y-33965D01*
X38119Y-34026D01*
X38280Y-34027D01*
X38429Y-33965D01*
X38543Y-33851D01*
X38545Y-33847D01*
X38854Y-33847D01*
X38856Y-33851D01*
X38970Y-33965D01*
X39119Y-34026D01*
X39280Y-34027D01*
X39429Y-33965D01*
X39543Y-33851D01*
X39604Y-33702D01*
X39605Y-33541D01*
X39543Y-33392D01*
X39429Y-33278D01*
X39280Y-33217D01*
X39119Y-33216D01*
X38970Y-33278D01*
X38856Y-33392D01*
X38854Y-33397D01*
X38545Y-33397D01*
X38543Y-33392D01*
X38429Y-33278D01*
X38280Y-33217D01*
X38119Y-33216D01*
X37970Y-33278D01*
X37856Y-33392D01*
X37854Y-33397D01*
X37558Y-33397D01*
X37478Y-33316D01*
X37478Y-25872D01*
X37525Y-25825D01*
X37854Y-25825D01*
X37856Y-25829D01*
X37970Y-25943D01*
X38119Y-26004D01*
X38280Y-26005D01*
X38429Y-25943D01*
X38543Y-25829D01*
X38545Y-25825D01*
X38854Y-25825D01*
X38856Y-25829D01*
X38970Y-25943D01*
X39119Y-26004D01*
X39280Y-26005D01*
X39429Y-25943D01*
X39543Y-25829D01*
X39604Y-25680D01*
X39605Y-25519D01*
X39543Y-25370D01*
X39429Y-25256D01*
X39280Y-25195D01*
X39119Y-25194D01*
X38970Y-25256D01*
X38856Y-25370D01*
X38854Y-25375D01*
X38545Y-25375D01*
X38543Y-25370D01*
X38429Y-25256D01*
X38280Y-25195D01*
X38119Y-25194D01*
X37970Y-25256D01*
X37856Y-25370D01*
X37854Y-25375D01*
X37525Y-25375D01*
X37478Y-25327D01*
X37478Y-25140D01*
X40209Y-22409D01*
X40209Y-22409D01*
X40209Y-22409D01*
X40257Y-22336D01*
X40275Y-22250D01*
X40275Y-19743D01*
X40643Y-19375D01*
X41470Y-19375D01*
X45804Y-19375D01*
X46284Y-19375D01*
X46385Y-19475D01*
X46385Y-19650D01*
X46370Y-19656D01*
X46256Y-19770D01*
X46195Y-19919D01*
X46194Y-20080D01*
X46256Y-20229D01*
X46370Y-20343D01*
X46375Y-20345D01*
X46375Y-20654D01*
X46370Y-20656D01*
X46256Y-20770D01*
X46195Y-20919D01*
X46194Y-21080D01*
X46256Y-21229D01*
X46370Y-21343D01*
X46519Y-21404D01*
X46680Y-21405D01*
X46829Y-21343D01*
X46943Y-21229D01*
X47004Y-21080D01*
X47005Y-20919D01*
X46943Y-20770D01*
X46829Y-20656D01*
X46825Y-20654D01*
X46825Y-20345D01*
X46829Y-20343D01*
X46943Y-20229D01*
X47004Y-20080D01*
X47005Y-19919D01*
X46943Y-19770D01*
X46835Y-19662D01*
X46835Y-19382D01*
X46834Y-19381D01*
X46835Y-19381D01*
X46817Y-19295D01*
X46769Y-19222D01*
X46769Y-19222D01*
X46537Y-18990D01*
X46464Y-18942D01*
X46449Y-18939D01*
X46378Y-18924D01*
X46377Y-18925D01*
X46352Y-18925D01*
X45804Y-18925D01*
X41470Y-18925D01*
X40550Y-18925D01*
X40550Y-18924D01*
X40478Y-18939D01*
X40463Y-18942D01*
X40390Y-18990D01*
X40390Y-18990D01*
X39890Y-19490D01*
X39842Y-19563D01*
X39839Y-19578D01*
X39824Y-19650D01*
X39825Y-19650D01*
X39825Y-22156D01*
X38332Y-23649D01*
X38332Y-22529D01*
X38256Y-22148D01*
X38167Y-22007D01*
X37778Y-22396D01*
X37778Y-21618D01*
X37637Y-21529D01*
X37217Y-21453D01*
X36835Y-21529D01*
X36694Y-21618D01*
X37236Y-22160D01*
X37778Y-21618D01*
X37778Y-22396D01*
X37625Y-22549D01*
X38167Y-23091D01*
X38256Y-22950D01*
X38332Y-22529D01*
X38332Y-23649D01*
X37778Y-24202D01*
X37778Y-23480D01*
X37236Y-22938D01*
X36847Y-23327D01*
X36847Y-22549D01*
X36305Y-22007D01*
X36216Y-22148D01*
X36140Y-22569D01*
X36216Y-22950D01*
X36305Y-23091D01*
X36847Y-22549D01*
X36847Y-23327D01*
X36694Y-23480D01*
X36835Y-23569D01*
X37256Y-23645D01*
X37637Y-23569D01*
X37778Y-23480D01*
X37778Y-24202D01*
X37093Y-24887D01*
X37045Y-24960D01*
X37042Y-24975D01*
X37027Y-25047D01*
X37028Y-25047D01*
X37028Y-25329D01*
X37028Y-25420D01*
X37027Y-25421D01*
X37028Y-25421D01*
X37028Y-25778D01*
X37027Y-25779D01*
X37028Y-25779D01*
X37028Y-33355D01*
X37028Y-33409D01*
X37027Y-33410D01*
X37028Y-33410D01*
X37028Y-33818D01*
X37027Y-33819D01*
X37028Y-33819D01*
X37028Y-41390D01*
X37028Y-41520D01*
X37027Y-41521D01*
X37028Y-41521D01*
X37028Y-41878D01*
X37027Y-41879D01*
X37028Y-41879D01*
X37028Y-46096D01*
X37028Y-47238D01*
X37028Y-48379D01*
X35745Y-47096D01*
X35745Y-46395D01*
X35745Y-45255D01*
X35745Y-19493D01*
X37193Y-18045D01*
X54001Y-18045D01*
X54075Y-18118D01*
X54075Y-25932D01*
X53995Y-25985D01*
X53902Y-26124D01*
X53870Y-26289D01*
X53870Y-26560D01*
X53902Y-26725D01*
X53995Y-26864D01*
X54135Y-26958D01*
X54300Y-26990D01*
X54464Y-26958D01*
X54604Y-26864D01*
X54697Y-26725D01*
X54730Y-26560D01*
X54730Y-26289D01*
X54697Y-26124D01*
X54604Y-25985D01*
X54525Y-25932D01*
X54525Y-18118D01*
X54598Y-18045D01*
X58630Y-18045D01*
X62381Y-18045D01*
X66341Y-22004D01*
X66341Y-23066D01*
X66340Y-23110D01*
X66358Y-23152D01*
X66375Y-23193D01*
X66406Y-23225D01*
X66406Y-23225D01*
X66406Y-23225D01*
X66413Y-23231D01*
X58343Y-23231D01*
X58343Y-23231D01*
X58257Y-23248D01*
X58184Y-23297D01*
X58184Y-23297D01*
X57140Y-24340D01*
X57092Y-24413D01*
X57089Y-24428D01*
X57074Y-24500D01*
X57075Y-24500D01*
X57075Y-25932D01*
X56995Y-25985D01*
X56902Y-26124D01*
X56870Y-26289D01*
X56870Y-26560D01*
X56902Y-26725D01*
X56995Y-26864D01*
X57135Y-26958D01*
X57300Y-26990D01*
X57464Y-26958D01*
X57604Y-26864D01*
X57697Y-26725D01*
X57730Y-26560D01*
X57730Y-26289D01*
X57697Y-26124D01*
X57604Y-25985D01*
X57525Y-25932D01*
X57525Y-24593D01*
X58436Y-23681D01*
X68186Y-23681D01*
X68186Y-23681D01*
X68186Y-23681D01*
X68258Y-23667D01*
X68272Y-23664D01*
X68272Y-23664D01*
X68345Y-23615D01*
X68462Y-23499D01*
X68462Y-23499D01*
X68462Y-23499D01*
X68510Y-23426D01*
X68528Y-23340D01*
X68527Y-23340D01*
X68528Y-23340D01*
X68528Y-23061D01*
X68527Y-23060D01*
X68528Y-23016D01*
X68510Y-22974D01*
X68493Y-22933D01*
X68462Y-22901D01*
X68462Y-22901D01*
X68462Y-22901D01*
X68430Y-22870D01*
X68389Y-22853D01*
X68389Y-22853D01*
X68389Y-22853D01*
X68347Y-22836D01*
X68303Y-22836D01*
X68302Y-22836D01*
X68258Y-22835D01*
X68175Y-22870D01*
X68143Y-22901D01*
X68143Y-22901D01*
X68143Y-22901D01*
X68112Y-22933D01*
X68095Y-22974D01*
X68095Y-22974D01*
X68095Y-22974D01*
X68078Y-23016D01*
X68078Y-23060D01*
X68078Y-23061D01*
X68078Y-23061D01*
X68077Y-23105D01*
X68078Y-23105D01*
X68078Y-23231D01*
X66718Y-23231D01*
X66725Y-23225D01*
X66725Y-23225D01*
X66725Y-23225D01*
X66756Y-23193D01*
X66773Y-23152D01*
X66773Y-23152D01*
X66773Y-23152D01*
X66790Y-23110D01*
X66790Y-23066D01*
X66791Y-23066D01*
X66791Y-23065D01*
X66791Y-23021D01*
X66791Y-23021D01*
X66791Y-21911D01*
X66791Y-21911D01*
X66791Y-21911D01*
X66776Y-21839D01*
X66773Y-21824D01*
X66773Y-21824D01*
X66725Y-21751D01*
X66725Y-21751D01*
X62634Y-17660D01*
X62561Y-17612D01*
X62546Y-17609D01*
X62475Y-17594D01*
X62474Y-17595D01*
X58630Y-17595D01*
X54505Y-17595D01*
X54505Y-17594D01*
X54504Y-17595D01*
X54095Y-17595D01*
X54095Y-17594D01*
X54094Y-17595D01*
X54060Y-17595D01*
X37100Y-17595D01*
X37099Y-17595D01*
X37013Y-17612D01*
X36940Y-17660D01*
X36940Y-17660D01*
X35360Y-19240D01*
X35312Y-19313D01*
X35309Y-19328D01*
X35294Y-19400D01*
X35295Y-19400D01*
X35295Y-45255D01*
X35295Y-46395D01*
X35295Y-47189D01*
X35294Y-47190D01*
X35309Y-47261D01*
X35312Y-47276D01*
X35360Y-47349D01*
X37890Y-49878D01*
X37890Y-51926D01*
X37890Y-52683D01*
X37889Y-52684D01*
X37904Y-52755D01*
X37907Y-52770D01*
X37955Y-52843D01*
X39607Y-54495D01*
X39607Y-54495D01*
X39680Y-54543D01*
X39680Y-54543D01*
X39767Y-54561D01*
X43651Y-54561D01*
X44320Y-54561D01*
X50738Y-54561D01*
X50444Y-54757D01*
X50433Y-54767D01*
X50421Y-54775D01*
X50413Y-54788D01*
X50402Y-54798D01*
X50397Y-54812D01*
X50388Y-54824D01*
X50386Y-54838D01*
X50380Y-54852D01*
X50380Y-54867D01*
X50377Y-54881D01*
X50377Y-57775D01*
X47527Y-57775D01*
X47527Y-54881D01*
X47525Y-54867D01*
X47525Y-54775D01*
X47482Y-54775D01*
X47435Y-54743D01*
X47377Y-54731D01*
X40192Y-54731D01*
X40135Y-54743D01*
X40088Y-54775D01*
X40075Y-54775D01*
X40075Y-54793D01*
X40054Y-54824D01*
X40042Y-54881D01*
X40042Y-57975D01*
X38332Y-57975D01*
X38332Y-56230D01*
X38256Y-55849D01*
X38167Y-55708D01*
X37778Y-56097D01*
X37778Y-55319D01*
X37637Y-55230D01*
X37217Y-55154D01*
X36835Y-55230D01*
X36694Y-55319D01*
X37236Y-55861D01*
X37778Y-55319D01*
X37778Y-56097D01*
X37625Y-56250D01*
X38167Y-56792D01*
X38256Y-56651D01*
X38332Y-56230D01*
X38332Y-57975D01*
X37778Y-57975D01*
X37778Y-57181D01*
X37236Y-56639D01*
X36847Y-57028D01*
X36847Y-56250D01*
X36581Y-55983D01*
X36581Y-51616D01*
X36577Y-51597D01*
X36571Y-51589D01*
X36571Y-49650D01*
X36567Y-49629D01*
X36534Y-49586D01*
X36405Y-49715D01*
X36534Y-49845D01*
X36567Y-49801D01*
X36571Y-49650D01*
X36571Y-51589D01*
X36544Y-51551D01*
X36412Y-51684D01*
X36544Y-51816D01*
X36577Y-51771D01*
X36581Y-51616D01*
X36581Y-55983D01*
X36321Y-55724D01*
X36321Y-52039D01*
X36321Y-51329D01*
X36318Y-51327D01*
X36318Y-50061D01*
X36318Y-49370D01*
X36275Y-49337D01*
X36124Y-49333D01*
X36103Y-49337D01*
X36059Y-49370D01*
X36189Y-49499D01*
X36318Y-49370D01*
X36318Y-50061D01*
X36189Y-49931D01*
X36059Y-50061D01*
X36103Y-50093D01*
X36254Y-50097D01*
X36275Y-50093D01*
X36318Y-50061D01*
X36318Y-51327D01*
X36276Y-51296D01*
X36121Y-51292D01*
X36102Y-51296D01*
X36057Y-51329D01*
X36189Y-51461D01*
X36321Y-51329D01*
X36321Y-52039D01*
X36189Y-51906D01*
X36057Y-52039D01*
X36102Y-52072D01*
X36257Y-52076D01*
X36276Y-52072D01*
X36321Y-52039D01*
X36321Y-55724D01*
X36305Y-55708D01*
X36216Y-55849D01*
X36140Y-56269D01*
X36216Y-56651D01*
X36305Y-56792D01*
X36847Y-56250D01*
X36847Y-57028D01*
X36694Y-57181D01*
X36835Y-57270D01*
X37256Y-57346D01*
X37637Y-57270D01*
X37778Y-57181D01*
X37778Y-57975D01*
X35973Y-57975D01*
X35973Y-49715D01*
X35844Y-49586D01*
X35811Y-49629D01*
X35807Y-49780D01*
X35811Y-49801D01*
X35844Y-49845D01*
X35973Y-49715D01*
X35973Y-57975D01*
X35966Y-57975D01*
X35966Y-51684D01*
X35834Y-51551D01*
X35801Y-51597D01*
X35797Y-51752D01*
X35801Y-51771D01*
X35834Y-51816D01*
X35966Y-51684D01*
X35966Y-57975D01*
X35723Y-57975D01*
X35723Y-52624D01*
X35723Y-51610D01*
X35723Y-49789D01*
X35723Y-48775D01*
X35711Y-48748D01*
X35690Y-48727D01*
X35663Y-48715D01*
X35633Y-48715D01*
X35351Y-48715D01*
X35332Y-48734D01*
X35332Y-49036D01*
X35704Y-49036D01*
X35723Y-49017D01*
X35723Y-48775D01*
X35723Y-49789D01*
X35723Y-49547D01*
X35704Y-49528D01*
X35332Y-49528D01*
X35332Y-49831D01*
X35351Y-49849D01*
X35633Y-49849D01*
X35663Y-49849D01*
X35690Y-49838D01*
X35711Y-49817D01*
X35723Y-49789D01*
X35723Y-51610D01*
X35711Y-51582D01*
X35690Y-51561D01*
X35663Y-51550D01*
X35633Y-51550D01*
X35351Y-51550D01*
X35332Y-51568D01*
X35332Y-51871D01*
X35704Y-51871D01*
X35723Y-51852D01*
X35723Y-51610D01*
X35723Y-52624D01*
X35723Y-52382D01*
X35704Y-52363D01*
X35332Y-52363D01*
X35332Y-52665D01*
X35351Y-52684D01*
X35633Y-52684D01*
X35663Y-52684D01*
X35690Y-52672D01*
X35711Y-52651D01*
X35723Y-52624D01*
X35723Y-57975D01*
X34437Y-57975D01*
X34437Y-52678D01*
X34451Y-52684D01*
X34481Y-52684D01*
X34763Y-52684D01*
X34782Y-52665D01*
X34782Y-52363D01*
X34774Y-52363D01*
X34774Y-51871D01*
X34782Y-51871D01*
X34782Y-51568D01*
X34763Y-51550D01*
X34481Y-51550D01*
X34451Y-51550D01*
X34437Y-51556D01*
X34437Y-49843D01*
X34451Y-49849D01*
X34481Y-49849D01*
X34763Y-49849D01*
X34782Y-49831D01*
X34782Y-49528D01*
X34774Y-49528D01*
X34774Y-49036D01*
X34782Y-49036D01*
X34782Y-48734D01*
X34763Y-48715D01*
X34481Y-48715D01*
X34451Y-48715D01*
X34437Y-48721D01*
X34437Y-16252D01*
X76019Y-16252D01*
X76413Y-16252D01*
X76657Y-16252D01*
X76657Y-54586D01*
X76657Y-54633D01*
X76657Y-54633D01*
G37*
G54D33*
X76657Y-54633D02*
X75934Y-54633D01*
X75934Y-52696D01*
X75858Y-52315D01*
X75769Y-52174D01*
X75380Y-52563D01*
X75380Y-51785D01*
X75239Y-51696D01*
X74818Y-51620D01*
X74437Y-51696D01*
X74296Y-51785D01*
X74838Y-52327D01*
X75380Y-51785D01*
X75380Y-52563D01*
X75227Y-52716D01*
X75769Y-53258D01*
X75858Y-53117D01*
X75934Y-52696D01*
X75934Y-54633D01*
X75380Y-54633D01*
X75380Y-53647D01*
X74838Y-53105D01*
X74449Y-53494D01*
X74449Y-52716D01*
X73907Y-52174D01*
X73818Y-52315D01*
X73742Y-52736D01*
X73818Y-53117D01*
X73907Y-53258D01*
X74449Y-52716D01*
X74449Y-53494D01*
X74296Y-53647D01*
X74437Y-53736D01*
X74858Y-53812D01*
X75239Y-53736D01*
X75380Y-53647D01*
X75380Y-54633D01*
X72400Y-54633D01*
X72400Y-21053D01*
X72324Y-20671D01*
X72235Y-20531D01*
X71846Y-20919D01*
X71846Y-20142D01*
X71706Y-20053D01*
X71285Y-19977D01*
X70903Y-20053D01*
X70762Y-20142D01*
X71304Y-20684D01*
X71846Y-20142D01*
X71846Y-20919D01*
X71693Y-21073D01*
X72235Y-21615D01*
X72324Y-21474D01*
X72400Y-21053D01*
X72400Y-54633D01*
X72181Y-54633D01*
X72123Y-54644D01*
X72075Y-54677D01*
X72042Y-54726D01*
X72031Y-54783D01*
X72031Y-54881D01*
X72031Y-57664D01*
X72025Y-57670D01*
X72025Y-57675D01*
X71897Y-57675D01*
X71897Y-57670D01*
X71878Y-57651D01*
X71846Y-57651D01*
X71846Y-22004D01*
X71304Y-21462D01*
X70915Y-21850D01*
X70915Y-21073D01*
X70373Y-20531D01*
X70284Y-20671D01*
X70208Y-21092D01*
X70284Y-21474D01*
X70373Y-21615D01*
X70915Y-21073D01*
X70915Y-21850D01*
X70762Y-22004D01*
X70903Y-22093D01*
X71324Y-22168D01*
X71706Y-22093D01*
X71846Y-22004D01*
X71846Y-57651D01*
X71818Y-57651D01*
X71790Y-57663D01*
X71785Y-57668D01*
X71784Y-57667D01*
X71755Y-57637D01*
X71746Y-57634D01*
X71775Y-57604D01*
X71809Y-57521D01*
X71810Y-57432D01*
X71775Y-57349D01*
X71712Y-57286D01*
X71629Y-57252D01*
X71540Y-57251D01*
X71526Y-57257D01*
X71526Y-57237D01*
X71491Y-57154D01*
X71428Y-57091D01*
X71345Y-57057D01*
X71256Y-57056D01*
X71173Y-57091D01*
X71110Y-57154D01*
X71076Y-57237D01*
X71075Y-57298D01*
X71051Y-57335D01*
X71039Y-57393D01*
X71039Y-57621D01*
X71024Y-57621D01*
X70986Y-57637D01*
X70956Y-57667D01*
X70956Y-57668D01*
X70950Y-57663D01*
X70922Y-57651D01*
X70862Y-57651D01*
X70844Y-57670D01*
X70844Y-57675D01*
X70716Y-57675D01*
X70716Y-57670D01*
X70697Y-57651D01*
X70637Y-57651D01*
X70609Y-57663D01*
X70597Y-57675D01*
X70568Y-57675D01*
X70556Y-57663D01*
X70529Y-57651D01*
X70469Y-57651D01*
X70450Y-57670D01*
X70450Y-57675D01*
X70322Y-57675D01*
X70322Y-57670D01*
X70303Y-57651D01*
X70243Y-57651D01*
X70215Y-57663D01*
X70210Y-57668D01*
X70209Y-57667D01*
X70180Y-57637D01*
X70158Y-57628D01*
X70158Y-43534D01*
X70158Y-34219D01*
X70147Y-34162D01*
X70147Y-34162D01*
X70114Y-34113D01*
X70114Y-34113D01*
X67631Y-31630D01*
X67631Y-26422D01*
X67592Y-26226D01*
X67526Y-26112D01*
X67143Y-26495D01*
X67526Y-26877D01*
X67592Y-26763D01*
X67631Y-26422D01*
X67631Y-31630D01*
X67137Y-31136D01*
X67137Y-27266D01*
X67137Y-25723D01*
X67023Y-25657D01*
X66682Y-25618D01*
X66486Y-25657D01*
X66372Y-25723D01*
X66755Y-26106D01*
X67137Y-25723D01*
X67137Y-27266D01*
X66755Y-26883D01*
X66372Y-27266D01*
X66486Y-27332D01*
X66827Y-27371D01*
X67023Y-27332D01*
X67137Y-27266D01*
X67137Y-31136D01*
X66366Y-30364D01*
X66366Y-26495D01*
X65983Y-26112D01*
X65917Y-26226D01*
X65878Y-26567D01*
X65917Y-26763D01*
X65983Y-26877D01*
X66366Y-26495D01*
X66366Y-30364D01*
X62320Y-26318D01*
X62271Y-26286D01*
X62214Y-26275D01*
X61727Y-26275D01*
X61697Y-26124D01*
X61604Y-25985D01*
X61464Y-25891D01*
X61300Y-25859D01*
X61135Y-25891D01*
X60995Y-25985D01*
X60902Y-26124D01*
X60870Y-26289D01*
X60870Y-26560D01*
X60902Y-26725D01*
X60995Y-26864D01*
X61135Y-26958D01*
X61300Y-26990D01*
X61464Y-26958D01*
X61604Y-26864D01*
X61697Y-26725D01*
X61727Y-26575D01*
X62151Y-26575D01*
X69858Y-34281D01*
X69858Y-43534D01*
X69858Y-57621D01*
X69843Y-57621D01*
X69805Y-57637D01*
X69795Y-57647D01*
X69786Y-57637D01*
X69764Y-57628D01*
X69764Y-57402D01*
X69753Y-57344D01*
X69753Y-57344D01*
X69740Y-57325D01*
X69721Y-57296D01*
X69721Y-57296D01*
X69533Y-57108D01*
X69533Y-43083D01*
X69521Y-43025D01*
X69521Y-43025D01*
X69508Y-43006D01*
X69489Y-42976D01*
X69489Y-42976D01*
X68754Y-42241D01*
X60730Y-34217D01*
X60730Y-26560D01*
X60730Y-26289D01*
X60697Y-26124D01*
X60604Y-25985D01*
X60464Y-25891D01*
X60300Y-25859D01*
X60135Y-25891D01*
X59995Y-25985D01*
X59902Y-26124D01*
X59870Y-26289D01*
X59870Y-26560D01*
X59902Y-26725D01*
X59995Y-26864D01*
X60135Y-26958D01*
X60300Y-26990D01*
X60464Y-26958D01*
X60604Y-26864D01*
X60697Y-26725D01*
X60730Y-26560D01*
X60730Y-34217D01*
X59730Y-33217D01*
X59730Y-26560D01*
X59730Y-26289D01*
X59697Y-26124D01*
X59604Y-25985D01*
X59464Y-25891D01*
X59300Y-25859D01*
X59135Y-25891D01*
X58995Y-25985D01*
X58902Y-26124D01*
X58870Y-26289D01*
X58870Y-26560D01*
X58902Y-26725D01*
X58995Y-26864D01*
X59135Y-26958D01*
X59300Y-26990D01*
X59464Y-26958D01*
X59604Y-26864D01*
X59697Y-26725D01*
X59730Y-26560D01*
X59730Y-33217D01*
X58730Y-32217D01*
X58730Y-26560D01*
X58730Y-26289D01*
X58697Y-26124D01*
X58604Y-25985D01*
X58525Y-25932D01*
X58525Y-25109D01*
X58529Y-25097D01*
X58529Y-25053D01*
X58530Y-25053D01*
X58529Y-25052D01*
X58530Y-25008D01*
X58512Y-24966D01*
X58495Y-24925D01*
X58464Y-24893D01*
X58432Y-24862D01*
X58391Y-24845D01*
X58391Y-24845D01*
X58349Y-24828D01*
X58305Y-24828D01*
X58304Y-24828D01*
X58260Y-24827D01*
X58177Y-24862D01*
X58145Y-24893D01*
X58145Y-24893D01*
X58145Y-24893D01*
X58114Y-24925D01*
X58099Y-24960D01*
X58099Y-24960D01*
X58092Y-24971D01*
X58089Y-24985D01*
X58080Y-25008D01*
X58080Y-25032D01*
X58074Y-25058D01*
X58075Y-25058D01*
X58075Y-25932D01*
X57995Y-25985D01*
X57902Y-26124D01*
X57870Y-26289D01*
X57870Y-26560D01*
X57902Y-26725D01*
X57995Y-26864D01*
X58135Y-26958D01*
X58300Y-26990D01*
X58464Y-26958D01*
X58604Y-26864D01*
X58697Y-26725D01*
X58730Y-26560D01*
X58730Y-32217D01*
X56652Y-30139D01*
X56652Y-26650D01*
X56652Y-26200D01*
X56650Y-26143D01*
X56563Y-26020D01*
X56517Y-25964D01*
X56462Y-25955D01*
X56462Y-26200D01*
X56652Y-26200D01*
X56652Y-26650D01*
X56462Y-26650D01*
X56462Y-26894D01*
X56517Y-26885D01*
X56563Y-26829D01*
X56650Y-26706D01*
X56652Y-26650D01*
X56652Y-30139D01*
X56137Y-29625D01*
X56137Y-26894D01*
X56137Y-26650D01*
X56137Y-26200D01*
X56137Y-25955D01*
X56082Y-25964D01*
X56036Y-26020D01*
X55949Y-26143D01*
X55947Y-26200D01*
X56137Y-26200D01*
X56137Y-26650D01*
X55947Y-26650D01*
X55949Y-26706D01*
X56036Y-26829D01*
X56082Y-26885D01*
X56137Y-26894D01*
X56137Y-29625D01*
X55652Y-29139D01*
X55652Y-26650D01*
X55652Y-26200D01*
X55650Y-26143D01*
X55563Y-26020D01*
X55517Y-25964D01*
X55462Y-25955D01*
X55462Y-26200D01*
X55652Y-26200D01*
X55652Y-26650D01*
X55462Y-26650D01*
X55462Y-26894D01*
X55517Y-26885D01*
X55563Y-26829D01*
X55650Y-26706D01*
X55652Y-26650D01*
X55652Y-29139D01*
X55137Y-28625D01*
X55137Y-26894D01*
X55137Y-26650D01*
X55137Y-26200D01*
X55137Y-25955D01*
X55082Y-25964D01*
X55036Y-26020D01*
X54949Y-26143D01*
X54947Y-26200D01*
X55137Y-26200D01*
X55137Y-26650D01*
X54947Y-26650D01*
X54949Y-26706D01*
X55036Y-26829D01*
X55082Y-26885D01*
X55137Y-26894D01*
X55137Y-28625D01*
X53715Y-27202D01*
X53715Y-26260D01*
X53715Y-24992D01*
X53715Y-22987D01*
X53703Y-22929D01*
X53703Y-22929D01*
X53690Y-22910D01*
X53671Y-22880D01*
X53671Y-22880D01*
X53630Y-22840D01*
X53631Y-22783D01*
X53596Y-22700D01*
X53533Y-22637D01*
X53450Y-22603D01*
X53361Y-22602D01*
X53278Y-22637D01*
X53215Y-22700D01*
X53181Y-22783D01*
X53180Y-22872D01*
X53215Y-22955D01*
X53278Y-23018D01*
X53361Y-23052D01*
X53415Y-23053D01*
X53415Y-23248D01*
X53030Y-22864D01*
X53031Y-22807D01*
X52996Y-22724D01*
X52933Y-22661D01*
X52850Y-22627D01*
X52761Y-22626D01*
X52678Y-22661D01*
X52618Y-22721D01*
X52616Y-22718D01*
X52553Y-22655D01*
X52470Y-22621D01*
X52381Y-22620D01*
X52298Y-22655D01*
X52235Y-22718D01*
X52201Y-22801D01*
X52200Y-22890D01*
X52235Y-22973D01*
X52298Y-23036D01*
X52381Y-23070D01*
X52438Y-23071D01*
X53074Y-23707D01*
X53074Y-25040D01*
X53074Y-26358D01*
X53074Y-27405D01*
X53086Y-27463D01*
X53118Y-27511D01*
X67148Y-41540D01*
X67148Y-41540D01*
X68589Y-42982D01*
X68589Y-56721D01*
X67934Y-57377D01*
X67901Y-57426D01*
X67890Y-57483D01*
X67890Y-57621D01*
X67875Y-57621D01*
X67836Y-57637D01*
X67807Y-57667D01*
X67806Y-57668D01*
X67800Y-57663D01*
X67773Y-57651D01*
X67713Y-57651D01*
X67694Y-57670D01*
X67694Y-57675D01*
X67566Y-57675D01*
X67566Y-57670D01*
X67547Y-57651D01*
X67487Y-57651D01*
X67460Y-57663D01*
X67448Y-57675D01*
X67419Y-57675D01*
X67407Y-57663D01*
X67379Y-57651D01*
X67319Y-57651D01*
X67300Y-57670D01*
X67300Y-57675D01*
X67277Y-57675D01*
X67277Y-45288D01*
X67238Y-45092D01*
X67172Y-44978D01*
X66789Y-45361D01*
X67172Y-45743D01*
X67238Y-45629D01*
X67277Y-45288D01*
X67277Y-57675D01*
X67172Y-57675D01*
X67172Y-57670D01*
X67154Y-57651D01*
X67093Y-57651D01*
X67066Y-57663D01*
X67060Y-57668D01*
X67060Y-57667D01*
X67030Y-57637D01*
X67009Y-57628D01*
X67009Y-57199D01*
X67009Y-57199D01*
X67009Y-57199D01*
X67006Y-57187D01*
X66997Y-57141D01*
X66997Y-57141D01*
X66965Y-57092D01*
X66965Y-57092D01*
X66783Y-56911D01*
X66783Y-46132D01*
X66783Y-44589D01*
X66669Y-44523D01*
X66328Y-44484D01*
X66132Y-44523D01*
X66018Y-44589D01*
X66401Y-44972D01*
X66783Y-44589D01*
X66783Y-46132D01*
X66401Y-45749D01*
X66018Y-46132D01*
X66132Y-46198D01*
X66473Y-46237D01*
X66669Y-46198D01*
X66783Y-46132D01*
X66783Y-56911D01*
X66012Y-56139D01*
X66012Y-45361D01*
X65629Y-44978D01*
X65563Y-45092D01*
X65524Y-45433D01*
X65563Y-45629D01*
X65629Y-45743D01*
X66012Y-45361D01*
X66012Y-56139D01*
X65919Y-56046D01*
X65870Y-56014D01*
X65812Y-56002D01*
X64225Y-56002D01*
X63803Y-55581D01*
X63877Y-55550D01*
X63940Y-55487D01*
X63974Y-55404D01*
X63975Y-55315D01*
X63940Y-55232D01*
X63877Y-55169D01*
X63794Y-55135D01*
X63737Y-55134D01*
X63230Y-54627D01*
X63230Y-45560D01*
X63230Y-45289D01*
X63197Y-45124D01*
X63104Y-44985D01*
X62964Y-44891D01*
X62800Y-44859D01*
X62635Y-44891D01*
X62495Y-44985D01*
X62402Y-45124D01*
X62370Y-45289D01*
X62370Y-45560D01*
X62402Y-45725D01*
X62495Y-45864D01*
X62635Y-45958D01*
X62800Y-45990D01*
X62964Y-45958D01*
X63104Y-45864D01*
X63197Y-45725D01*
X63230Y-45560D01*
X63230Y-54627D01*
X62901Y-54298D01*
X62901Y-46949D01*
X62883Y-46907D01*
X62866Y-46866D01*
X62835Y-46834D01*
X62835Y-46834D01*
X62835Y-46834D01*
X62803Y-46803D01*
X62762Y-46786D01*
X62762Y-46786D01*
X62762Y-46786D01*
X62720Y-46769D01*
X62676Y-46769D01*
X62675Y-46769D01*
X62631Y-46768D01*
X62631Y-46769D01*
X62152Y-46769D01*
X62152Y-45650D01*
X62152Y-45200D01*
X62150Y-45143D01*
X62063Y-45020D01*
X62017Y-44964D01*
X61962Y-44955D01*
X61962Y-45200D01*
X62152Y-45200D01*
X62152Y-45650D01*
X61962Y-45650D01*
X61962Y-45894D01*
X62017Y-45885D01*
X62063Y-45829D01*
X62150Y-45706D01*
X62152Y-45650D01*
X62152Y-46769D01*
X61637Y-46769D01*
X61637Y-45894D01*
X61637Y-45650D01*
X61637Y-45200D01*
X61637Y-44955D01*
X61582Y-44964D01*
X61536Y-45020D01*
X61449Y-45143D01*
X61447Y-45200D01*
X61637Y-45200D01*
X61637Y-45650D01*
X61447Y-45650D01*
X61449Y-45706D01*
X61536Y-45829D01*
X61582Y-45885D01*
X61637Y-45894D01*
X61637Y-46769D01*
X61230Y-46769D01*
X61230Y-45560D01*
X61230Y-45289D01*
X61197Y-45124D01*
X61104Y-44985D01*
X60964Y-44891D01*
X60950Y-44888D01*
X60950Y-42830D01*
X60949Y-42829D01*
X60950Y-42829D01*
X60947Y-42818D01*
X60938Y-42772D01*
X60938Y-42772D01*
X60906Y-42723D01*
X60906Y-42723D01*
X53928Y-35746D01*
X53879Y-35713D01*
X53822Y-35702D01*
X47783Y-35702D01*
X47783Y-34762D01*
X47713Y-34595D01*
X47586Y-34466D01*
X47418Y-34397D01*
X47237Y-34397D01*
X47070Y-34466D01*
X46942Y-34594D01*
X46873Y-34761D01*
X46872Y-34942D01*
X46941Y-35109D01*
X47069Y-35237D01*
X47237Y-35307D01*
X47418Y-35307D01*
X47585Y-35238D01*
X47713Y-35110D01*
X47782Y-34943D01*
X47783Y-34762D01*
X47783Y-35702D01*
X47758Y-35702D01*
X47713Y-35595D01*
X47586Y-35466D01*
X47418Y-35397D01*
X47237Y-35397D01*
X47070Y-35466D01*
X46942Y-35594D01*
X46873Y-35761D01*
X46872Y-35942D01*
X46941Y-36109D01*
X47069Y-36237D01*
X47237Y-36307D01*
X47418Y-36307D01*
X47585Y-36238D01*
X47713Y-36110D01*
X47758Y-36002D01*
X53760Y-36002D01*
X60650Y-42892D01*
X60650Y-44888D01*
X60635Y-44891D01*
X60495Y-44985D01*
X60402Y-45124D01*
X60370Y-45289D01*
X60370Y-45560D01*
X60402Y-45725D01*
X60495Y-45864D01*
X60635Y-45958D01*
X60800Y-45990D01*
X60964Y-45958D01*
X61104Y-45864D01*
X61197Y-45725D01*
X61230Y-45560D01*
X61230Y-46769D01*
X56472Y-46769D01*
X56462Y-46759D01*
X56421Y-46742D01*
X56421Y-46742D01*
X56379Y-46725D01*
X56335Y-46725D01*
X56335Y-46724D01*
X56334Y-46725D01*
X56290Y-46724D01*
X56207Y-46759D01*
X56175Y-46790D01*
X56175Y-46790D01*
X56175Y-46790D01*
X56144Y-46822D01*
X56127Y-46863D01*
X56127Y-46863D01*
X56127Y-46863D01*
X56110Y-46905D01*
X56110Y-46949D01*
X56109Y-46950D01*
X56110Y-46950D01*
X56109Y-46994D01*
X56144Y-47077D01*
X56175Y-47109D01*
X56175Y-47109D01*
X56176Y-47109D01*
X56207Y-47140D01*
X56207Y-47140D01*
X56219Y-47153D01*
X56219Y-47153D01*
X56292Y-47201D01*
X56379Y-47219D01*
X62676Y-47219D01*
X62676Y-47218D01*
X62720Y-47219D01*
X62762Y-47201D01*
X62803Y-47184D01*
X62835Y-47153D01*
X62835Y-47153D01*
X62835Y-47153D01*
X62866Y-47121D01*
X62883Y-47080D01*
X62883Y-47080D01*
X62883Y-47080D01*
X62900Y-47038D01*
X62900Y-46994D01*
X62901Y-46994D01*
X62900Y-46993D01*
X62901Y-46949D01*
X62901Y-54298D01*
X55950Y-47347D01*
X55950Y-45961D01*
X55964Y-45958D01*
X56104Y-45864D01*
X56197Y-45725D01*
X56230Y-45560D01*
X56230Y-45289D01*
X56197Y-45124D01*
X56104Y-44985D01*
X55964Y-44891D01*
X55950Y-44888D01*
X55950Y-40387D01*
X56650Y-41087D01*
X56650Y-44888D01*
X56635Y-44891D01*
X56495Y-44985D01*
X56402Y-45124D01*
X56370Y-45289D01*
X56370Y-45560D01*
X56402Y-45725D01*
X56495Y-45864D01*
X56635Y-45958D01*
X56800Y-45990D01*
X56964Y-45958D01*
X57104Y-45864D01*
X57197Y-45725D01*
X57230Y-45560D01*
X57230Y-45289D01*
X57197Y-45124D01*
X57104Y-44985D01*
X56964Y-44891D01*
X56950Y-44888D01*
X56950Y-41146D01*
X57650Y-41846D01*
X57650Y-44888D01*
X57635Y-44891D01*
X57495Y-44985D01*
X57402Y-45124D01*
X57370Y-45289D01*
X57370Y-45560D01*
X57402Y-45725D01*
X57495Y-45864D01*
X57635Y-45958D01*
X57800Y-45990D01*
X57964Y-45958D01*
X58104Y-45864D01*
X58197Y-45725D01*
X58230Y-45560D01*
X58230Y-45289D01*
X58197Y-45124D01*
X58104Y-44985D01*
X57964Y-44891D01*
X57950Y-44888D01*
X57950Y-41906D01*
X58650Y-42606D01*
X58650Y-44888D01*
X58635Y-44891D01*
X58495Y-44985D01*
X58402Y-45124D01*
X58370Y-45289D01*
X58370Y-45560D01*
X58402Y-45725D01*
X58495Y-45864D01*
X58635Y-45958D01*
X58800Y-45990D01*
X58964Y-45958D01*
X59104Y-45864D01*
X59197Y-45725D01*
X59230Y-45560D01*
X59230Y-45289D01*
X59197Y-45124D01*
X59104Y-44985D01*
X58964Y-44891D01*
X58950Y-44888D01*
X58950Y-42666D01*
X59650Y-43366D01*
X59650Y-44888D01*
X59635Y-44891D01*
X59495Y-44985D01*
X59402Y-45124D01*
X59370Y-45289D01*
X59370Y-45560D01*
X59402Y-45725D01*
X59495Y-45864D01*
X59635Y-45958D01*
X59800Y-45990D01*
X59964Y-45958D01*
X60104Y-45864D01*
X60197Y-45725D01*
X60230Y-45560D01*
X60230Y-45289D01*
X60197Y-45124D01*
X60104Y-44985D01*
X59964Y-44891D01*
X59950Y-44888D01*
X59950Y-43304D01*
X59938Y-43246D01*
X59938Y-43246D01*
X59906Y-43197D01*
X53454Y-36746D01*
X53405Y-36713D01*
X53348Y-36702D01*
X47758Y-36702D01*
X47713Y-36595D01*
X47586Y-36466D01*
X47418Y-36397D01*
X47237Y-36397D01*
X47070Y-36466D01*
X46965Y-36571D01*
X46965Y-36324D01*
X46953Y-36266D01*
X46953Y-36266D01*
X46921Y-36217D01*
X46921Y-36217D01*
X46742Y-36039D01*
X46782Y-35943D01*
X46783Y-35762D01*
X46754Y-35692D01*
X46754Y-34774D01*
X46751Y-34761D01*
X46717Y-34710D01*
X46575Y-34852D01*
X46717Y-34994D01*
X46751Y-34943D01*
X46754Y-34774D01*
X46754Y-35692D01*
X46713Y-35595D01*
X46586Y-35466D01*
X46469Y-35418D01*
X46469Y-35241D01*
X46469Y-34462D01*
X46419Y-34428D01*
X46250Y-34426D01*
X46236Y-34428D01*
X46185Y-34462D01*
X46327Y-34604D01*
X46469Y-34462D01*
X46469Y-35241D01*
X46327Y-35099D01*
X46185Y-35241D01*
X46236Y-35276D01*
X46405Y-35278D01*
X46419Y-35276D01*
X46469Y-35241D01*
X46469Y-35418D01*
X46418Y-35397D01*
X46237Y-35397D01*
X46080Y-35462D01*
X46080Y-34852D01*
X45938Y-34710D01*
X45904Y-34761D01*
X45901Y-34930D01*
X45904Y-34943D01*
X45938Y-34994D01*
X46080Y-34852D01*
X46080Y-35462D01*
X46070Y-35466D01*
X45942Y-35594D01*
X45873Y-35761D01*
X45872Y-35942D01*
X45941Y-36109D01*
X46069Y-36237D01*
X46237Y-36307D01*
X46418Y-36307D01*
X46537Y-36258D01*
X46665Y-36386D01*
X46665Y-36546D01*
X46586Y-36466D01*
X46418Y-36397D01*
X46237Y-36397D01*
X46123Y-36444D01*
X45795Y-36116D01*
X45795Y-32583D01*
X46771Y-31607D01*
X52884Y-31607D01*
X52884Y-31606D01*
X52928Y-31607D01*
X52970Y-31589D01*
X53011Y-31572D01*
X53043Y-31541D01*
X53043Y-31541D01*
X53043Y-31541D01*
X53074Y-31509D01*
X53091Y-31468D01*
X53091Y-31468D01*
X53091Y-31468D01*
X53108Y-31426D01*
X53108Y-31382D01*
X53109Y-31382D01*
X53108Y-31381D01*
X53109Y-31337D01*
X53091Y-31295D01*
X53074Y-31254D01*
X53045Y-31225D01*
X53098Y-31225D01*
X63650Y-41776D01*
X63650Y-44888D01*
X63635Y-44891D01*
X63495Y-44985D01*
X63402Y-45124D01*
X63370Y-45289D01*
X63370Y-45560D01*
X63402Y-45725D01*
X63495Y-45864D01*
X63635Y-45958D01*
X63800Y-45990D01*
X63964Y-45958D01*
X64104Y-45864D01*
X64197Y-45725D01*
X64230Y-45560D01*
X64230Y-45289D01*
X64197Y-45124D01*
X64104Y-44985D01*
X63964Y-44891D01*
X63950Y-44888D01*
X63950Y-41836D01*
X64650Y-42536D01*
X64650Y-44888D01*
X64635Y-44891D01*
X64495Y-44985D01*
X64402Y-45124D01*
X64370Y-45289D01*
X64370Y-45560D01*
X64402Y-45725D01*
X64495Y-45864D01*
X64635Y-45958D01*
X64800Y-45990D01*
X64964Y-45958D01*
X65104Y-45864D01*
X65197Y-45725D01*
X65230Y-45560D01*
X65230Y-45289D01*
X65197Y-45124D01*
X65104Y-44985D01*
X64964Y-44891D01*
X64950Y-44888D01*
X64950Y-42474D01*
X64938Y-42416D01*
X64938Y-42416D01*
X64906Y-42367D01*
X53337Y-30798D01*
X53288Y-30766D01*
X53231Y-30755D01*
X52730Y-30755D01*
X52730Y-26560D01*
X52730Y-26289D01*
X52697Y-26124D01*
X52604Y-25985D01*
X52464Y-25891D01*
X52300Y-25859D01*
X52135Y-25891D01*
X51995Y-25985D01*
X51902Y-26124D01*
X51870Y-26289D01*
X51870Y-26560D01*
X51902Y-26725D01*
X51995Y-26864D01*
X52135Y-26958D01*
X52300Y-26990D01*
X52464Y-26958D01*
X52604Y-26864D01*
X52697Y-26725D01*
X52730Y-26560D01*
X52730Y-30755D01*
X51730Y-30755D01*
X51730Y-26560D01*
X51730Y-26289D01*
X51697Y-26124D01*
X51604Y-25985D01*
X51464Y-25891D01*
X51300Y-25859D01*
X51135Y-25891D01*
X50995Y-25985D01*
X50902Y-26124D01*
X50870Y-26289D01*
X50870Y-26560D01*
X50902Y-26725D01*
X50995Y-26864D01*
X51135Y-26958D01*
X51300Y-26990D01*
X51464Y-26958D01*
X51604Y-26864D01*
X51697Y-26725D01*
X51730Y-26560D01*
X51730Y-30755D01*
X50730Y-30755D01*
X50730Y-26560D01*
X50730Y-26289D01*
X50697Y-26124D01*
X50604Y-25985D01*
X50464Y-25891D01*
X50391Y-25877D01*
X50391Y-24582D01*
X50315Y-24201D01*
X50226Y-24060D01*
X49837Y-24449D01*
X49837Y-23671D01*
X49696Y-23582D01*
X49275Y-23506D01*
X48894Y-23582D01*
X48753Y-23671D01*
X49295Y-24213D01*
X49837Y-23671D01*
X49837Y-24449D01*
X49684Y-24602D01*
X50226Y-25144D01*
X50315Y-25003D01*
X50391Y-24582D01*
X50391Y-25877D01*
X50300Y-25859D01*
X50135Y-25891D01*
X49995Y-25985D01*
X49902Y-26124D01*
X49870Y-26289D01*
X49870Y-26560D01*
X49902Y-26725D01*
X49995Y-26864D01*
X50135Y-26958D01*
X50300Y-26990D01*
X50464Y-26958D01*
X50604Y-26864D01*
X50697Y-26725D01*
X50730Y-26560D01*
X50730Y-30755D01*
X49837Y-30755D01*
X49837Y-25533D01*
X49295Y-24991D01*
X48906Y-25380D01*
X48906Y-24602D01*
X48364Y-24060D01*
X48275Y-24201D01*
X48199Y-24622D01*
X48275Y-25003D01*
X48364Y-25144D01*
X48906Y-24602D01*
X48906Y-25380D01*
X48753Y-25533D01*
X48894Y-25622D01*
X49315Y-25698D01*
X49696Y-25622D01*
X49837Y-25533D01*
X49837Y-30755D01*
X49730Y-30755D01*
X49730Y-26560D01*
X49730Y-26289D01*
X49697Y-26124D01*
X49604Y-25985D01*
X49464Y-25891D01*
X49300Y-25859D01*
X49135Y-25891D01*
X48995Y-25985D01*
X48902Y-26124D01*
X48870Y-26289D01*
X48870Y-26560D01*
X48902Y-26725D01*
X48995Y-26864D01*
X49135Y-26958D01*
X49300Y-26990D01*
X49464Y-26958D01*
X49604Y-26864D01*
X49697Y-26725D01*
X49730Y-26560D01*
X49730Y-30755D01*
X48730Y-30755D01*
X48730Y-26560D01*
X48730Y-26289D01*
X48697Y-26124D01*
X48604Y-25985D01*
X48464Y-25891D01*
X48300Y-25859D01*
X48135Y-25891D01*
X47995Y-25985D01*
X47902Y-26124D01*
X47870Y-26289D01*
X47870Y-26560D01*
X47902Y-26725D01*
X47995Y-26864D01*
X48135Y-26958D01*
X48300Y-26990D01*
X48464Y-26958D01*
X48604Y-26864D01*
X48697Y-26725D01*
X48730Y-26560D01*
X48730Y-30755D01*
X47730Y-30755D01*
X47730Y-26560D01*
X47730Y-26289D01*
X47697Y-26124D01*
X47604Y-25985D01*
X47464Y-25891D01*
X47300Y-25859D01*
X47135Y-25891D01*
X46995Y-25985D01*
X46902Y-26124D01*
X46870Y-26289D01*
X46870Y-26560D01*
X46902Y-26725D01*
X46995Y-26864D01*
X47135Y-26958D01*
X47300Y-26990D01*
X47464Y-26958D01*
X47604Y-26864D01*
X47697Y-26725D01*
X47730Y-26560D01*
X47730Y-30755D01*
X47246Y-30755D01*
X47246Y-28348D01*
X47207Y-28152D01*
X47141Y-28038D01*
X46758Y-28421D01*
X47141Y-28803D01*
X47207Y-28689D01*
X47246Y-28348D01*
X47246Y-30755D01*
X46987Y-30755D01*
X46752Y-30520D01*
X46752Y-29192D01*
X46752Y-27649D01*
X46638Y-27583D01*
X46297Y-27544D01*
X46101Y-27583D01*
X45987Y-27649D01*
X46370Y-28032D01*
X46752Y-27649D01*
X46752Y-29192D01*
X46370Y-28809D01*
X45987Y-29192D01*
X46101Y-29258D01*
X46442Y-29297D01*
X46638Y-29258D01*
X46752Y-29192D01*
X46752Y-30520D01*
X45981Y-29748D01*
X45981Y-28421D01*
X45976Y-28416D01*
X45976Y-20936D01*
X45976Y-19936D01*
X45972Y-19914D01*
X45940Y-19871D01*
X45812Y-20000D01*
X45940Y-20128D01*
X45972Y-20085D01*
X45976Y-19936D01*
X45976Y-20936D01*
X45972Y-20914D01*
X45940Y-20871D01*
X45812Y-21000D01*
X45940Y-21128D01*
X45972Y-21085D01*
X45976Y-20936D01*
X45976Y-28416D01*
X45728Y-28168D01*
X45728Y-21340D01*
X45728Y-20659D01*
X45728Y-20340D01*
X45728Y-19659D01*
X45685Y-19627D01*
X45536Y-19623D01*
X45514Y-19627D01*
X45471Y-19659D01*
X45600Y-19787D01*
X45728Y-19659D01*
X45728Y-20340D01*
X45600Y-20212D01*
X45471Y-20340D01*
X45514Y-20372D01*
X45663Y-20376D01*
X45685Y-20372D01*
X45728Y-20340D01*
X45728Y-20659D01*
X45685Y-20627D01*
X45536Y-20623D01*
X45514Y-20627D01*
X45471Y-20659D01*
X45600Y-20787D01*
X45728Y-20659D01*
X45728Y-21340D01*
X45600Y-21212D01*
X45471Y-21340D01*
X45514Y-21372D01*
X45663Y-21376D01*
X45685Y-21372D01*
X45728Y-21340D01*
X45728Y-28168D01*
X45598Y-28038D01*
X45532Y-28152D01*
X45493Y-28493D01*
X45532Y-28689D01*
X45598Y-28803D01*
X45981Y-28421D01*
X45981Y-29748D01*
X45387Y-29155D01*
X45387Y-21000D01*
X45387Y-20000D01*
X45259Y-19871D01*
X45227Y-19914D01*
X45223Y-20063D01*
X45227Y-20085D01*
X45259Y-20128D01*
X45387Y-20000D01*
X45387Y-21000D01*
X45259Y-20871D01*
X45227Y-20914D01*
X45223Y-21063D01*
X45227Y-21085D01*
X45259Y-21128D01*
X45387Y-21000D01*
X45387Y-29155D01*
X44750Y-28517D01*
X44750Y-21376D01*
X44829Y-21343D01*
X44943Y-21229D01*
X45004Y-21080D01*
X45005Y-20919D01*
X44943Y-20770D01*
X44829Y-20656D01*
X44680Y-20595D01*
X44519Y-20594D01*
X44396Y-20646D01*
X44637Y-20405D01*
X44680Y-20405D01*
X44829Y-20343D01*
X44943Y-20229D01*
X45004Y-20080D01*
X45005Y-19919D01*
X44943Y-19770D01*
X44829Y-19656D01*
X44680Y-19595D01*
X44519Y-19594D01*
X44370Y-19656D01*
X44256Y-19770D01*
X44195Y-19919D01*
X44194Y-20080D01*
X44256Y-20229D01*
X44322Y-20295D01*
X44048Y-20568D01*
X44016Y-20617D01*
X44005Y-20674D01*
X44005Y-19919D01*
X43943Y-19770D01*
X43829Y-19656D01*
X43680Y-19595D01*
X43519Y-19594D01*
X43370Y-19656D01*
X43256Y-19770D01*
X43195Y-19919D01*
X43194Y-20080D01*
X43256Y-20229D01*
X43370Y-20343D01*
X43519Y-20404D01*
X43680Y-20405D01*
X43829Y-20343D01*
X43943Y-20229D01*
X44004Y-20080D01*
X44005Y-19919D01*
X44005Y-20674D01*
X44005Y-20675D01*
X44005Y-20919D01*
X43943Y-20770D01*
X43829Y-20656D01*
X43680Y-20595D01*
X43519Y-20594D01*
X43370Y-20656D01*
X43256Y-20770D01*
X43195Y-20919D01*
X43194Y-21080D01*
X43256Y-21229D01*
X43370Y-21343D01*
X43519Y-21404D01*
X43680Y-21405D01*
X43829Y-21343D01*
X43943Y-21229D01*
X44004Y-21080D01*
X44005Y-21000D01*
X44005Y-28390D01*
X44016Y-28447D01*
X44048Y-28496D01*
X46709Y-31157D01*
X46678Y-31157D01*
X46591Y-31174D01*
X46518Y-31222D01*
X46518Y-31222D01*
X45446Y-32295D01*
X45446Y-32235D01*
X45434Y-32178D01*
X45434Y-32178D01*
X45402Y-32129D01*
X42263Y-28990D01*
X42263Y-21443D01*
X42263Y-21386D01*
X42263Y-21235D01*
X42370Y-21343D01*
X42519Y-21404D01*
X42680Y-21405D01*
X42829Y-21343D01*
X42943Y-21229D01*
X43004Y-21080D01*
X43005Y-20919D01*
X42943Y-20770D01*
X42829Y-20656D01*
X42680Y-20595D01*
X42564Y-20594D01*
X42706Y-20453D01*
X42706Y-20453D01*
X42706Y-20453D01*
X42738Y-20404D01*
X42738Y-20404D01*
X42743Y-20378D01*
X42829Y-20343D01*
X42943Y-20229D01*
X43004Y-20080D01*
X43005Y-19919D01*
X42943Y-19770D01*
X42829Y-19656D01*
X42680Y-19595D01*
X42519Y-19594D01*
X42370Y-19656D01*
X42256Y-19770D01*
X42195Y-19919D01*
X42194Y-20080D01*
X42256Y-20229D01*
X42370Y-20343D01*
X42385Y-20349D01*
X42006Y-20727D01*
X42005Y-20730D01*
X42005Y-20679D01*
X41989Y-20640D01*
X41959Y-20611D01*
X41920Y-20595D01*
X41879Y-20594D01*
X41279Y-20594D01*
X41240Y-20610D01*
X41211Y-20640D01*
X41195Y-20679D01*
X41194Y-20720D01*
X41194Y-21314D01*
X41113Y-21232D01*
X41113Y-20300D01*
X41235Y-20177D01*
X41256Y-20229D01*
X41370Y-20343D01*
X41519Y-20404D01*
X41680Y-20405D01*
X41829Y-20343D01*
X41943Y-20229D01*
X42004Y-20080D01*
X42005Y-19919D01*
X41943Y-19770D01*
X41829Y-19656D01*
X41680Y-19595D01*
X41519Y-19594D01*
X41370Y-19656D01*
X41256Y-19770D01*
X41223Y-19850D01*
X41201Y-19850D01*
X41143Y-19861D01*
X41094Y-19893D01*
X41094Y-19893D01*
X40856Y-20131D01*
X40824Y-20180D01*
X40813Y-20238D01*
X40813Y-21295D01*
X40824Y-21352D01*
X40856Y-21401D01*
X41622Y-22167D01*
X41622Y-29071D01*
X39576Y-27025D01*
X39576Y-26536D01*
X39572Y-26514D01*
X39540Y-26471D01*
X39412Y-26600D01*
X39540Y-26728D01*
X39572Y-26685D01*
X39576Y-26536D01*
X39576Y-27025D01*
X39550Y-26998D01*
X39501Y-26966D01*
X39444Y-26955D01*
X39308Y-26955D01*
X39328Y-26940D01*
X39328Y-26259D01*
X39285Y-26227D01*
X39136Y-26223D01*
X39114Y-26227D01*
X39071Y-26259D01*
X39200Y-26387D01*
X39328Y-26259D01*
X39328Y-26940D01*
X39200Y-26812D01*
X39071Y-26940D01*
X39091Y-26955D01*
X38987Y-26955D01*
X38987Y-26600D01*
X38859Y-26471D01*
X38827Y-26514D01*
X38823Y-26663D01*
X38827Y-26685D01*
X38859Y-26728D01*
X38987Y-26600D01*
X38987Y-26955D01*
X38576Y-26955D01*
X38576Y-26536D01*
X38572Y-26514D01*
X38540Y-26471D01*
X38412Y-26600D01*
X38540Y-26728D01*
X38572Y-26685D01*
X38576Y-26536D01*
X38576Y-26955D01*
X38308Y-26955D01*
X38328Y-26940D01*
X38328Y-26259D01*
X38285Y-26227D01*
X38136Y-26223D01*
X38114Y-26227D01*
X38071Y-26259D01*
X38200Y-26387D01*
X38328Y-26259D01*
X38328Y-26940D01*
X38200Y-26812D01*
X38071Y-26940D01*
X38114Y-26972D01*
X38224Y-26975D01*
X38189Y-26998D01*
X38189Y-26998D01*
X38093Y-27094D01*
X38061Y-27143D01*
X38050Y-27201D01*
X38050Y-27223D01*
X37987Y-27249D01*
X37987Y-26600D01*
X37859Y-26471D01*
X37827Y-26514D01*
X37823Y-26663D01*
X37827Y-26685D01*
X37859Y-26728D01*
X37987Y-26600D01*
X37987Y-27249D01*
X37970Y-27256D01*
X37856Y-27370D01*
X37795Y-27519D01*
X37794Y-27680D01*
X37856Y-27829D01*
X37970Y-27943D01*
X38119Y-28004D01*
X38252Y-28005D01*
X38093Y-28163D01*
X38061Y-28212D01*
X38060Y-28219D01*
X37970Y-28256D01*
X37856Y-28370D01*
X37795Y-28519D01*
X37794Y-28680D01*
X37856Y-28829D01*
X37970Y-28943D01*
X38119Y-29004D01*
X38227Y-29005D01*
X38213Y-29013D01*
X38213Y-29013D01*
X38093Y-29133D01*
X38061Y-29182D01*
X38053Y-29222D01*
X37970Y-29256D01*
X37856Y-29370D01*
X37795Y-29519D01*
X37794Y-29680D01*
X37856Y-29829D01*
X37970Y-29943D01*
X38119Y-30004D01*
X38280Y-30005D01*
X38293Y-29999D01*
X38093Y-30198D01*
X38087Y-30208D01*
X37970Y-30256D01*
X37856Y-30370D01*
X37795Y-30519D01*
X37794Y-30680D01*
X37856Y-30829D01*
X37970Y-30943D01*
X38119Y-31004D01*
X38280Y-31005D01*
X38429Y-30943D01*
X38543Y-30829D01*
X38604Y-30680D01*
X38605Y-30519D01*
X38543Y-30370D01*
X38444Y-30272D01*
X38477Y-30240D01*
X38811Y-30240D01*
X38811Y-30240D01*
X38795Y-30279D01*
X38794Y-30320D01*
X38794Y-30920D01*
X38810Y-30959D01*
X38840Y-30988D01*
X38879Y-31004D01*
X38920Y-31005D01*
X39520Y-31005D01*
X39559Y-30989D01*
X39588Y-30959D01*
X39604Y-30920D01*
X39605Y-30879D01*
X39605Y-30750D01*
X39929Y-30750D01*
X43420Y-34240D01*
X43420Y-36576D01*
X43420Y-38879D01*
X39576Y-35036D01*
X39576Y-34558D01*
X39572Y-34536D01*
X39540Y-34493D01*
X39412Y-34622D01*
X39540Y-34750D01*
X39572Y-34707D01*
X39576Y-34558D01*
X39576Y-35036D01*
X39546Y-35005D01*
X39497Y-34973D01*
X39440Y-34962D01*
X39328Y-34962D01*
X39328Y-34281D01*
X39285Y-34249D01*
X39136Y-34245D01*
X39114Y-34249D01*
X39071Y-34281D01*
X39200Y-34409D01*
X39328Y-34281D01*
X39328Y-34962D01*
X39327Y-34962D01*
X39200Y-34834D01*
X39072Y-34962D01*
X38987Y-34962D01*
X38987Y-34622D01*
X38859Y-34493D01*
X38827Y-34536D01*
X38823Y-34685D01*
X38827Y-34707D01*
X38859Y-34750D01*
X38987Y-34622D01*
X38987Y-34962D01*
X38576Y-34962D01*
X38576Y-34558D01*
X38572Y-34536D01*
X38540Y-34493D01*
X38412Y-34622D01*
X38540Y-34750D01*
X38572Y-34707D01*
X38576Y-34558D01*
X38576Y-34962D01*
X38338Y-34962D01*
X38325Y-34964D01*
X38328Y-34962D01*
X38328Y-34281D01*
X38285Y-34249D01*
X38136Y-34245D01*
X38114Y-34249D01*
X38071Y-34281D01*
X38200Y-34409D01*
X38328Y-34281D01*
X38328Y-34962D01*
X38200Y-34834D01*
X38071Y-34962D01*
X38114Y-34994D01*
X38243Y-34998D01*
X38231Y-35005D01*
X38093Y-35143D01*
X38061Y-35192D01*
X38050Y-35245D01*
X37987Y-35271D01*
X37987Y-34622D01*
X37859Y-34493D01*
X37827Y-34536D01*
X37823Y-34685D01*
X37827Y-34707D01*
X37859Y-34750D01*
X37987Y-34622D01*
X37987Y-35271D01*
X37970Y-35278D01*
X37856Y-35392D01*
X37795Y-35541D01*
X37794Y-35702D01*
X37856Y-35851D01*
X37970Y-35965D01*
X38119Y-36026D01*
X38250Y-36027D01*
X38093Y-36183D01*
X38061Y-36232D01*
X38059Y-36241D01*
X37970Y-36278D01*
X37856Y-36392D01*
X37795Y-36541D01*
X37794Y-36702D01*
X37856Y-36851D01*
X37970Y-36965D01*
X38119Y-37026D01*
X38280Y-37027D01*
X38429Y-36965D01*
X38543Y-36851D01*
X38604Y-36702D01*
X38605Y-36541D01*
X38543Y-36392D01*
X38429Y-36278D01*
X38425Y-36277D01*
X38492Y-36210D01*
X39461Y-36210D01*
X39724Y-36472D01*
X39576Y-36472D01*
X39543Y-36392D01*
X39429Y-36278D01*
X39280Y-36217D01*
X39119Y-36216D01*
X38970Y-36278D01*
X38856Y-36392D01*
X38795Y-36541D01*
X38794Y-36702D01*
X38856Y-36851D01*
X38955Y-36950D01*
X38500Y-36950D01*
X38499Y-36950D01*
X38488Y-36952D01*
X38442Y-36961D01*
X38393Y-36993D01*
X38393Y-36993D01*
X38170Y-37217D01*
X38119Y-37216D01*
X37970Y-37278D01*
X37856Y-37392D01*
X37795Y-37541D01*
X37794Y-37702D01*
X37856Y-37851D01*
X37970Y-37965D01*
X38119Y-38026D01*
X38280Y-38027D01*
X38281Y-38026D01*
X38093Y-38213D01*
X38081Y-38232D01*
X37970Y-38278D01*
X37856Y-38392D01*
X37795Y-38541D01*
X37794Y-38702D01*
X37856Y-38851D01*
X37970Y-38965D01*
X38119Y-39026D01*
X38280Y-39027D01*
X38429Y-38965D01*
X38543Y-38851D01*
X38604Y-38702D01*
X38605Y-38541D01*
X38543Y-38392D01*
X38441Y-38290D01*
X38497Y-38235D01*
X38838Y-38235D01*
X38811Y-38262D01*
X38795Y-38301D01*
X38794Y-38342D01*
X38794Y-38942D01*
X38810Y-38981D01*
X38840Y-39011D01*
X38879Y-39027D01*
X38920Y-39027D01*
X39520Y-39027D01*
X39559Y-39011D01*
X39588Y-38981D01*
X39604Y-38943D01*
X39605Y-38901D01*
X39605Y-38772D01*
X40339Y-38772D01*
X42060Y-40492D01*
X42060Y-41639D01*
X42059Y-41639D01*
X41976Y-41605D01*
X41887Y-41604D01*
X41804Y-41639D01*
X41741Y-41702D01*
X41707Y-41785D01*
X41706Y-41874D01*
X41741Y-41957D01*
X41804Y-42020D01*
X41806Y-42021D01*
X41806Y-42945D01*
X41765Y-42905D01*
X41682Y-42871D01*
X41593Y-42870D01*
X41510Y-42905D01*
X41460Y-42954D01*
X41413Y-42907D01*
X41330Y-42873D01*
X41241Y-42872D01*
X41158Y-42907D01*
X41095Y-42970D01*
X41061Y-43053D01*
X41060Y-43142D01*
X41076Y-43180D01*
X41072Y-43179D01*
X40983Y-43178D01*
X40900Y-43213D01*
X40854Y-43258D01*
X40819Y-43223D01*
X40736Y-43189D01*
X40647Y-43188D01*
X40605Y-43206D01*
X40607Y-43199D01*
X40608Y-43110D01*
X40573Y-43027D01*
X40510Y-42964D01*
X40427Y-42930D01*
X40338Y-42929D01*
X40255Y-42964D01*
X40192Y-43027D01*
X40158Y-43110D01*
X40157Y-43199D01*
X40171Y-43231D01*
X40136Y-43217D01*
X40047Y-43216D01*
X39964Y-43251D01*
X39901Y-43314D01*
X39867Y-43397D01*
X39866Y-43486D01*
X39901Y-43569D01*
X39964Y-43632D01*
X40047Y-43666D01*
X40136Y-43667D01*
X40634Y-44165D01*
X40634Y-49168D01*
X40646Y-49226D01*
X40678Y-49274D01*
X41406Y-50001D01*
X41406Y-50264D01*
X41365Y-50305D01*
X41331Y-50388D01*
X41330Y-50477D01*
X41365Y-50560D01*
X41389Y-50584D01*
X41326Y-50647D01*
X41292Y-50730D01*
X41291Y-50819D01*
X41326Y-50902D01*
X41364Y-50941D01*
X41332Y-50973D01*
X41298Y-51056D01*
X41297Y-51145D01*
X41332Y-51228D01*
X41395Y-51291D01*
X41478Y-51325D01*
X41567Y-51326D01*
X41650Y-51291D01*
X41713Y-51228D01*
X41737Y-51170D01*
X42084Y-50824D01*
X42116Y-50775D01*
X42116Y-50775D01*
X42128Y-50717D01*
X42128Y-50511D01*
X42128Y-49880D01*
X42127Y-49879D01*
X42765Y-50516D01*
X42764Y-50582D01*
X42799Y-50665D01*
X42862Y-50728D01*
X42888Y-50739D01*
X42860Y-50807D01*
X42859Y-50896D01*
X42894Y-50979D01*
X42957Y-51042D01*
X43040Y-51076D01*
X43129Y-51077D01*
X43212Y-51042D01*
X43253Y-51002D01*
X43415Y-51002D01*
X43472Y-50990D01*
X43472Y-50990D01*
X43521Y-50958D01*
X43609Y-50870D01*
X43641Y-50821D01*
X43641Y-50821D01*
X43653Y-50764D01*
X43653Y-49137D01*
X43641Y-49079D01*
X43641Y-49079D01*
X43609Y-49030D01*
X43609Y-49030D01*
X43036Y-48457D01*
X42987Y-48425D01*
X42978Y-48423D01*
X42928Y-48373D01*
X42845Y-48339D01*
X42756Y-48338D01*
X42673Y-48373D01*
X42610Y-48436D01*
X42576Y-48519D01*
X42575Y-48608D01*
X42610Y-48691D01*
X42673Y-48754D01*
X42756Y-48788D01*
X42845Y-48789D01*
X42914Y-48760D01*
X43353Y-49199D01*
X43353Y-50701D01*
X43352Y-50702D01*
X43253Y-50702D01*
X43212Y-50661D01*
X43186Y-50650D01*
X43214Y-50582D01*
X43215Y-50493D01*
X43186Y-50423D01*
X43216Y-50410D01*
X43279Y-50347D01*
X43313Y-50264D01*
X43314Y-50175D01*
X43279Y-50092D01*
X43250Y-50063D01*
X43290Y-50023D01*
X43324Y-49940D01*
X43325Y-49851D01*
X43290Y-49768D01*
X43227Y-49705D01*
X43144Y-49671D01*
X43055Y-49670D01*
X42972Y-49705D01*
X42931Y-49746D01*
X42899Y-49746D01*
X42180Y-49027D01*
X42180Y-49027D01*
X41972Y-48818D01*
X42035Y-48792D01*
X42098Y-48729D01*
X42132Y-48646D01*
X42133Y-48589D01*
X42658Y-48064D01*
X49076Y-48064D01*
X50548Y-48064D01*
X53547Y-51062D01*
X53547Y-56688D01*
X53470Y-56720D01*
X53407Y-56783D01*
X53373Y-56866D01*
X53372Y-56955D01*
X53407Y-57038D01*
X53470Y-57101D01*
X53553Y-57135D01*
X53642Y-57136D01*
X53717Y-57105D01*
X53717Y-57621D01*
X53702Y-57621D01*
X53663Y-57637D01*
X53634Y-57667D01*
X53633Y-57668D01*
X53627Y-57663D01*
X53600Y-57651D01*
X53540Y-57651D01*
X53521Y-57670D01*
X53521Y-57675D01*
X53393Y-57675D01*
X53393Y-57670D01*
X53374Y-57651D01*
X53314Y-57651D01*
X53304Y-57655D01*
X53304Y-57546D01*
X53304Y-57546D01*
X53304Y-57546D01*
X53289Y-57474D01*
X53287Y-57460D01*
X53287Y-57460D01*
X53238Y-57387D01*
X53238Y-57387D01*
X53103Y-57251D01*
X53030Y-57203D01*
X53015Y-57200D01*
X52944Y-57185D01*
X52943Y-57186D01*
X52689Y-57186D01*
X52689Y-57185D01*
X52688Y-57186D01*
X52644Y-57185D01*
X52561Y-57220D01*
X52529Y-57251D01*
X52529Y-57251D01*
X52529Y-57251D01*
X52529Y-57251D01*
X52498Y-57283D01*
X52482Y-57321D01*
X52478Y-57327D01*
X52476Y-57334D01*
X52476Y-57334D01*
X52464Y-57366D01*
X52464Y-57400D01*
X52461Y-57413D01*
X52461Y-57413D01*
X52461Y-57636D01*
X52425Y-57621D01*
X52383Y-57621D01*
X52153Y-57621D01*
X52153Y-55078D01*
X52153Y-54980D01*
X52142Y-54922D01*
X52142Y-54922D01*
X52110Y-54874D01*
X52110Y-54874D01*
X52011Y-54775D01*
X52000Y-54768D01*
X51988Y-54756D01*
X51695Y-54561D01*
X52439Y-54561D01*
X52440Y-54561D01*
X52440Y-54561D01*
X52511Y-54546D01*
X52526Y-54543D01*
X52526Y-54543D01*
X52599Y-54495D01*
X53025Y-54069D01*
X53034Y-54063D01*
X53040Y-54054D01*
X53065Y-54028D01*
X53079Y-53995D01*
X53082Y-53990D01*
X53084Y-53984D01*
X53099Y-53945D01*
X53099Y-53904D01*
X53100Y-53904D01*
X53100Y-53901D01*
X53099Y-53900D01*
X53100Y-53856D01*
X53082Y-53814D01*
X53082Y-53814D01*
X53065Y-53773D01*
X53034Y-53741D01*
X53034Y-53741D01*
X53034Y-53741D01*
X53002Y-53710D01*
X52961Y-53693D01*
X52961Y-53693D01*
X52961Y-53693D01*
X52961Y-53693D01*
X52919Y-53676D01*
X52875Y-53676D01*
X52874Y-53676D01*
X52830Y-53675D01*
X52747Y-53710D01*
X52715Y-53741D01*
X52715Y-53741D01*
X52715Y-53741D01*
X52715Y-53741D01*
X52684Y-53773D01*
X52684Y-53773D01*
X52346Y-54111D01*
X50005Y-54111D01*
X50005Y-53879D01*
X50005Y-53279D01*
X49989Y-53240D01*
X49959Y-53211D01*
X49920Y-53195D01*
X49879Y-53194D01*
X49279Y-53194D01*
X49240Y-53210D01*
X49211Y-53240D01*
X49195Y-53279D01*
X49194Y-53320D01*
X49194Y-53920D01*
X49210Y-53959D01*
X49240Y-53988D01*
X49279Y-54004D01*
X49320Y-54005D01*
X49920Y-54005D01*
X49959Y-53989D01*
X49988Y-53959D01*
X50004Y-53920D01*
X50005Y-53879D01*
X50005Y-54111D01*
X47755Y-54111D01*
X47800Y-54081D01*
X49056Y-52825D01*
X49254Y-52825D01*
X49256Y-52829D01*
X49370Y-52943D01*
X49519Y-53004D01*
X49680Y-53005D01*
X49829Y-52943D01*
X49943Y-52829D01*
X49945Y-52825D01*
X50750Y-52825D01*
X51116Y-52825D01*
X52651Y-52825D01*
X52675Y-52834D01*
X52719Y-52834D01*
X52720Y-52835D01*
X52720Y-52834D01*
X52764Y-52835D01*
X52806Y-52817D01*
X52847Y-52800D01*
X52879Y-52769D01*
X52879Y-52769D01*
X52879Y-52769D01*
X52910Y-52737D01*
X52927Y-52696D01*
X52927Y-52696D01*
X52927Y-52696D01*
X52944Y-52654D01*
X52944Y-52610D01*
X52945Y-52610D01*
X52944Y-52609D01*
X52945Y-52565D01*
X52927Y-52523D01*
X52910Y-52482D01*
X52879Y-52450D01*
X52879Y-52450D01*
X52878Y-52450D01*
X52847Y-52419D01*
X52819Y-52407D01*
X52796Y-52392D01*
X52781Y-52389D01*
X52769Y-52386D01*
X52769Y-52386D01*
X52764Y-52385D01*
X52760Y-52385D01*
X52760Y-52385D01*
X52710Y-52374D01*
X52709Y-52375D01*
X52405Y-52375D01*
X52405Y-51879D01*
X52405Y-51279D01*
X52389Y-51240D01*
X52376Y-51228D01*
X52376Y-50536D01*
X52372Y-50514D01*
X52340Y-50471D01*
X52212Y-50600D01*
X52340Y-50728D01*
X52372Y-50685D01*
X52376Y-50536D01*
X52376Y-51228D01*
X52359Y-51211D01*
X52320Y-51195D01*
X52279Y-51194D01*
X52128Y-51194D01*
X52128Y-50940D01*
X52128Y-50259D01*
X52085Y-50227D01*
X51936Y-50223D01*
X51914Y-50227D01*
X51871Y-50259D01*
X52000Y-50387D01*
X52128Y-50259D01*
X52128Y-50940D01*
X52000Y-50812D01*
X51871Y-50940D01*
X51914Y-50972D01*
X52063Y-50976D01*
X52085Y-50972D01*
X52128Y-50940D01*
X52128Y-51194D01*
X51787Y-51194D01*
X51787Y-50600D01*
X51659Y-50471D01*
X51627Y-50514D01*
X51623Y-50663D01*
X51627Y-50685D01*
X51659Y-50728D01*
X51787Y-50600D01*
X51787Y-51194D01*
X51679Y-51194D01*
X51640Y-51210D01*
X51611Y-51240D01*
X51595Y-51279D01*
X51594Y-51320D01*
X51594Y-51920D01*
X51610Y-51959D01*
X51640Y-51988D01*
X51679Y-52004D01*
X51720Y-52005D01*
X52320Y-52005D01*
X52359Y-51989D01*
X52388Y-51959D01*
X52404Y-51920D01*
X52405Y-51879D01*
X52405Y-52375D01*
X51116Y-52375D01*
X51100Y-52358D01*
X51100Y-52008D01*
X51105Y-52002D01*
X51139Y-51919D01*
X51140Y-51830D01*
X51105Y-51747D01*
X51042Y-51684D01*
X50959Y-51650D01*
X50870Y-51649D01*
X50787Y-51684D01*
X50724Y-51747D01*
X50690Y-51830D01*
X50689Y-51919D01*
X50724Y-52002D01*
X50730Y-52008D01*
X50730Y-52358D01*
X50713Y-52375D01*
X50005Y-52375D01*
X50005Y-50519D01*
X50005Y-49519D01*
X50005Y-48519D01*
X49943Y-48370D01*
X49829Y-48256D01*
X49680Y-48195D01*
X49519Y-48194D01*
X49370Y-48256D01*
X49256Y-48370D01*
X49195Y-48519D01*
X49194Y-48680D01*
X49256Y-48829D01*
X49370Y-48943D01*
X49519Y-49004D01*
X49680Y-49005D01*
X49829Y-48943D01*
X49943Y-48829D01*
X50004Y-48680D01*
X50005Y-48519D01*
X50005Y-49519D01*
X49943Y-49370D01*
X49829Y-49256D01*
X49680Y-49195D01*
X49519Y-49194D01*
X49370Y-49256D01*
X49256Y-49370D01*
X49195Y-49519D01*
X49194Y-49680D01*
X49256Y-49829D01*
X49370Y-49943D01*
X49519Y-50004D01*
X49680Y-50005D01*
X49829Y-49943D01*
X49943Y-49829D01*
X50004Y-49680D01*
X50005Y-49519D01*
X50005Y-50519D01*
X49943Y-50370D01*
X49829Y-50256D01*
X49680Y-50195D01*
X49519Y-50194D01*
X49370Y-50256D01*
X49256Y-50370D01*
X49195Y-50519D01*
X49194Y-50680D01*
X49256Y-50829D01*
X49370Y-50943D01*
X49519Y-51004D01*
X49680Y-51005D01*
X49829Y-50943D01*
X49943Y-50829D01*
X50004Y-50680D01*
X50005Y-50519D01*
X50005Y-52375D01*
X49976Y-52375D01*
X49976Y-51536D01*
X49972Y-51514D01*
X49940Y-51471D01*
X49812Y-51600D01*
X49940Y-51728D01*
X49972Y-51685D01*
X49976Y-51536D01*
X49976Y-52375D01*
X49945Y-52375D01*
X49943Y-52370D01*
X49829Y-52256D01*
X49728Y-52214D01*
X49728Y-51940D01*
X49728Y-51259D01*
X49685Y-51227D01*
X49536Y-51223D01*
X49514Y-51227D01*
X49471Y-51259D01*
X49600Y-51387D01*
X49728Y-51259D01*
X49728Y-51940D01*
X49600Y-51812D01*
X49471Y-51940D01*
X49514Y-51972D01*
X49663Y-51976D01*
X49685Y-51972D01*
X49728Y-51940D01*
X49728Y-52214D01*
X49680Y-52195D01*
X49519Y-52194D01*
X49387Y-52249D01*
X49387Y-51600D01*
X49259Y-51471D01*
X49227Y-51514D01*
X49223Y-51663D01*
X49227Y-51685D01*
X49259Y-51728D01*
X49387Y-51600D01*
X49387Y-52249D01*
X49370Y-52256D01*
X49256Y-52370D01*
X49254Y-52375D01*
X48963Y-52375D01*
X48876Y-52392D01*
X48803Y-52440D01*
X48803Y-52440D01*
X47547Y-53697D01*
X46285Y-53697D01*
X46285Y-52373D01*
X46285Y-50373D01*
X46226Y-50232D01*
X46118Y-50123D01*
X45976Y-50065D01*
X45823Y-50064D01*
X45682Y-50123D01*
X45573Y-50231D01*
X45515Y-50373D01*
X45514Y-50526D01*
X45573Y-50667D01*
X45681Y-50776D01*
X45823Y-50834D01*
X45976Y-50835D01*
X46117Y-50776D01*
X46226Y-50668D01*
X46284Y-50526D01*
X46285Y-50373D01*
X46285Y-52373D01*
X46226Y-52232D01*
X46118Y-52123D01*
X45976Y-52065D01*
X45823Y-52064D01*
X45682Y-52123D01*
X45573Y-52231D01*
X45515Y-52373D01*
X45514Y-52526D01*
X45573Y-52667D01*
X45681Y-52776D01*
X45823Y-52834D01*
X45976Y-52835D01*
X46117Y-52776D01*
X46226Y-52668D01*
X46284Y-52526D01*
X46285Y-52373D01*
X46285Y-53697D01*
X46241Y-53697D01*
X46080Y-53697D01*
X44610Y-53697D01*
X44478Y-53697D01*
X44478Y-50844D01*
X44443Y-50761D01*
X44394Y-50711D01*
X44394Y-48807D01*
X44393Y-48806D01*
X44394Y-48806D01*
X44391Y-48795D01*
X44382Y-48749D01*
X44382Y-48749D01*
X44350Y-48700D01*
X44350Y-48700D01*
X44225Y-48576D01*
X44226Y-48519D01*
X44191Y-48436D01*
X44128Y-48373D01*
X44045Y-48339D01*
X43956Y-48338D01*
X43873Y-48373D01*
X43810Y-48436D01*
X43776Y-48519D01*
X43775Y-48608D01*
X43810Y-48691D01*
X43873Y-48754D01*
X43956Y-48788D01*
X44013Y-48789D01*
X44094Y-48869D01*
X44094Y-50729D01*
X44062Y-50761D01*
X44028Y-50844D01*
X44027Y-50933D01*
X44062Y-51016D01*
X44125Y-51079D01*
X44208Y-51113D01*
X44297Y-51114D01*
X44380Y-51079D01*
X44443Y-51016D01*
X44477Y-50933D01*
X44478Y-50844D01*
X44478Y-53697D01*
X43595Y-53697D01*
X43457Y-53697D01*
X43457Y-53122D01*
X43462Y-53116D01*
X43496Y-53033D01*
X43497Y-52944D01*
X43462Y-52861D01*
X43399Y-52798D01*
X43316Y-52764D01*
X43227Y-52763D01*
X43144Y-52798D01*
X43081Y-52861D01*
X43047Y-52944D01*
X43046Y-53033D01*
X43081Y-53116D01*
X43087Y-53122D01*
X43087Y-53697D01*
X40137Y-53697D01*
X40137Y-49897D01*
X40102Y-49814D01*
X40039Y-49751D01*
X39956Y-49717D01*
X39867Y-49716D01*
X39784Y-49751D01*
X39721Y-49814D01*
X39687Y-49897D01*
X39686Y-49986D01*
X39721Y-50069D01*
X39762Y-50110D01*
X39762Y-51879D01*
X39701Y-51904D01*
X39638Y-51967D01*
X39604Y-52050D01*
X39603Y-52139D01*
X39638Y-52222D01*
X39701Y-52285D01*
X39784Y-52319D01*
X39873Y-52320D01*
X39956Y-52285D01*
X40019Y-52222D01*
X40053Y-52139D01*
X40054Y-52052D01*
X40054Y-52052D01*
X40062Y-52012D01*
X40062Y-50110D01*
X40102Y-50069D01*
X40136Y-49986D01*
X40137Y-49897D01*
X40137Y-53697D01*
X39898Y-53697D01*
X38660Y-52458D01*
X38660Y-51977D01*
X38660Y-50604D01*
X38745Y-50519D01*
X39516Y-50519D01*
X39516Y-50518D01*
X39560Y-50519D01*
X39602Y-50501D01*
X39643Y-50484D01*
X39675Y-50453D01*
X39675Y-50453D01*
X39675Y-50453D01*
X39706Y-50421D01*
X39723Y-50380D01*
X39723Y-50380D01*
X39723Y-50380D01*
X39740Y-50338D01*
X39740Y-50294D01*
X39741Y-50294D01*
X39740Y-50293D01*
X39741Y-50249D01*
X39723Y-50207D01*
X39706Y-50166D01*
X39675Y-50134D01*
X39675Y-50134D01*
X39675Y-50134D01*
X39643Y-50103D01*
X39605Y-50087D01*
X39605Y-45619D01*
X39605Y-44619D01*
X39605Y-43619D01*
X39576Y-43551D01*
X39576Y-42636D01*
X39572Y-42614D01*
X39540Y-42571D01*
X39412Y-42700D01*
X39540Y-42828D01*
X39572Y-42785D01*
X39576Y-42636D01*
X39576Y-43551D01*
X39543Y-43470D01*
X39429Y-43356D01*
X39328Y-43314D01*
X39328Y-43040D01*
X39328Y-42359D01*
X39285Y-42327D01*
X39136Y-42323D01*
X39114Y-42327D01*
X39071Y-42359D01*
X39200Y-42487D01*
X39328Y-42359D01*
X39328Y-43040D01*
X39200Y-42912D01*
X39071Y-43040D01*
X39114Y-43072D01*
X39263Y-43076D01*
X39285Y-43072D01*
X39328Y-43040D01*
X39328Y-43314D01*
X39280Y-43295D01*
X39119Y-43294D01*
X38987Y-43349D01*
X38987Y-42700D01*
X38859Y-42571D01*
X38827Y-42614D01*
X38823Y-42763D01*
X38827Y-42785D01*
X38859Y-42828D01*
X38987Y-42700D01*
X38987Y-43349D01*
X38970Y-43356D01*
X38856Y-43470D01*
X38795Y-43619D01*
X38794Y-43780D01*
X38856Y-43929D01*
X38970Y-44043D01*
X39119Y-44104D01*
X39280Y-44105D01*
X39429Y-44043D01*
X39543Y-43929D01*
X39604Y-43780D01*
X39605Y-43619D01*
X39605Y-44619D01*
X39543Y-44470D01*
X39429Y-44356D01*
X39280Y-44295D01*
X39119Y-44294D01*
X38970Y-44356D01*
X38856Y-44470D01*
X38795Y-44619D01*
X38794Y-44780D01*
X38856Y-44929D01*
X38970Y-45043D01*
X39119Y-45104D01*
X39280Y-45105D01*
X39429Y-45043D01*
X39543Y-44929D01*
X39604Y-44780D01*
X39605Y-44619D01*
X39605Y-45619D01*
X39543Y-45470D01*
X39429Y-45356D01*
X39280Y-45295D01*
X39119Y-45294D01*
X38970Y-45356D01*
X38856Y-45470D01*
X38795Y-45619D01*
X38794Y-45780D01*
X38856Y-45929D01*
X38970Y-46043D01*
X39119Y-46104D01*
X39280Y-46105D01*
X39429Y-46043D01*
X39543Y-45929D01*
X39604Y-45780D01*
X39605Y-45619D01*
X39605Y-50087D01*
X39605Y-50087D01*
X39605Y-46979D01*
X39605Y-46379D01*
X39589Y-46340D01*
X39559Y-46311D01*
X39520Y-46295D01*
X39479Y-46294D01*
X38879Y-46294D01*
X38840Y-46310D01*
X38811Y-46340D01*
X38795Y-46379D01*
X38794Y-46420D01*
X38794Y-47020D01*
X38810Y-47059D01*
X38840Y-47088D01*
X38879Y-47104D01*
X38920Y-47105D01*
X39520Y-47105D01*
X39559Y-47089D01*
X39588Y-47059D01*
X39604Y-47020D01*
X39605Y-46979D01*
X39605Y-50087D01*
X39602Y-50086D01*
X39602Y-50086D01*
X39602Y-50086D01*
X39560Y-50069D01*
X39516Y-50069D01*
X39515Y-50069D01*
X39471Y-50068D01*
X39471Y-50069D01*
X38745Y-50069D01*
X38660Y-49983D01*
X38660Y-49652D01*
X38660Y-49652D01*
X38660Y-49652D01*
X38642Y-49566D01*
X38605Y-49509D01*
X38605Y-46619D01*
X38605Y-45619D01*
X38605Y-44619D01*
X38605Y-43619D01*
X38576Y-43551D01*
X38576Y-42636D01*
X38572Y-42614D01*
X38540Y-42571D01*
X38412Y-42700D01*
X38540Y-42828D01*
X38572Y-42785D01*
X38576Y-42636D01*
X38576Y-43551D01*
X38543Y-43470D01*
X38429Y-43356D01*
X38328Y-43314D01*
X38328Y-43040D01*
X38328Y-42359D01*
X38285Y-42327D01*
X38136Y-42323D01*
X38114Y-42327D01*
X38071Y-42359D01*
X38200Y-42487D01*
X38328Y-42359D01*
X38328Y-43040D01*
X38200Y-42912D01*
X38071Y-43040D01*
X38114Y-43072D01*
X38263Y-43076D01*
X38285Y-43072D01*
X38328Y-43040D01*
X38328Y-43314D01*
X38280Y-43295D01*
X38119Y-43294D01*
X37987Y-43349D01*
X37987Y-42700D01*
X37859Y-42571D01*
X37827Y-42614D01*
X37823Y-42763D01*
X37827Y-42785D01*
X37859Y-42828D01*
X37987Y-42700D01*
X37987Y-43349D01*
X37970Y-43356D01*
X37856Y-43470D01*
X37795Y-43619D01*
X37794Y-43780D01*
X37856Y-43929D01*
X37970Y-44043D01*
X38119Y-44104D01*
X38280Y-44105D01*
X38429Y-44043D01*
X38543Y-43929D01*
X38604Y-43780D01*
X38605Y-43619D01*
X38605Y-44619D01*
X38543Y-44470D01*
X38429Y-44356D01*
X38280Y-44295D01*
X38119Y-44294D01*
X37970Y-44356D01*
X37856Y-44470D01*
X37795Y-44619D01*
X37794Y-44780D01*
X37856Y-44929D01*
X37970Y-45043D01*
X38119Y-45104D01*
X38280Y-45105D01*
X38429Y-45043D01*
X38543Y-44929D01*
X38604Y-44780D01*
X38605Y-44619D01*
X38605Y-45619D01*
X38543Y-45470D01*
X38429Y-45356D01*
X38280Y-45295D01*
X38119Y-45294D01*
X37970Y-45356D01*
X37856Y-45470D01*
X37795Y-45619D01*
X37794Y-45780D01*
X37856Y-45929D01*
X37970Y-46043D01*
X38119Y-46104D01*
X38280Y-46105D01*
X38429Y-46043D01*
X38543Y-45929D01*
X38604Y-45780D01*
X38605Y-45619D01*
X38605Y-46619D01*
X38543Y-46470D01*
X38429Y-46356D01*
X38280Y-46295D01*
X38119Y-46294D01*
X37970Y-46356D01*
X37856Y-46470D01*
X37795Y-46619D01*
X37794Y-46780D01*
X37856Y-46929D01*
X37970Y-47043D01*
X38119Y-47104D01*
X38280Y-47105D01*
X38429Y-47043D01*
X38543Y-46929D01*
X38604Y-46780D01*
X38605Y-46619D01*
X38605Y-49509D01*
X38594Y-49493D01*
X38594Y-49493D01*
X37478Y-48377D01*
X37478Y-47238D01*
X37478Y-46096D01*
X37478Y-41972D01*
X37525Y-41925D01*
X37854Y-41925D01*
X37856Y-41929D01*
X37970Y-42043D01*
X38119Y-42104D01*
X38280Y-42105D01*
X38429Y-42043D01*
X38543Y-41929D01*
X38545Y-41925D01*
X38854Y-41925D01*
X38856Y-41929D01*
X38970Y-42043D01*
X39119Y-42104D01*
X39280Y-42105D01*
X39429Y-42043D01*
X39543Y-41929D01*
X39604Y-41780D01*
X39605Y-41619D01*
X39543Y-41470D01*
X39429Y-41356D01*
X39280Y-41295D01*
X39119Y-41294D01*
X38970Y-41356D01*
X38856Y-41470D01*
X38854Y-41475D01*
X38545Y-41475D01*
X38543Y-41470D01*
X38429Y-41356D01*
X38280Y-41295D01*
X38119Y-41294D01*
X37970Y-41356D01*
X37856Y-41470D01*
X37854Y-41475D01*
X37525Y-41475D01*
X37478Y-41427D01*
X37478Y-41390D01*
X37478Y-33912D01*
X37543Y-33847D01*
X37854Y-33847D01*
X37856Y-33851D01*
X37970Y-33965D01*
X38119Y-34026D01*
X38280Y-34027D01*
X38429Y-33965D01*
X38543Y-33851D01*
X38545Y-33847D01*
X38854Y-33847D01*
X38856Y-33851D01*
X38970Y-33965D01*
X39119Y-34026D01*
X39280Y-34027D01*
X39429Y-33965D01*
X39543Y-33851D01*
X39604Y-33702D01*
X39605Y-33541D01*
X39543Y-33392D01*
X39429Y-33278D01*
X39280Y-33217D01*
X39119Y-33216D01*
X38970Y-33278D01*
X38856Y-33392D01*
X38854Y-33397D01*
X38545Y-33397D01*
X38543Y-33392D01*
X38429Y-33278D01*
X38280Y-33217D01*
X38119Y-33216D01*
X37970Y-33278D01*
X37856Y-33392D01*
X37854Y-33397D01*
X37558Y-33397D01*
X37478Y-33316D01*
X37478Y-25872D01*
X37525Y-25825D01*
X37854Y-25825D01*
X37856Y-25829D01*
X37970Y-25943D01*
X38119Y-26004D01*
X38280Y-26005D01*
X38429Y-25943D01*
X38543Y-25829D01*
X38545Y-25825D01*
X38854Y-25825D01*
X38856Y-25829D01*
X38970Y-25943D01*
X39119Y-26004D01*
X39280Y-26005D01*
X39429Y-25943D01*
X39543Y-25829D01*
X39604Y-25680D01*
X39605Y-25519D01*
X39543Y-25370D01*
X39429Y-25256D01*
X39280Y-25195D01*
X39119Y-25194D01*
X38970Y-25256D01*
X38856Y-25370D01*
X38854Y-25375D01*
X38545Y-25375D01*
X38543Y-25370D01*
X38429Y-25256D01*
X38280Y-25195D01*
X38119Y-25194D01*
X37970Y-25256D01*
X37856Y-25370D01*
X37854Y-25375D01*
X37525Y-25375D01*
X37478Y-25327D01*
X37478Y-25140D01*
X40209Y-22409D01*
X40209Y-22409D01*
X40209Y-22409D01*
X40257Y-22336D01*
X40275Y-22250D01*
X40275Y-19743D01*
X40643Y-19375D01*
X41470Y-19375D01*
X45804Y-19375D01*
X46284Y-19375D01*
X46385Y-19475D01*
X46385Y-19650D01*
X46370Y-19656D01*
X46256Y-19770D01*
X46195Y-19919D01*
X46194Y-20080D01*
X46256Y-20229D01*
X46370Y-20343D01*
X46375Y-20345D01*
X46375Y-20654D01*
X46370Y-20656D01*
X46256Y-20770D01*
X46195Y-20919D01*
X46194Y-21080D01*
X46256Y-21229D01*
X46370Y-21343D01*
X46519Y-21404D01*
X46680Y-21405D01*
X46829Y-21343D01*
X46943Y-21229D01*
X47004Y-21080D01*
X47005Y-20919D01*
X46943Y-20770D01*
X46829Y-20656D01*
X46825Y-20654D01*
X46825Y-20345D01*
X46829Y-20343D01*
X46943Y-20229D01*
X47004Y-20080D01*
X47005Y-19919D01*
X46943Y-19770D01*
X46835Y-19662D01*
X46835Y-19382D01*
X46834Y-19381D01*
X46835Y-19381D01*
X46817Y-19295D01*
X46769Y-19222D01*
X46769Y-19222D01*
X46537Y-18990D01*
X46464Y-18942D01*
X46449Y-18939D01*
X46378Y-18924D01*
X46377Y-18925D01*
X46352Y-18925D01*
X45804Y-18925D01*
X41470Y-18925D01*
X40550Y-18925D01*
X40550Y-18924D01*
X40478Y-18939D01*
X40463Y-18942D01*
X40390Y-18990D01*
X40390Y-18990D01*
X39890Y-19490D01*
X39842Y-19563D01*
X39839Y-19578D01*
X39824Y-19650D01*
X39825Y-19650D01*
X39825Y-22156D01*
X38332Y-23649D01*
X38332Y-22529D01*
X38256Y-22148D01*
X38167Y-22007D01*
X37778Y-22396D01*
X37778Y-21618D01*
X37637Y-21529D01*
X37217Y-21453D01*
X36835Y-21529D01*
X36694Y-21618D01*
X37236Y-22160D01*
X37778Y-21618D01*
X37778Y-22396D01*
X37625Y-22549D01*
X38167Y-23091D01*
X38256Y-22950D01*
X38332Y-22529D01*
X38332Y-23649D01*
X37778Y-24202D01*
X37778Y-23480D01*
X37236Y-22938D01*
X36847Y-23327D01*
X36847Y-22549D01*
X36305Y-22007D01*
X36216Y-22148D01*
X36140Y-22569D01*
X36216Y-22950D01*
X36305Y-23091D01*
X36847Y-22549D01*
X36847Y-23327D01*
X36694Y-23480D01*
X36835Y-23569D01*
X37256Y-23645D01*
X37637Y-23569D01*
X37778Y-23480D01*
X37778Y-24202D01*
X37093Y-24887D01*
X37045Y-24960D01*
X37042Y-24975D01*
X37027Y-25047D01*
X37028Y-25047D01*
X37028Y-25329D01*
X37028Y-25420D01*
X37027Y-25421D01*
X37028Y-25421D01*
X37028Y-25778D01*
X37027Y-25779D01*
X37028Y-25779D01*
X37028Y-33355D01*
X37028Y-33409D01*
X37027Y-33410D01*
X37028Y-33410D01*
X37028Y-33818D01*
X37027Y-33819D01*
X37028Y-33819D01*
X37028Y-41390D01*
X37028Y-41520D01*
X37027Y-41521D01*
X37028Y-41521D01*
X37028Y-41878D01*
X37027Y-41879D01*
X37028Y-41879D01*
X37028Y-46096D01*
X37028Y-47238D01*
X37028Y-48379D01*
X35745Y-47096D01*
X35745Y-46395D01*
X35745Y-45255D01*
X35745Y-19493D01*
X37193Y-18045D01*
X54001Y-18045D01*
X54075Y-18118D01*
X54075Y-25932D01*
X53995Y-25985D01*
X53902Y-26124D01*
X53870Y-26289D01*
X53870Y-26560D01*
X53902Y-26725D01*
X53995Y-26864D01*
X54135Y-26958D01*
X54300Y-26990D01*
X54464Y-26958D01*
X54604Y-26864D01*
X54697Y-26725D01*
X54730Y-26560D01*
X54730Y-26289D01*
X54697Y-26124D01*
X54604Y-25985D01*
X54525Y-25932D01*
X54525Y-18118D01*
X54598Y-18045D01*
X58630Y-18045D01*
X62381Y-18045D01*
X66341Y-22004D01*
X66341Y-23066D01*
X66340Y-23110D01*
X66358Y-23152D01*
X66375Y-23193D01*
X66406Y-23225D01*
X66406Y-23225D01*
X66406Y-23225D01*
X66413Y-23231D01*
X58343Y-23231D01*
X58343Y-23231D01*
X58257Y-23248D01*
X58184Y-23297D01*
X58184Y-23297D01*
X57140Y-24340D01*
X57092Y-24413D01*
X57089Y-24428D01*
X57074Y-24500D01*
X57075Y-24500D01*
X57075Y-25932D01*
X56995Y-25985D01*
X56902Y-26124D01*
X56870Y-26289D01*
X56870Y-26560D01*
X56902Y-26725D01*
X56995Y-26864D01*
X57135Y-26958D01*
X57300Y-26990D01*
X57464Y-26958D01*
X57604Y-26864D01*
X57697Y-26725D01*
X57730Y-26560D01*
X57730Y-26289D01*
X57697Y-26124D01*
X57604Y-25985D01*
X57525Y-25932D01*
X57525Y-24593D01*
X58436Y-23681D01*
X68186Y-23681D01*
X68186Y-23681D01*
X68186Y-23681D01*
X68258Y-23667D01*
X68272Y-23664D01*
X68272Y-23664D01*
X68345Y-23615D01*
X68462Y-23499D01*
X68462Y-23499D01*
X68462Y-23499D01*
X68510Y-23426D01*
X68528Y-23340D01*
X68527Y-23340D01*
X68528Y-23340D01*
X68528Y-23061D01*
X68527Y-23060D01*
X68528Y-23016D01*
X68510Y-22974D01*
X68493Y-22933D01*
X68462Y-22901D01*
X68462Y-22901D01*
X68462Y-22901D01*
X68430Y-22870D01*
X68389Y-22853D01*
X68389Y-22853D01*
X68389Y-22853D01*
X68347Y-22836D01*
X68303Y-22836D01*
X68302Y-22836D01*
X68258Y-22835D01*
X68175Y-22870D01*
X68143Y-22901D01*
X68143Y-22901D01*
X68143Y-22901D01*
X68112Y-22933D01*
X68095Y-22974D01*
X68095Y-22974D01*
X68095Y-22974D01*
X68078Y-23016D01*
X68078Y-23060D01*
X68078Y-23061D01*
X68078Y-23061D01*
X68077Y-23105D01*
X68078Y-23105D01*
X68078Y-23231D01*
X66718Y-23231D01*
X66725Y-23225D01*
X66725Y-23225D01*
X66725Y-23225D01*
X66756Y-23193D01*
X66773Y-23152D01*
X66773Y-23152D01*
X66773Y-23152D01*
X66790Y-23110D01*
X66790Y-23066D01*
X66791Y-23066D01*
X66791Y-23065D01*
X66791Y-23021D01*
X66791Y-23021D01*
X66791Y-21911D01*
X66791Y-21911D01*
X66791Y-21911D01*
X66776Y-21839D01*
X66773Y-21824D01*
X66773Y-21824D01*
X66725Y-21751D01*
X66725Y-21751D01*
X62634Y-17660D01*
X62561Y-17612D01*
X62546Y-17609D01*
X62475Y-17594D01*
X62474Y-17595D01*
X58630Y-17595D01*
X54505Y-17595D01*
X54505Y-17594D01*
X54504Y-17595D01*
X54095Y-17595D01*
X54095Y-17594D01*
X54094Y-17595D01*
X54060Y-17595D01*
X37100Y-17595D01*
X37099Y-17595D01*
X37013Y-17612D01*
X36940Y-17660D01*
X36940Y-17660D01*
X35360Y-19240D01*
X35312Y-19313D01*
X35309Y-19328D01*
X35294Y-19400D01*
X35295Y-19400D01*
X35295Y-45255D01*
X35295Y-46395D01*
X35295Y-47189D01*
X35294Y-47190D01*
X35309Y-47261D01*
X35312Y-47276D01*
X35360Y-47349D01*
X37890Y-49878D01*
X37890Y-51926D01*
X37890Y-52683D01*
X37889Y-52684D01*
X37904Y-52755D01*
X37907Y-52770D01*
X37955Y-52843D01*
X39607Y-54495D01*
X39607Y-54495D01*
X39680Y-54543D01*
X39680Y-54543D01*
X39767Y-54561D01*
X43651Y-54561D01*
X44320Y-54561D01*
X50738Y-54561D01*
X50444Y-54757D01*
X50433Y-54767D01*
X50421Y-54775D01*
X50413Y-54788D01*
X50402Y-54798D01*
X50397Y-54812D01*
X50388Y-54824D01*
X50386Y-54838D01*
X50380Y-54852D01*
X50380Y-54867D01*
X50377Y-54881D01*
X50377Y-57775D01*
X47527Y-57775D01*
X47527Y-54881D01*
X47525Y-54867D01*
X47525Y-54775D01*
X47482Y-54775D01*
X47435Y-54743D01*
X47377Y-54731D01*
X40192Y-54731D01*
X40135Y-54743D01*
X40088Y-54775D01*
X40075Y-54775D01*
X40075Y-54793D01*
X40054Y-54824D01*
X40042Y-54881D01*
X40042Y-57975D01*
X38332Y-57975D01*
X38332Y-56230D01*
X38256Y-55849D01*
X38167Y-55708D01*
X37778Y-56097D01*
X37778Y-55319D01*
X37637Y-55230D01*
X37217Y-55154D01*
X36835Y-55230D01*
X36694Y-55319D01*
X37236Y-55861D01*
X37778Y-55319D01*
X37778Y-56097D01*
X37625Y-56250D01*
X38167Y-56792D01*
X38256Y-56651D01*
X38332Y-56230D01*
X38332Y-57975D01*
X37778Y-57975D01*
X37778Y-57181D01*
X37236Y-56639D01*
X36847Y-57028D01*
X36847Y-56250D01*
X36581Y-55983D01*
X36581Y-51616D01*
X36577Y-51597D01*
X36571Y-51589D01*
X36571Y-49650D01*
X36567Y-49629D01*
X36534Y-49586D01*
X36405Y-49715D01*
X36534Y-49845D01*
X36567Y-49801D01*
X36571Y-49650D01*
X36571Y-51589D01*
X36544Y-51551D01*
X36412Y-51684D01*
X36544Y-51816D01*
X36577Y-51771D01*
X36581Y-51616D01*
X36581Y-55983D01*
X36321Y-55724D01*
X36321Y-52039D01*
X36321Y-51329D01*
X36318Y-51327D01*
X36318Y-50061D01*
X36318Y-49370D01*
X36275Y-49337D01*
X36124Y-49333D01*
X36103Y-49337D01*
X36059Y-49370D01*
X36189Y-49499D01*
X36318Y-49370D01*
X36318Y-50061D01*
X36189Y-49931D01*
X36059Y-50061D01*
X36103Y-50093D01*
X36254Y-50097D01*
X36275Y-50093D01*
X36318Y-50061D01*
X36318Y-51327D01*
X36276Y-51296D01*
X36121Y-51292D01*
X36102Y-51296D01*
X36057Y-51329D01*
X36189Y-51461D01*
X36321Y-51329D01*
X36321Y-52039D01*
X36189Y-51906D01*
X36057Y-52039D01*
X36102Y-52072D01*
X36257Y-52076D01*
X36276Y-52072D01*
X36321Y-52039D01*
X36321Y-55724D01*
X36305Y-55708D01*
X36216Y-55849D01*
X36140Y-56269D01*
X36216Y-56651D01*
X36305Y-56792D01*
X36847Y-56250D01*
X36847Y-57028D01*
X36694Y-57181D01*
X36835Y-57270D01*
X37256Y-57346D01*
X37637Y-57270D01*
X37778Y-57181D01*
X37778Y-57975D01*
X35973Y-57975D01*
X35973Y-49715D01*
X35844Y-49586D01*
X35811Y-49629D01*
X35807Y-49780D01*
X35811Y-49801D01*
X35844Y-49845D01*
X35973Y-49715D01*
X35973Y-57975D01*
X35966Y-57975D01*
X35966Y-51684D01*
X35834Y-51551D01*
X35801Y-51597D01*
X35797Y-51752D01*
X35801Y-51771D01*
X35834Y-51816D01*
X35966Y-51684D01*
X35966Y-57975D01*
X35723Y-57975D01*
X35723Y-52624D01*
X35723Y-51610D01*
X35723Y-49789D01*
X35723Y-48775D01*
X35711Y-48748D01*
X35690Y-48727D01*
X35663Y-48715D01*
X35633Y-48715D01*
X35351Y-48715D01*
X35332Y-48734D01*
X35332Y-49036D01*
X35704Y-49036D01*
X35723Y-49017D01*
X35723Y-48775D01*
X35723Y-49789D01*
X35723Y-49547D01*
X35704Y-49528D01*
X35332Y-49528D01*
X35332Y-49831D01*
X35351Y-49849D01*
X35633Y-49849D01*
X35663Y-49849D01*
X35690Y-49838D01*
X35711Y-49817D01*
X35723Y-49789D01*
X35723Y-51610D01*
X35711Y-51582D01*
X35690Y-51561D01*
X35663Y-51550D01*
X35633Y-51550D01*
X35351Y-51550D01*
X35332Y-51568D01*
X35332Y-51871D01*
X35704Y-51871D01*
X35723Y-51852D01*
X35723Y-51610D01*
X35723Y-52624D01*
X35723Y-52382D01*
X35704Y-52363D01*
X35332Y-52363D01*
X35332Y-52665D01*
X35351Y-52684D01*
X35633Y-52684D01*
X35663Y-52684D01*
X35690Y-52672D01*
X35711Y-52651D01*
X35723Y-52624D01*
X35723Y-57975D01*
X34437Y-57975D01*
X34437Y-52678D01*
X34451Y-52684D01*
X34481Y-52684D01*
X34763Y-52684D01*
X34782Y-52665D01*
X34782Y-52363D01*
X34774Y-52363D01*
X34774Y-51871D01*
X34782Y-51871D01*
X34782Y-51568D01*
X34763Y-51550D01*
X34481Y-51550D01*
X34451Y-51550D01*
X34437Y-51556D01*
X34437Y-49843D01*
X34451Y-49849D01*
X34481Y-49849D01*
X34763Y-49849D01*
X34782Y-49831D01*
X34782Y-49528D01*
X34774Y-49528D01*
X34774Y-49036D01*
X34782Y-49036D01*
X34782Y-48734D01*
X34763Y-48715D01*
X34481Y-48715D01*
X34451Y-48715D01*
X34437Y-48721D01*
X34437Y-16252D01*
X76019Y-16252D01*
X76413Y-16252D01*
X76657Y-16252D01*
X76657Y-54586D01*
X76657Y-54633D01*
M02*
